<mxfile host="app.diagrams.net" agent="Mozilla/5.0 (X11; Linux x86_64; rv:140.0) Gecko/20100101 Firefox/140.0" version="28.0.6">
  <diagram name="Pagina-1" id="ztOF_XK8uLvyLNqtx-sG">
    <mxGraphModel dx="648" dy="586" grid="1" gridSize="10" guides="1" tooltips="1" connect="1" arrows="1" fold="1" page="1" pageScale="1" pageWidth="850" pageHeight="1100" math="0" shadow="0">
      <root>
        <mxCell id="0" />
        <mxCell id="1" parent="0" />
        <mxCell id="TYrLCPMJrX0rA2hv0LJ_-5" style="rounded=0;orthogonalLoop=1;jettySize=auto;html=1;exitX=1;exitY=0.5;exitDx=0;exitDy=0;entryX=0;entryY=0;entryDx=0;entryDy=0;" parent="1" source="TYrLCPMJrX0rA2hv0LJ_-1" target="TYrLCPMJrX0rA2hv0LJ_-4" edge="1">
          <mxGeometry relative="1" as="geometry" />
        </mxCell>
        <mxCell id="TYrLCPMJrX0rA2hv0LJ_-26" style="rounded=0;orthogonalLoop=1;jettySize=auto;html=1;exitX=1;exitY=0;exitDx=0;exitDy=0;entryX=0;entryY=0.5;entryDx=0;entryDy=0;" parent="1" source="TYrLCPMJrX0rA2hv0LJ_-1" target="TYrLCPMJrX0rA2hv0LJ_-25" edge="1">
          <mxGeometry relative="1" as="geometry" />
        </mxCell>
        <mxCell id="TYrLCPMJrX0rA2hv0LJ_-1" value="&lt;div&gt;v&lt;sub&gt;i&lt;br&gt;&lt;/sub&gt;&lt;/div&gt;&lt;sub&gt;value:1&lt;/sub&gt;" style="ellipse;whiteSpace=wrap;html=1;aspect=fixed;fontSize=20;" parent="1" vertex="1">
          <mxGeometry x="60" y="210" width="80" height="80" as="geometry" />
        </mxCell>
        <mxCell id="TYrLCPMJrX0rA2hv0LJ_-6" style="rounded=0;orthogonalLoop=1;jettySize=auto;html=1;exitX=1;exitY=0.5;exitDx=0;exitDy=0;entryX=0;entryY=1;entryDx=0;entryDy=0;" parent="1" source="TYrLCPMJrX0rA2hv0LJ_-2" target="TYrLCPMJrX0rA2hv0LJ_-4" edge="1">
          <mxGeometry relative="1" as="geometry" />
        </mxCell>
        <mxCell id="TYrLCPMJrX0rA2hv0LJ_-2" value="&lt;div&gt;v&lt;sub&gt;k&lt;br&gt;&lt;/sub&gt;&lt;/div&gt;&lt;sub&gt;value:0.5&lt;/sub&gt;" style="ellipse;whiteSpace=wrap;html=1;aspect=fixed;fontSize=20;" parent="1" vertex="1">
          <mxGeometry x="60" y="470" width="80" height="80" as="geometry" />
        </mxCell>
        <mxCell id="TYrLCPMJrX0rA2hv0LJ_-4" value="&lt;div&gt;v&lt;sub&gt;s&lt;br&gt;&lt;/sub&gt;&lt;/div&gt;&lt;sub&gt;value:0&lt;/sub&gt;" style="ellipse;whiteSpace=wrap;html=1;aspect=fixed;fontSize=20;" parent="1" vertex="1">
          <mxGeometry x="280" y="350" width="80" height="80" as="geometry" />
        </mxCell>
        <mxCell id="TYrLCPMJrX0rA2hv0LJ_-7" value="" style="shape=flexArrow;endArrow=classic;html=1;rounded=0;" parent="1" edge="1">
          <mxGeometry width="50" height="50" relative="1" as="geometry">
            <mxPoint x="394" y="390" as="sourcePoint" />
            <mxPoint x="780" y="390" as="targetPoint" />
          </mxGeometry>
        </mxCell>
        <mxCell id="TYrLCPMJrX0rA2hv0LJ_-16" value="" style="shape=image;verticalLabelPosition=bottom;labelBackgroundColor=default;verticalAlign=top;aspect=fixed;imageAspect=0;image=data:image/png,iVBORw0KGgoAAAANSUhEUgAAAU4AAAA1CAIAAACho5WIAAAACXBIWXMAAA7EAAAOxAGVKw4bAAAY70lEQVR4nO2de1xTR/bAh0B4BgIIBgW2ILJoqSIgAkpF66NFlKdoAVetxtoKuNpWrbvuat0qywL2obQV0bXaRXxBF1TA9aNCFIk8BQEFREBAUCBAwjMh9/fHbOd3NyQ3NwlJAPn+Ndx7ZuYkZF5nzpnRwDAMTDLJJBMdiroVUJT79+8LBAJ1azExyc3NVbcKk4wa47ipDw0NMZnM0NDQ3t5edesyAeHz+du2bQsODp78eicGGuN0At/f3x8QEPDw4cO8vLzZs2erW52JSUtLi6en57Rp07Kzs+l0urrVmUQhxuWoLhAIgoKC7ty5c/Xq1cl2rjymT59+48aNJ0+e+Pj49Pf3q1udSRRiXDb1Tz/9NCsrKyEh4b333lO3LhMcR0fHixcv5ufnh4eHj9MJoFIZHBwcU1+LUCiU+A4bbyQlJQEAfHx81K3IG0RERAQAICYmRt2KjAm6uroSEhIWLVrEYDA0NDSoVKqtrW1ERMS9e/eEQuHo1tXb22tmZrZq1aqkpKRXr15JEmtrazt58qS7u/uWLVskyYyztXp1dfW8efOoVGpFRYWVlZW61XlT6O3tnTNnTmNjY35+/vz589WtjtoQCoUxMTFff/01n88PDQ1lMpl2dnYdHR05OTmxsbGNjY1eXl5JSUkODg6jVWNbW5uFhQVMUygUd3f3GTNmWFhYWFhYCIXCzs7OFy9eFBcXP336FMMwGo2Wn5/v6OgovqzR7YSUilAo9Pb2BgDEx8erW5c3juTkZADAnDlzhoaG1K2LehgaGgoODgYAWFpalpWVjXz7ySefAACMjY3v3r07WpW2traS7BTodDpxveOpqf/8888AAAaD0dfXp25d3jiGh4fnzJkDAIiLi1O3Luph27ZtAAAqlcpms8UKCIXC1atXw1ZXVVU1KpWSbOqurq5Sa5QygY+IiKisrCTZr4wKCQkJb7/99sjnfD7fwcHh+fPncXFxn3/+uSpVmgRy6dKl9evXm5qaPnv2zNjYWN3qqJT09HR/f38AwLZt2xITEyWJNTQ0zJw5UyAQuLq6Pnz4kEJR1OyNn8CLxc7O7osvvti2bZumpqaUsoh7Ag8PDwV1lZUHDx6I1eTkyZMAAH19/Z6eHvk6yEkUZHBw0NzcHABw6NAhdeuiUgQCAdrTHTl1FwFO8gEAZ86cUbxqOKozmczTp09/8sknfn5+Hh4eixcvDgkJOXToUF5e3vDwMMmipIzqxcXFPT09ym3c/4uLi4uRkdHI587OzqWlpeHh4b/88osq9ZkEz969e2NjY62trevr6xUfssYL165dW7NmDQDAwsLi5cuXxMKnT59mMpkAADc3t4cPHypYNRzVDx06dPDgQQWL0iJ+7eLiomAFo0JpaWlpaSkA4A9/+IO6dXmj2bBhQ2xs7IsXL27evPnBBx+oWx0Vcf78eZhYuHChVOEFCxbAREFBQWVlpdjVqFoYHx3zmTNnAAB0On358uXq1uWNZu7cuZaWlgAA6N3wJsDj8dLT02GazP6ura0tSsNtizHCOGjqQ0ND8CtbsmSJdNvDJEoGDubp6ent7e3q1kUVPHz4cGBgAKahqYIYGo2GbJb3799XomYyMg6aOpvN7ujoAAAsXbpU3bpMAuDEis/n5+TkqFsXVVBUVITSZmZmZLKYmJigvESeqqpFylp9JHV1dZmZmbW1tQ4ODqtXryYzpcEwTENDQ+zz8+fPl5eXM5lMAgcjFosFE15eXrJqy2az7969+/r1aycnp6CgIAMDA0mShYWFly5d8vDwCAoKkrUWJcHlclNTU8vLyxkMxtKlSwnc1AYHBxMTE1++fLlr166pU6cqVStXV1eYYLFYyNo8gYFGIgjJpo6iALlcbk1NzSg6zymETKb/6OhoQ0NDHx+f7du3GxkZGRkZXblyhUC+vr7e0dHR3Nw8Jydn5NtNmzZBHaZMmdLV1SWpkPfffx8AQKFQZPKcGRgYCAsLMzExCQ8P37BhAwDAzs5O0k7JzZs3tbT+2+sRfyKVkZ2dPW3aNHd398jISHt7ew0NjS+++EKs5PDwMJrvzJ07d9TdsEUQCoWGhoYAAGdnZ6VWNEZYsWIFaixZWVlksuC3qG/duqVI7XCzDb+7+fz58wsXLnz77bfHjx9PT09va2sjWZQMTf306dOWlpZo3/svf/kLAIBGozU0NEjKgr6myMhIkVfPnz/H9zhJSUliSxAIBPCHNXPmTPKqYhi2ZcuWd999t6mpCf65ePFiAICTkxOfzx8pvGzZMqTJ8uXLZapIGVRUVJiZmZ06dQr+efv2bajb5cuXRwqjWQ/k3r17ylYPTq8oFApBBz1hQBZ1AMB//vMfMlkWLVqEsvzyyy+K1I5v6qmpqfPmzdPQ0LC1tV21apWHh4eOjo6Wlpavr29paanUosiu1dlsdlRUVGpqKuqxoO2Bx+OlpKSIzdLT03Pnzh2Yhj6VeExMTPD757W1tWILaWho4HK5AIBZs2aRVBUAkJCQkJeXd+PGDWguBgDAuh49elRYWDhSHokRaKIyurq6/P39o6Oj4fYs+E15IMHuzWAw0JQEqER/aGQWCoVVVVXKrkvt4P1KSLoS4P8dbW1tiuvA5XLXrl3LZDLDwsJ6enrq6uquX7/+4MGDtra2kJCQ69evz58///Dhw1K0IlOTUCjcsGFDREQEvodDDrOSPGdzc3PRqW8wTAUPnU7PyMhYuXLl4OAgAGBoaEhsIWjwJ7lMAgA0Njbu3r07OzubRqOhh0+fPoWJJ0+ejHQB/O6771gsFqwL6qNG9u3bZ2lpido5+F/lR8rb29vHxcXt2rUL/qkC/ZGBpr6+XkF/SqFQGBUVVVlZqbwDAvX19QMCAj799FP5suObOskNILwYst4rwjfffOPm5lZdXT1lyhT8czqdnpycjGFYSkrKwYMHOzo6vvvuO4mlkJlFpKamGhgYcDgc/ENkbNi3b5/YXJ999hkUmDp1qqSSo6OjoUxsbKxYgVOnTkGBXbt2kVEV1uvl5YV/0tLSgvrj9PR0sbnu378P/0Pz588nWZEyePXqla6ursgCD4ZMAQBcXFwkZVy1ahWUuXbtmrKVTEhIgHUdPXpUwaI4HA5+DFQSnp6ecmuIHzBYLBaZLPjl/cGDB+WuGsMwuKM5b948LpcrSaarq8vU1BRWd/r0aUlipL7lb7/99sMPP8RHOBQWFqKhBi6DR3L37l2YWLJkiaSSIyMjjxw5wuPxJFkp6+vrYYLk2WZcLjcpKQn9FiGXLl2Cex7a2trvvvuu2IwLFy709/dPTU0ldm/Kzs4+c+aMn59feHg4GX1k5YcffrCyssLbDgQCwZUrV2CawIPo73//+40bNwAAKnDPQgEYIgYXOTA2Nn727FlNTY1SR/WR60eSYBjG4/HQn2I3kkaCF+Pz+fJVDTExMdmzZ09UVBS+xxGBTqcHBARAN7M//vGP77//Pn5B+v9I7Veam5sBANnZ2fiHUVFRMLuZmZlYQ1dXVxcaSH/44QeC8uHcvqWlRezbHTt2wEKOHTsmVVUMw5KTk3V0dLq7u/EPkXtvQEAAQd6jR48CyfMLDMMqKyvhEKSjo8Pj8cjoIyu///3v9+/fj3+CXLUAAATWF4FAoKenR6PRlG2BxzAsMzMT6rN27Vpl16V28I2F5KiOPwftyJEjytYQwzB8YMjnn38uVka6mWFgYCAwMBA/zvD5fGSKCw0NFTsBY7FYyHlg5EIdj7W1tbW19bRp08S+7evrgwmSUZO6urr79u3DG/zKy8uLi4thOiwsjCAvHA8J3P4bGxvh4GNlZaWvr09GH1lxdHTcsmUL/snZs2dhYvbs2U5OTpIyampqOjg4ODs7kxx5FEFPTw8m0H9nAkOlUlGapD/M8PAwSouN3Rp18N5liYmJYg0E0ifwM2bMSE1NxT+5efPm69evYXrz5s1ic6HZu7m5OfGUsrOz093dXdJb9GMiOYEPDAwMDAzEP0GxCoaGhvDkAAJNtLW1PT09JQksX778b3/7W2Nj4/79+5XUokS+6q6urmvXrsG01CVDZ2cn8QccLd6opq6jo4Mm4SRXGapv6tOnT9fR0YEWWS6Xm5eXN/KEVXkcY5ET/6xZsySNgWQW6pBHjx5JWu0D3Jerra0to5oAAIBh2IULF2A6ICAA/UbFUlRU5ObmRiCjqal54MCBxMREfEiDUrly5Qram/jwww8JJNvb2xsbG4knUKMF6uYUXIiOC/BbP5L2iUTA9wgqOz8f7wkq9loemZv60NAQGmck/fi6u7tLSkpgmvjHV11d3dzc7OPjI0kAzZPlC5tns9lNTU0wTTx7BwCwWKyxFjmHDHLu7u52dnYEkiwWS09Pj0yUpeJ0d3fDhJJWMWMK/NKS5EYmvgdUzagO/repQ/uaCDI39du3b6NWt3btWrEy+IU68ah++/ZtOzu7mTNnShJQsKmnpaXBhLm5OXEzbmhoKCsrW7dunRy1KInu7m7kJye1n8rIyFi9erVq2h5q6gQxBRMGfFMn+SN89eoVSqPQF1nBMOzLL7+0traeP3/+9evXpcrjZ6NofY1H5qaekZEBEzNmzJB0DC1ykjMzMyNeqKenpxMM6QD3Y0I/L5lA5utVq1YR79/Cbbaxc5AAACArKwuND35+fgSSAoEgPT1dZf3UGzWq402hZH6EGIYhDzktLS2ZvDzxJCYmxsTENDU1FRUVrV27VuxAjUeqgUBm7wXkcU0wSLLZbJjw9vYmMF9xOJxbt27t37+foDpra2uYkKOpt7e3I/cyqSaDs2fPrl+/Xuyrvr6+rKys1tZWJycnvHuzsrl37x5MvPXWWzY2NgSS6enpg4ODyIuGgObm5ry8vNbWVm1tbRsbm6VLl8phBOnq6oIJxY/iHx4eDgsLq6qqUt6yX19fPyQk5Msvv5QvO94dkEyIfkdHB1rSOzo66urqylcvPrRhYGCgsLBQ/G75b+D3/8XuZ8nW1Pv6+ioqKmBaUkwlhmGPHj2CaeKl49WrV62srIhDU5EBTI4JPN7dncDyBwBgsVjV1dXbt28f+aqoqMjPz2/mzJkGBgYRERGBgYGXL19WzQkZBQUFMEGsPAAgISGByWQSj7GVlZW7du3Kzc1duHChra0th8Opqqp6/fp1fHw8CjEkCep2FTdP9vb2ZmRkKPtCOENDQ7mb+oIFCzQ0/nsEI3LoIgB/nDPBbo5U8P72FAqFeL6JYVhnZyf609nZeaSMbE29tbUVLcIlzd57enpQB0NsSfrxxx83btxIvGuFRjM5zjxBJ/5pamoSj4rx8fFbtmxhMBgizxsaGvz9/ePi4kJDQzEMo9PpaWlpp06dQp6qSgXpT2DLAACUlJTcu3cPHpIvCTabvWLFCgcHh8ePH+NLY7FYfn5+NjY2Mpnu0aiueFM3MjJqbm5GDgvKQE9Pb8aMGXJnNzY2XrFixc2bNwEAdXV1UuWRGRhI2zQhBn23xsbGR44csbe3JxCura1F0yIqlSp+USyTUw5yhgUASDpiHr+oyM/Pl1QUi8WiUqn19fXENfb09MC+QI7o6J9++gmqYWlpSSCWm5urpaVVV1c38pWHh8eBAwdgms/n6+joAADgRYXEtLa2XrhwIScnR6wrIUmQ/ymKZhXLe++9t3XrVgIBPp/v6OhIp9NHXvq1detWCoUiyb9KEmj3vra2VqaM45Rff/0Vfl4ajSb1chsUYWZtbU3gudjR0ZGSkpKZmSkQCMQKwOUbtHBL1RB/iN26devEysjW1PGz6EePHomVQUZjQBg77e3tvWPHDjKVQgdmfX19WV0+//3vf0M1pk2bJkmGz+e7urru2bNn5Kvs7GxjY2N0HgY6J2zv3r3E9RYVFSG76wcffDAwMCCT2gg0DTt58qQkmbS0NBMTkxcvXhCUc+7cOSDOifXBgwewfFnPdYcDDoPBkCnX+EUgECCb0Z07d4iF0YI0OjpakkxFRQU6LMjLywte5yrC8PCwvb09nE5KBQ3jVCq1urparIzMFzm5ubnBQv/5z3+KFcCvz3/++WexMsnJyXQ6vbm5mUyNyA1e7MBLQEtLC1xUa2hoSDrBZufOnc7OzmK/6zVr1uzcuRP9CW8jBSQcoUVc1o4fPy6T2ggUdykpdvDZs2cmJiZiz6vAAzWfPXu2yMfs7OxcsWKFr69vR0cHea16e3vhPOtNcIBHIPfk4OBgArHHjx+jIb2/v1+SmIhDp6RwtPPnz2tqakoNVSwuLkYL+8OHD0sSk7mpZ2VlwXJXrlw58m1cXJyhoeE333wDKxYrU1BQYGhoKCmYdCTI3U2OAz3QQXFiB8aEhAR9fX1JK5Hdu3ejDrKvrw864dvZ2UmtVMQoQhB5SkxJSQn8qn/3u9+NnDe2trbOmTPno48+klrORx99BDWZN2/eiRMniouLFVlWoNMjv//+e7kLGY/AWx80NDQknSGFTv7S0tLKzc0lKErEx5Qg0DU4OFhPT49gdtze3o4sYuvWrSOY+cpzPSOMAAMAfPXVV2ilIRQKv//+eyqVevHiRQzDNm7cCGViYmLw1Z87d87c3Fymm7rR4v/jjz+WVdWXL1/CqdfUqVPv37+PnnO53I0bN9JoNKnzMaQ21OHrr7+WKixi7NXR0ZFVbcSRI0dgIVu3bsUvBLKzsxkMRlBQkNj5iAhoIYMwMDAICAgQiVYkyaFDh2AhklZwExUejwcdy6dMmVJQUCDydmBgAN7fqKWlJXVMOnDgAPpfaGho5OXlSZLs6elZsmSJjo7O/v37R4asl5SUoHa+Y8cO4h5czptYL168CJfQb731VlhY2KZNmxwcHBgMBppsCIXCU6dOwUMzZs2aFR4evm7dOjs7O2tr69u3b8taHQwyd3BwkEPV1tbWTZs26enpaWlpLVq0iMlkBgUFGRkZeXt7w1upyQC3uygUSmNjo1Thvr6+7du3m5qaWltbx8fHAwDa29vl0BySnJz8zjvvAACsrKyCg4OZTKaLi4uhoeGxY8fI39f1pz/9SexhSTt37pTVAgJt9e+8847sH2XcMzw8HB0dTaVSNTU1P/7444KCAi6XW1dX969//Qs2ORsbGzKDx8DAQGRkpKmpqa2t7dmzZ4mF+/v7IyMjNTU1GQxGeHh4TEzMpUuXjh075uvrC1dStra2cHwlRsqdbQRgGJaXl1dTU/P8+XMejzd37lx/f3+RUNP+/v68vLz8/PyOjg5DQ0MnJycfHx/imBOxnDt3Du79VlZWoovyZKK7uzsjI6OhoYHD4UyfPn3ZsmUEAaEiVFdXw5MzVq5cmZ2dLVO9XV1dJiYm7e3tIkcFyQqbzWaz2S0tLdra2rNnz/bz85PVKbW8vPzMmTP5+fklJSV4X+5//OMfe/bsIVkIh8OxsLAYGho6duzY7t27ZVJgwlBbW3v+/PmLFy/W1NTAvWcajbZkyZLNmzevWbNGvrgsqZSVlSUlJaWlpaHNPGNj46VLlwYGBq5fv55UpaR6M3XT19cHI4QUPL5HPvbu3Qu/KzJ9pwhlZWWamprkh18VwOPx0tLS4JHbAABXV1fyeeH+JZVKJX8m8QSGz+c3NTWJnIOibAYGBhobG+U4GWV8NHXsNzu8fHN4RRgaGoKuNaampmi1XFhYuH37djLZ09PTVa8zRCAQHD58ODg4WKxRZ3h4GE7FZ82aRb5MuJNEfJjPJGOTcXCREyQqKkpTU/Pp06e3bt1SZb1ZWVkweiE8PBy60AAAjh8/TvIk0MzMTKlurUoiLi7ur3/969WrV//85z+PfEuhUGBcgFgnSrFUVlZC5wLisIVJxijq7mtkAFo4ly1bpspK0aHLxcXF8AmHwzEwMCgsLJSaVyAQTJ069caNG0rWUTzoUmRJh+1CezLJG0swDAsNDQWTQ/q4ZTw19ZaWFhidx2azVVYp/H3TaDT0hMlk+vr6ksl79uxZGxsbdS3UIyMjp0yZEhsbK9aXMyUlhUKhhISEkCztyZMnFApFR0eH/LbFJGOK8dTUMQxLTEwEAHh4eKis/cCD6M3NzeGmVExMjL29/evXr6Vm5PF406dPl+QvqALgbVCfffaZiAmNx+PFx8dTqVR/f38Cjy4RYMC8as4/nUQZjLOmjv02Lz1x4oRqqhMKhfAI1wULFsDTOGpqashk3LBhw+LFi9Vre6+qqgoJCdHX13dyclqzZo2/v7+bm5uurq67u3tKSgr5cqDDoqenp9Rgj0nGLPLvq6uLjo4OFxcXDodTVlZGHJo6ilRXV5eXl1tYWHh4eJAJVj969OiJEyfYbDYKk1AjHA6npqamqalpeHiYwWBAZyfy2dvb299++22hUFhSUjIWPs4kcqLuvkYeSktLjYyMHB0dx+ZNoEKhcNmyZRUVFepWZBQYHBz09vbW1dUledvBJGOW8TeqQ3Jycnx9fT09PTMzM1Vw6dcby+bNm5OTky9fvuzv769uXSZRiHGzry6Ct7d3VlZWcXEx/sbSSUYXuC3/66+/TrbzCcB4beoAAC8vr8LCQh6Phz9Va5LRYmho6PHjx/n5+WROp5xk7PN/IF/6AL/4OJsAAAAASUVORK5CYII=;rotation=35;" parent="1" vertex="1">
          <mxGeometry x="160" y="280" width="132.47" height="21.02" as="geometry" />
        </mxCell>
        <mxCell id="TYrLCPMJrX0rA2hv0LJ_-17" value="" style="shape=image;verticalLabelPosition=bottom;labelBackgroundColor=default;verticalAlign=top;aspect=fixed;imageAspect=0;image=data:image/png,iVBORw0KGgoAAAANSUhEUgAAAS8AAAA1CAIAAACfhvrGAAAACXBIWXMAAA7EAAAOxAGVKw4bAAAU4UlEQVR4nO2dd1hTV9zHT9i7sgxTQIuAKIiooIBA1UfqAAriAEdB3FRFsVhbW7V1IrYOLO5RRRxVBEXheZQRRSJCZDsAAVmaKCvsJPf947w9b16SXHIjSQjy+YPncO85535Pkt+Zv3MuCcMwMMQQQwwA5KQt4LNgsVhZWVnSVvHFkZmZKW0JgxMZtsb6+noXF5cDBw5IW8iXRU9Pz8qVK/39/dva2qStZbBBktGeakVFxTfffKOrq5uZmamuri5tOV8WdXV1U6ZMMTQ0TElJ+eqrr6QtZ/Agk9YIfw0YhlGpVENDQ2nL+RIpLi52cXEZM2bMw4cPVVVVpS1nkCB7PdW2trbZs2d/+PDh7t27Q6YoLWxtba9du5adnR0UFCSLFboE4HA4PT09hJLInjWuXbs2Pz9/9+7ddnZ20tbyRTNr1qx169bdvn07KipK2loGHC0tLV5eXnp6ehwOh0AyTKa4dOkSAGDSpEksFkvaWobAmEymhYWFvLx8Tk6OtLUMFDgczp07d8zNzaF9dXZ2Cp9WlsaNdDrdxsbm48ePz58/d3R0lLacIQAA4OrVq4GBgePGjcvNzVVUVJS2HKnR0dFRWlp669aty5cvV1VVoeudnZ3KyspCZtKHNWZmZhJraj8bDw8PQbdCQkLOnz8/b968xMRECSoaAg8OhzN+/PjCwsJDhw5t2bJF2nIkzT///BMVFdXY2FhbW4thGIlEcnNzq6ysrK6uhhH60xrV1NQ6Ojo+VzIR2tvb+c7RvXr1ytbWls1m5+TkTJw4UZKShsDn+vXrCxcu1NHRKS8vHzZsmLTlSJQrV67ExMTo6OiYmZk5Ojp6enpaWFh4enqmp6fDCISsUQH/tpubW3d39+fIJYqg6fJdu3ax2Ww3N7chUxxo+Pr66uvr0+n0I0eO/Pbbb9KWI1GCgoKCgoL6LTvxDGX7GTqdDsckp0+flraWIfiwdetWAICpqSmbzZa2FunDPdoiNIsjGyscly9f7unpUVFRCQgIkLaWIfiwZMkSAMC7d+9SU1OlrUWGkQ1rPHfuHABgxowZQ35YAxM7OztjY2MAwJkzZ6StRYaRAWvMzc0tLCwEAEyfPl3aWoYQiJeXFwAgMTGRwWBIW4usIgPWmJycDAOenp7SVTIEDjNmzAAA9PT0ZGRkSFuLrNLHnCov2dnZGRkZDAbD3t7ez89PTU0NPz6GYSQSie+t1tbW2NhYJpO5ZcsWLS0tQTlQKBQAgJaWlgiucFQqNT09nU6nQ7U4uz2eP39+/fp1Z2dnPz8/ok+RMK2trbdu3SosLCSTyZ6enjiTzF1dXadOnaqvr9+0adPw4cPFqgr5Y1AoFH9/f7E+a9Ai/IRPR0fHwoULdXV1Fy1aFBgYCACwtLQsKirCSXL37l0ymWxtbf3p06det5hM5pgxY6CGGTNmCMqhp6dHQ0MDAAA3bQhPZ2dnYGCgtrZ2UFAQnGMYNWpUQUEB38ipqakKCv9bMd28eZPQgyRMSkqKoaGhk5NTWFiYpaUliUSKiIjgG5PNZqPehJ2dHYfDEaswDoejqakJAHBwcBDrgwY+Is+pErDGpUuXuri41NXVwX/d3NzgRy/IZZTJZKK1YN6f+Pnz57krhbKyMr6ZPHv2DEYIDQ0VXiqGYSEhIW5ubjU1NfDfadOmAQDs7e17enp4I3OPSHGqBqlTXFysp6eHlnkePXoENd+4cYM3MuxTIB4/fixuea6urgAAOTm5pqYmcT9rICP2FY6//vorLS0tOTkZbWKClkaj0XJzc/kmycjIaGpqguFx48b1umtmZtbLGvlmAudvAADW1tZCSgUAxMTEZGVlJScnw4k+AADsCefn5z9//pw3PoqGo0TqNDU1+fj47Nu3LzQ0FF5B3Xu+M5lkMhk1+EAi5bKwsAAAcDic0tJScT9rUCLUuLGiomLr1q137tzhHt2VlJSgwOTJk3lToZrbwMBg9OjRve56enru379/27Zt8F9BHj9v376FAT09PWGkAgCqq6vDw8NTUlJgFxfy6tUrGHj58qWzs3OvJEeOHKFQKPBZXV1dQj5IwkRGRhobGyNTBP+/ULzxLS0tDx06tGnTJvivBMplYmICA5WVlbwfMiE4HM4PP/xQUlLCYrH6Qxof1NTUfH19165dK6b8RUAoazxy5IiTk9Ps2bPRlbq6OmQnBgYGfFOlpaXBAOwl8hIZGZmWlpaSkgIAELRvGD1FeAdIqJZ7Ara+vr68vByGdXV1eZMMGzbs8uXL06ZNY7PZ3O0kpKura8+ePdXV1Z8+fWIwGO/fv582bVqvnra4odPply5dunv3LvdF1BflWygAwMaNG1NTU+GkNG+5+h1kjehbE5mWlpZTp06JzxQhra2tMmaNLS0t58+fP3HiBPfFuLg4uLdDSUmJby3Y3Nz84sULGMbZlrFt27aUlBQSiWRpack3QmVlJQwIue7f2tp65syZmJgY7ovXr19HauFwl5epU6f6+PjcunULzS0hWlpa8vPzm5qa8vLymEwmAIC7YpIMJ06cMDEx4R7fslismzdvwjBcXeDL/v37oTXylqvfQfXy51vjsGHDysvL37x5I9a2kXcAJWX6HFnGxcUpKys3NzdzX0TF8PHx4ZsqKSkJPaKkpERQ5j09PQoKCqNHjxYUAf2G8vLy+pQqSO2ECRNgJr6+vjhp9+7dCwCIiooSFGHz5s0wH8nPu44ePfqnn37ivsK9rezFixeCErJYLFVVVQ0NDXHPqWIYdv/+fahn/vz54n7WQEbkWZy+20YVFZXIyEjuEWN+fj6aXFm2bBnfVGhHib6+vo2NjaDMFRQUDAwMnJycBEVob2+HASF7qrxqCwsL8/LyYBguzAgCWj4yXV5ycnJgQFDfW3zY2tqGhIRwX7lw4QIM2NjY2NvbC0ooLy9vZWWlqakpaNW3H0H7b9C3NgQxRDD9iIgImFZXV7erq4tvHLQWHBAQgJMVh8NRV1c/fvy4oAhozfrjx48iSMX+214AANDU1Gxvb8eJee7cOSUlJUFx2tvblZSUAAC2traiKelHGhsboRgAwB9//IEfecSIEb/88osEVFGpVCjJw8NDAo8bsEhuDweGYfHx8cjS0G+Cm+bmZhqNhr4YnNzKysra2tpwmho0bOD7IGHUXr16FYZ9fX3xzxrMzc2dNGmSoDhPnz6FE7/u7u4iKOlfbt68iWahFy1ahBOTwWBUV1dLRjNqfomelTYEhLA1Pnv2rKamBoYF/Q4oFAo6vwP/d5CWlmZsbIwzmEaedy0tLUSlAgCoVCpSi99NBQBQKBSc6RDU98avXyQDmr9xcnIaNWoUTkwKhaKqqjp16lQJqGpuboaBPv0lh+ALYWu8ffs2DAwfPlzQ/CT64erp6eFP5T169Ojbb7/FifCZ1ojU6uvr41gaAKCqqqqgoGDBggWCIqBCSX7Q2Ivm5ma0lttnFZOUlDR37lzJmAeyxqHT30WDsDWiydK5c+fKyfFPjlYaPTw8cCYPuru7U1JS4E4cQaDvFX3ThEATj7Nnz+Z2TOEFrm0Iqjs6OjrgoMjGxoZMJougpB958OAB6gp6e3vjxGSxWImJiThVTP8y1DZ+JsT2cHz8+BG54Ahqajo7OwsKCmAYv5uamprKYrHw20ZTU1M4BBXBGhkMBnJS6bN7eeHChYULFwq6iz9ohO6B6urqXl5e2traRHUS5fHjxzBgZmaGzu3kS2JiYldXlzCro7W1tVlZWQ0NDUpKSubm5p6eniIM1JEjJHIDEBk2mx0YGFhaWiq+IaiamlpAQADyBhsIELNGbidPQRt5ioqK0NQL/nAlPj4+ICAAvx6Fro9ApJ4qt1r87iWFQnn9+vXq1asFRRA0aMzNzQ0PD6+pqXF2dqbT6REREc+ePRO314vwCy0xMTGhoaH4n3BJScmmTZsyMzOnTp1qYWHR2NhYWlpKp9Ojo6OXL19OSBiqMdG3JjJtbW1JSUniPq9QU1NThq2xtrYWBpSVlb/++mv8OAAAnAkGOp1+8+bNBw8e4D8R1f0i7Civr6+HAXl5efw2JDo6OiQkBKcLynfQePr06d9+++3AgQNBQUFlZWUbN26sr68/fvz4vn37iEolBCqXoK8AQqPRHj9+fPHiRZw4VCp15syZVlZWRUVF3LlRKBRvb29zc3NCk7Gobfx8a9TS0qqtra2urhafL46qqurIkSPFlLloELNG9NEMGzZM0IAQvdZPRUUFx53t5MmTFhYWfX7Z6Cfy+vVrQlIBlye6gYGBoCEuAIBCody7dw8nfzRotLKyQv60u3btSkhIePr0KdyMEhwcDN/rit+Gv3//Pi0tzcjIaOrUqfjjWBxQuYyMjHCiRURELF26FKfTyGKxVqxYIScnl5ycrK+vz33r4sWLLS0tSUlJhKyxoqICBvCrCSHR1taWQLd/QEHsB4G+fpxDVtHGAg6Hw+Fw+JrBx48f//zzz9jY2D4dRJydnUkkEoZhfLcp4IMsB+e4dBaLFR4eHh4ejlOd9xo0Yhi2efPmnJyc9PR0VN3Iy8vDv4sXLxaUT15e3owZMxobGwEAXl5eCQkJwp9726tcDQ0N+OVKSEig0Wj4DePVq1eLi4vnz5/fyxSzs7PPnj0LAIC7h4WnuLgYAEAmk/EXXQY9mMhv0yDkZNDY2IjetVBRUcEbgcFgcHulVVVV8c1n1apVkydPFtJzEs5zjhgxgpBUDMPq6uqgkZBIJEEeNhs2bHBwcBDkUQTZsWMHLE5cXFxnZ+eyZcvc3d2ZTCZ3nHfv3h09ejQ3Nxcnn7lz53J/8seOHSNaIgjadhAZGck3Qnl5uba2Nt8tyNysX78eAGBjY9Or+J8+fZo5c+acOXMI+T+1tbXBuvULd1LFMIx7SoX31AscCHvGbd++HT5m7969vW5xOBxvb29HR8d169YJioNhWGxsrK6ubmVlpZBPRJMr7969I6oWHXJz8uRJ3rsxMTFqamqlpaX4maBl1fv370+cOHHVqlUdHR1ElWAY5uDgwG2NEyZMECETDMNoNBrscYwYMaK7u7vX3YaGhnHjxgUHB/eZT3BwMFQyfvz448eP5+Xl8T0YQUjQ4VRHjx4VOZNBQGFhIbc716lTp4RPS9ga2Ww2XJNQU1NLSkpC11tbW7///nsdHZ2XL182NTVB9xotLa3U1FQUp729/eeff9bW1n748KHwT7xy5Qpqmoiqra+vNzU1BQAMHz78yZMn3GqXLVumoaGRlpaGnwNyTwUAyMnJeXl5wY4rUSUYhvWavlNWVhYhE8iePXtgJitWrOD2hExJSSGTyX5+fvitPeTOnTu9Okrq6uq+vr4pKSkiSNq5cyfMJD8/X4TkMgqdTg8LC1u/fv2aNWuCgoJcXV15V4bs7e0DAgJWrly5bt26sLCwjIwMQbmJ4jXe1tZ28OBBOAPp6OgYHBwcEBBAJpMnTpyI2pnW1taIiAgFBQUSiTRlypQVK1bMmTNHX1/f1dX17du3hB7X0tICfQBWr14tgtqGhobly5erqqoqKCi4uLiEhob6+flpaWm5u7u/evWqz+QPHz6En6mDg8OsWbPgVhIdHZ1Vq1Z9+PCBkJL29vbVq1fr6OiYmppGR0cDABgMhgglgsTFxY0dOxYAYGJi4u/vHxoaOmHCBE1NzcOHDwt//P727dv5Duw3bNhAdAcWHFSPHTuWeFFkmLKyMmVlZR0dHTKZbGJiYmZmZmFhMXLkyFH/MXLkSHNz8xEjRhgaGurp6ampqeHskRD9/Y0dHR0ZGRmVlZWVlZUkEsnV1XXWrFm95gkZDEZ6enpBQUFra6uenp6bm5urqyvO9KYg4LviDA0Na2pqREgOAGhubk5KSqqqqmpsbDQyMpo+fTrOLiRufv31199//x0AcO3atQULFnR1dd24cSMsLKy5udnY2DgpKalX/1NImpqatLW1GQyGoG37QkKlUqlUal1dnZKSko2Njbe3N1GvtMLCwnPnzmVnZ9NoNO7TOg4ePIi2v/RJY2OjgYFBd3f34cOHw8PDCQkY4v+QYD0iOnDxAADQZ8ey30GDxoaGBnQRuf65ubmJlm1BQYG8vPyAeocMk8m8ffv2rFmzYNEcHR2FTxsbGwsAUFRUfP/+vfgUDnpkwxoxDLO1tQWidlZFBg0abWxsuK9zOBzYpmlqanJfX7hwITozEp/ExEQrK6v+1Co0LBZr9+7d/v7+fM90ZLPZsM9pbW0tfJ7w7Eb8oxWG6BOZscbTp08DADQ0NAhNGX8maNC4Zs0a7utsNhu6m3H/ZGk0mqqqaltbmzA5r127duXKlf0sVzj2798PC+Xu7s43AnwH4+LFi4XMsLi4GK5tUKnUflP5RSID7+GABAcHW1tbM5nMXidQiRXkENfLJYVOp8PDJsaPH48u/v333/7+/sJsX2Cz2f/+++93333Xn1qFBhVK0IgXHkUnvJMqPHzA19eX70GeQxBA2tUBAeD5hXp6ekK2P58PGjT26n9yOBzo5IDazObmZg0NDZzTori5cOGCubm5tAaNYWFhurq6UVFRfNdp4uPj5eTk8M9P4ebly5dycnLKysrCTFAPgY8sWSOGYXBz7Y8//iiBZ3V2dsJBo6WlJe/dDRs2gP9mcXp6eubNmyekDwqTyTQyMrp48WI/yxUa+PqAzZs395pxYTKZ0dHRioqKPj4+wrs3wA2We/bsEYPSLw4Zs0YGg2FsbKygoECj0cT9LCaTCU8rj46O5r3b1tYGDyJxdXWFBwsI2WIvWbIEHqPc33oJUFpaCvey2dvbz5s3z8fHZ9KkSSoqKk5OTvHx8cLnA88cmjJlimjuEEP0QvT1RmmRlZXl4eFhZ2eXlZUl2tFVwvPmzZvKysqZM2cKivD69euioiIjIyMhD7rfu3fv8ePHqVQq9BCSLo2NjW/evKmpqWGz2WQy2crKitCxBgwGY8yYMRwOh0ajDYTiDAakXR2IAnzx+JIlS6QthBgcDmf69OnFxcXSFtIPdHV1ubu7q6ioUCgUaWsZPMikNWIYFhUVBQDYuXOntIV8oSxfvlxRUTEhIUHaQgYVsmqNGIYdO3ZMXl7+7Nmz0hbyxbFjxw4NDY179+5JW8hgQ2bWG3kJCwtLTU198uSJtIV8WXR3dxcVFWVnZ0v+1UCDnv8BCfUsxeKSBpIAAAAASUVORK5CYII=;rotation=-32;" parent="1" vertex="1">
          <mxGeometry x="140" y="440" width="131.49" height="23" as="geometry" />
        </mxCell>
        <mxCell id="TYrLCPMJrX0rA2hv0LJ_-18" style="rounded=0;orthogonalLoop=1;jettySize=auto;html=1;exitX=1;exitY=0.5;exitDx=0;exitDy=0;entryX=0;entryY=0;entryDx=0;entryDy=0;" parent="1" source="TYrLCPMJrX0rA2hv0LJ_-19" target="TYrLCPMJrX0rA2hv0LJ_-22" edge="1">
          <mxGeometry relative="1" as="geometry" />
        </mxCell>
        <mxCell id="TYrLCPMJrX0rA2hv0LJ_-19" value="&lt;div&gt;v&lt;sub&gt;i&lt;br&gt;&lt;/sub&gt;&lt;/div&gt;&lt;sub&gt;value:0&lt;/sub&gt;" style="ellipse;whiteSpace=wrap;html=1;aspect=fixed;fontSize=20;" parent="1" vertex="1">
          <mxGeometry x="743" y="210" width="80" height="80" as="geometry" />
        </mxCell>
        <mxCell id="TYrLCPMJrX0rA2hv0LJ_-20" style="rounded=0;orthogonalLoop=1;jettySize=auto;html=1;exitX=1;exitY=0.5;exitDx=0;exitDy=0;entryX=0;entryY=1;entryDx=0;entryDy=0;" parent="1" source="TYrLCPMJrX0rA2hv0LJ_-21" target="TYrLCPMJrX0rA2hv0LJ_-22" edge="1">
          <mxGeometry relative="1" as="geometry" />
        </mxCell>
        <mxCell id="TYrLCPMJrX0rA2hv0LJ_-21" value="&lt;div&gt;v&lt;sub&gt;k&lt;br&gt;&lt;/sub&gt;&lt;/div&gt;&lt;sub&gt;value:0&lt;/sub&gt;" style="ellipse;whiteSpace=wrap;html=1;aspect=fixed;fontSize=20;" parent="1" vertex="1">
          <mxGeometry x="743" y="470" width="80" height="80" as="geometry" />
        </mxCell>
        <mxCell id="TYrLCPMJrX0rA2hv0LJ_-22" value="&lt;div&gt;v&lt;sub&gt;s&lt;br&gt;&lt;/sub&gt;&lt;/div&gt;&lt;sub&gt;value:0&lt;/sub&gt;" style="ellipse;whiteSpace=wrap;html=1;aspect=fixed;fontSize=20;" parent="1" vertex="1">
          <mxGeometry x="963" y="350" width="80" height="80" as="geometry" />
        </mxCell>
        <mxCell id="TYrLCPMJrX0rA2hv0LJ_-23" value="" style="shape=image;verticalLabelPosition=bottom;labelBackgroundColor=default;verticalAlign=top;aspect=fixed;imageAspect=0;image=data:image/png,iVBORw0KGgoAAAANSUhEUgAAAU4AAAA1CAIAAACho5WIAAAACXBIWXMAAA7EAAAOxAGVKw4bAAAY70lEQVR4nO2de1xTR/bAh0B4BgIIBgW2ILJoqSIgAkpF66NFlKdoAVetxtoKuNpWrbvuat0qywL2obQV0bXaRXxBF1TA9aNCFIk8BQEFREBAUCBAwjMh9/fHbOd3NyQ3NwlJAPn+Ndx7ZuYkZF5nzpnRwDAMTDLJJBMdiroVUJT79+8LBAJ1azExyc3NVbcKk4wa47ipDw0NMZnM0NDQ3t5edesyAeHz+du2bQsODp78eicGGuN0At/f3x8QEPDw4cO8vLzZs2erW52JSUtLi6en57Rp07Kzs+l0urrVmUQhxuWoLhAIgoKC7ty5c/Xq1cl2rjymT59+48aNJ0+e+Pj49Pf3q1udSRRiXDb1Tz/9NCsrKyEh4b333lO3LhMcR0fHixcv5ufnh4eHj9MJoFIZHBwcU1+LUCiU+A4bbyQlJQEAfHx81K3IG0RERAQAICYmRt2KjAm6uroSEhIWLVrEYDA0NDSoVKqtrW1ERMS9e/eEQuHo1tXb22tmZrZq1aqkpKRXr15JEmtrazt58qS7u/uWLVskyYyztXp1dfW8efOoVGpFRYWVlZW61XlT6O3tnTNnTmNjY35+/vz589WtjtoQCoUxMTFff/01n88PDQ1lMpl2dnYdHR05OTmxsbGNjY1eXl5JSUkODg6jVWNbW5uFhQVMUygUd3f3GTNmWFhYWFhYCIXCzs7OFy9eFBcXP336FMMwGo2Wn5/v6OgovqzR7YSUilAo9Pb2BgDEx8erW5c3juTkZADAnDlzhoaG1K2LehgaGgoODgYAWFpalpWVjXz7ySefAACMjY3v3r07WpW2traS7BTodDpxveOpqf/8888AAAaD0dfXp25d3jiGh4fnzJkDAIiLi1O3Luph27ZtAAAqlcpms8UKCIXC1atXw1ZXVVU1KpWSbOqurq5Sa5QygY+IiKisrCTZr4wKCQkJb7/99sjnfD7fwcHh+fPncXFxn3/+uSpVmgRy6dKl9evXm5qaPnv2zNjYWN3qqJT09HR/f38AwLZt2xITEyWJNTQ0zJw5UyAQuLq6Pnz4kEJR1OyNn8CLxc7O7osvvti2bZumpqaUsoh7Ag8PDwV1lZUHDx6I1eTkyZMAAH19/Z6eHvk6yEkUZHBw0NzcHABw6NAhdeuiUgQCAdrTHTl1FwFO8gEAZ86cUbxqOKozmczTp09/8sknfn5+Hh4eixcvDgkJOXToUF5e3vDwMMmipIzqxcXFPT09ym3c/4uLi4uRkdHI587OzqWlpeHh4b/88osq9ZkEz969e2NjY62trevr6xUfssYL165dW7NmDQDAwsLi5cuXxMKnT59mMpkAADc3t4cPHypYNRzVDx06dPDgQQWL0iJ+7eLiomAFo0JpaWlpaSkA4A9/+IO6dXmj2bBhQ2xs7IsXL27evPnBBx+oWx0Vcf78eZhYuHChVOEFCxbAREFBQWVlpdjVqFoYHx3zmTNnAAB0On358uXq1uWNZu7cuZaWlgAA6N3wJsDj8dLT02GazP6ura0tSsNtizHCOGjqQ0ND8CtbsmSJdNvDJEoGDubp6ent7e3q1kUVPHz4cGBgAKahqYIYGo2GbJb3799XomYyMg6aOpvN7ujoAAAsXbpU3bpMAuDEis/n5+TkqFsXVVBUVITSZmZmZLKYmJigvESeqqpFylp9JHV1dZmZmbW1tQ4ODqtXryYzpcEwTENDQ+zz8+fPl5eXM5lMAgcjFosFE15eXrJqy2az7969+/r1aycnp6CgIAMDA0mShYWFly5d8vDwCAoKkrUWJcHlclNTU8vLyxkMxtKlSwnc1AYHBxMTE1++fLlr166pU6cqVStXV1eYYLFYyNo8gYFGIgjJpo6iALlcbk1NzSg6zymETKb/6OhoQ0NDHx+f7du3GxkZGRkZXblyhUC+vr7e0dHR3Nw8Jydn5NtNmzZBHaZMmdLV1SWpkPfffx8AQKFQZPKcGRgYCAsLMzExCQ8P37BhAwDAzs5O0k7JzZs3tbT+2+sRfyKVkZ2dPW3aNHd398jISHt7ew0NjS+++EKs5PDwMJrvzJ07d9TdsEUQCoWGhoYAAGdnZ6VWNEZYsWIFaixZWVlksuC3qG/duqVI7XCzDb+7+fz58wsXLnz77bfHjx9PT09va2sjWZQMTf306dOWlpZo3/svf/kLAIBGozU0NEjKgr6myMhIkVfPnz/H9zhJSUliSxAIBPCHNXPmTPKqYhi2ZcuWd999t6mpCf65ePFiAICTkxOfzx8pvGzZMqTJ8uXLZapIGVRUVJiZmZ06dQr+efv2bajb5cuXRwqjWQ/k3r17ylYPTq8oFApBBz1hQBZ1AMB//vMfMlkWLVqEsvzyyy+K1I5v6qmpqfPmzdPQ0LC1tV21apWHh4eOjo6Wlpavr29paanUosiu1dlsdlRUVGpqKuqxoO2Bx+OlpKSIzdLT03Pnzh2Yhj6VeExMTPD757W1tWILaWho4HK5AIBZs2aRVBUAkJCQkJeXd+PGDWguBgDAuh49elRYWDhSHokRaKIyurq6/P39o6Oj4fYs+E15IMHuzWAw0JQEqER/aGQWCoVVVVXKrkvt4P1KSLoS4P8dbW1tiuvA5XLXrl3LZDLDwsJ6enrq6uquX7/+4MGDtra2kJCQ69evz58///Dhw1K0IlOTUCjcsGFDREQEvodDDrOSPGdzc3PRqW8wTAUPnU7PyMhYuXLl4OAgAGBoaEhsIWjwJ7lMAgA0Njbu3r07OzubRqOhh0+fPoWJJ0+ejHQB/O6771gsFqwL6qNG9u3bZ2lpido5+F/lR8rb29vHxcXt2rUL/qkC/ZGBpr6+XkF/SqFQGBUVVVlZqbwDAvX19QMCAj799FP5suObOskNILwYst4rwjfffOPm5lZdXT1lyhT8czqdnpycjGFYSkrKwYMHOzo6vvvuO4mlkJlFpKamGhgYcDgc/ENkbNi3b5/YXJ999hkUmDp1qqSSo6OjoUxsbKxYgVOnTkGBXbt2kVEV1uvl5YV/0tLSgvrj9PR0sbnu378P/0Pz588nWZEyePXqla6ursgCD4ZMAQBcXFwkZVy1ahWUuXbtmrKVTEhIgHUdPXpUwaI4HA5+DFQSnp6ecmuIHzBYLBaZLPjl/cGDB+WuGsMwuKM5b948LpcrSaarq8vU1BRWd/r0aUlipL7lb7/99sMPP8RHOBQWFqKhBi6DR3L37l2YWLJkiaSSIyMjjxw5wuPxJFkp6+vrYYLk2WZcLjcpKQn9FiGXLl2Cex7a2trvvvuu2IwLFy709/dPTU0ldm/Kzs4+c+aMn59feHg4GX1k5YcffrCyssLbDgQCwZUrV2CawIPo73//+40bNwAAKnDPQgEYIgYXOTA2Nn727FlNTY1SR/WR60eSYBjG4/HQn2I3kkaCF+Pz+fJVDTExMdmzZ09UVBS+xxGBTqcHBARAN7M//vGP77//Pn5B+v9I7Veam5sBANnZ2fiHUVFRMLuZmZlYQ1dXVxcaSH/44QeC8uHcvqWlRezbHTt2wEKOHTsmVVUMw5KTk3V0dLq7u/EPkXtvQEAAQd6jR48CyfMLDMMqKyvhEKSjo8Pj8cjoIyu///3v9+/fj3+CXLUAAATWF4FAoKenR6PRlG2BxzAsMzMT6rN27Vpl16V28I2F5KiOPwftyJEjytYQwzB8YMjnn38uVka6mWFgYCAwMBA/zvD5fGSKCw0NFTsBY7FYyHlg5EIdj7W1tbW19bRp08S+7evrgwmSUZO6urr79u3DG/zKy8uLi4thOiwsjCAvHA8J3P4bGxvh4GNlZaWvr09GH1lxdHTcsmUL/snZs2dhYvbs2U5OTpIyampqOjg4ODs7kxx5FEFPTw8m0H9nAkOlUlGapD/M8PAwSouN3Rp18N5liYmJYg0E0ifwM2bMSE1NxT+5efPm69evYXrz5s1ic6HZu7m5OfGUsrOz093dXdJb9GMiOYEPDAwMDAzEP0GxCoaGhvDkAAJNtLW1PT09JQksX778b3/7W2Nj4/79+5XUokS+6q6urmvXrsG01CVDZ2cn8QccLd6opq6jo4Mm4SRXGapv6tOnT9fR0YEWWS6Xm5eXN/KEVXkcY5ET/6xZsySNgWQW6pBHjx5JWu0D3Jerra0to5oAAIBh2IULF2A6ICAA/UbFUlRU5ObmRiCjqal54MCBxMREfEiDUrly5Qram/jwww8JJNvb2xsbG4knUKMF6uYUXIiOC/BbP5L2iUTA9wgqOz8f7wkq9loemZv60NAQGmck/fi6u7tLSkpgmvjHV11d3dzc7OPjI0kAzZPlC5tns9lNTU0wTTx7BwCwWKyxFjmHDHLu7u52dnYEkiwWS09Pj0yUpeJ0d3fDhJJWMWMK/NKS5EYmvgdUzagO/repQ/uaCDI39du3b6NWt3btWrEy+IU68ah++/ZtOzu7mTNnShJQsKmnpaXBhLm5OXEzbmhoKCsrW7dunRy1KInu7m7kJye1n8rIyFi9erVq2h5q6gQxBRMGfFMn+SN89eoVSqPQF1nBMOzLL7+0traeP3/+9evXpcrjZ6NofY1H5qaekZEBEzNmzJB0DC1ykjMzMyNeqKenpxMM6QD3Y0I/L5lA5utVq1YR79/Cbbaxc5AAACArKwuND35+fgSSAoEgPT1dZf3UGzWq402hZH6EGIYhDzktLS2ZvDzxJCYmxsTENDU1FRUVrV27VuxAjUeqgUBm7wXkcU0wSLLZbJjw9vYmMF9xOJxbt27t37+foDpra2uYkKOpt7e3I/cyqSaDs2fPrl+/Xuyrvr6+rKys1tZWJycnvHuzsrl37x5MvPXWWzY2NgSS6enpg4ODyIuGgObm5ry8vNbWVm1tbRsbm6VLl8phBOnq6oIJxY/iHx4eDgsLq6qqUt6yX19fPyQk5Msvv5QvO94dkEyIfkdHB1rSOzo66urqylcvPrRhYGCgsLBQ/G75b+D3/8XuZ8nW1Pv6+ioqKmBaUkwlhmGPHj2CaeKl49WrV62srIhDU5EBTI4JPN7dncDyBwBgsVjV1dXbt28f+aqoqMjPz2/mzJkGBgYRERGBgYGXL19WzQkZBQUFMEGsPAAgISGByWQSj7GVlZW7du3Kzc1duHChra0th8Opqqp6/fp1fHw8CjEkCep2FTdP9vb2ZmRkKPtCOENDQ7mb+oIFCzQ0/nsEI3LoIgB/nDPBbo5U8P72FAqFeL6JYVhnZyf609nZeaSMbE29tbUVLcIlzd57enpQB0NsSfrxxx83btxIvGuFRjM5zjxBJ/5pamoSj4rx8fFbtmxhMBgizxsaGvz9/ePi4kJDQzEMo9PpaWlpp06dQp6qSgXpT2DLAACUlJTcu3cPHpIvCTabvWLFCgcHh8ePH+NLY7FYfn5+NjY2Mpnu0aiueFM3MjJqbm5GDgvKQE9Pb8aMGXJnNzY2XrFixc2bNwEAdXV1UuWRGRhI2zQhBn23xsbGR44csbe3JxCura1F0yIqlSp+USyTUw5yhgUASDpiHr+oyM/Pl1QUi8WiUqn19fXENfb09MC+QI7o6J9++gmqYWlpSSCWm5urpaVVV1c38pWHh8eBAwdgms/n6+joAADgRYXEtLa2XrhwIScnR6wrIUmQ/ymKZhXLe++9t3XrVgIBPp/v6OhIp9NHXvq1detWCoUiyb9KEmj3vra2VqaM45Rff/0Vfl4ajSb1chsUYWZtbU3gudjR0ZGSkpKZmSkQCMQKwOUbtHBL1RB/iN26devEysjW1PGz6EePHomVQUZjQBg77e3tvWPHDjKVQgdmfX19WV0+//3vf0M1pk2bJkmGz+e7urru2bNn5Kvs7GxjY2N0HgY6J2zv3r3E9RYVFSG76wcffDAwMCCT2gg0DTt58qQkmbS0NBMTkxcvXhCUc+7cOSDOifXBgwewfFnPdYcDDoPBkCnX+EUgECCb0Z07d4iF0YI0OjpakkxFRQU6LMjLywte5yrC8PCwvb09nE5KBQ3jVCq1urparIzMFzm5ubnBQv/5z3+KFcCvz3/++WexMsnJyXQ6vbm5mUyNyA1e7MBLQEtLC1xUa2hoSDrBZufOnc7OzmK/6zVr1uzcuRP9CW8jBSQcoUVc1o4fPy6T2ggUdykpdvDZs2cmJiZiz6vAAzWfPXu2yMfs7OxcsWKFr69vR0cHea16e3vhPOtNcIBHIPfk4OBgArHHjx+jIb2/v1+SmIhDp6RwtPPnz2tqakoNVSwuLkYL+8OHD0sSk7mpZ2VlwXJXrlw58m1cXJyhoeE333wDKxYrU1BQYGhoKCmYdCTI3U2OAz3QQXFiB8aEhAR9fX1JK5Hdu3ejDrKvrw864dvZ2UmtVMQoQhB5SkxJSQn8qn/3u9+NnDe2trbOmTPno48+klrORx99BDWZN2/eiRMniouLFVlWoNMjv//+e7kLGY/AWx80NDQknSGFTv7S0tLKzc0lKErEx5Qg0DU4OFhPT49gdtze3o4sYuvWrSOY+cpzPSOMAAMAfPXVV2ilIRQKv//+eyqVevHiRQzDNm7cCGViYmLw1Z87d87c3Fymm7rR4v/jjz+WVdWXL1/CqdfUqVPv37+PnnO53I0bN9JoNKnzMaQ21OHrr7+WKixi7NXR0ZFVbcSRI0dgIVu3bsUvBLKzsxkMRlBQkNj5iAhoIYMwMDAICAgQiVYkyaFDh2AhklZwExUejwcdy6dMmVJQUCDydmBgAN7fqKWlJXVMOnDgAPpfaGho5OXlSZLs6elZsmSJjo7O/v37R4asl5SUoHa+Y8cO4h5czptYL168CJfQb731VlhY2KZNmxwcHBgMBppsCIXCU6dOwUMzZs2aFR4evm7dOjs7O2tr69u3b8taHQwyd3BwkEPV1tbWTZs26enpaWlpLVq0iMlkBgUFGRkZeXt7w1upyQC3uygUSmNjo1Thvr6+7du3m5qaWltbx8fHAwDa29vl0BySnJz8zjvvAACsrKyCg4OZTKaLi4uhoeGxY8fI39f1pz/9SexhSTt37pTVAgJt9e+8847sH2XcMzw8HB0dTaVSNTU1P/7444KCAi6XW1dX969//Qs2ORsbGzKDx8DAQGRkpKmpqa2t7dmzZ4mF+/v7IyMjNTU1GQxGeHh4TEzMpUuXjh075uvrC1dStra2cHwlRsqdbQRgGJaXl1dTU/P8+XMejzd37lx/f3+RUNP+/v68vLz8/PyOjg5DQ0MnJycfHx/imBOxnDt3Du79VlZWoovyZKK7uzsjI6OhoYHD4UyfPn3ZsmUEAaEiVFdXw5MzVq5cmZ2dLVO9XV1dJiYm7e3tIkcFyQqbzWaz2S0tLdra2rNnz/bz85PVKbW8vPzMmTP5+fklJSV4X+5//OMfe/bsIVkIh8OxsLAYGho6duzY7t27ZVJgwlBbW3v+/PmLFy/W1NTAvWcajbZkyZLNmzevWbNGvrgsqZSVlSUlJaWlpaHNPGNj46VLlwYGBq5fv55UpaR6M3XT19cHI4QUPL5HPvbu3Qu/KzJ9pwhlZWWamprkh18VwOPx0tLS4JHbAABXV1fyeeH+JZVKJX8m8QSGz+c3NTWJnIOibAYGBhobG+U4GWV8NHXsNzu8fHN4RRgaGoKuNaampmi1XFhYuH37djLZ09PTVa8zRCAQHD58ODg4WKxRZ3h4GE7FZ82aRb5MuJNEfJjPJGOTcXCREyQqKkpTU/Pp06e3bt1SZb1ZWVkweiE8PBy60AAAjh8/TvIk0MzMTKlurUoiLi7ur3/969WrV//85z+PfEuhUGBcgFgnSrFUVlZC5wLisIVJxijq7mtkAFo4ly1bpspK0aHLxcXF8AmHwzEwMCgsLJSaVyAQTJ069caNG0rWUTzoUmRJh+1CezLJG0swDAsNDQWTQ/q4ZTw19ZaWFhidx2azVVYp/H3TaDT0hMlk+vr6ksl79uxZGxsbdS3UIyMjp0yZEhsbK9aXMyUlhUKhhISEkCztyZMnFApFR0eH/LbFJGOK8dTUMQxLTEwEAHh4eKis/cCD6M3NzeGmVExMjL29/evXr6Vm5PF406dPl+QvqALgbVCfffaZiAmNx+PFx8dTqVR/f38Cjy4RYMC8as4/nUQZjLOmjv02Lz1x4oRqqhMKhfAI1wULFsDTOGpqashk3LBhw+LFi9Vre6+qqgoJCdHX13dyclqzZo2/v7+bm5uurq67u3tKSgr5cqDDoqenp9Rgj0nGLPLvq6uLjo4OFxcXDodTVlZGHJo6ilRXV5eXl1tYWHh4eJAJVj969OiJEyfYbDYKk1AjHA6npqamqalpeHiYwWBAZyfy2dvb299++22hUFhSUjIWPs4kcqLuvkYeSktLjYyMHB0dx+ZNoEKhcNmyZRUVFepWZBQYHBz09vbW1dUledvBJGOW8TeqQ3Jycnx9fT09PTMzM1Vw6dcby+bNm5OTky9fvuzv769uXSZRiHGzry6Ct7d3VlZWcXEx/sbSSUYXuC3/66+/TrbzCcB4beoAAC8vr8LCQh6Phz9Va5LRYmho6PHjx/n5+WROp5xk7PN/IF/6AL/4OJsAAAAASUVORK5CYII=;rotation=36;" parent="1" vertex="1">
          <mxGeometry x="843" y="280" width="132.47" height="21.02" as="geometry" />
        </mxCell>
        <mxCell id="TYrLCPMJrX0rA2hv0LJ_-24" value="" style="shape=image;verticalLabelPosition=bottom;labelBackgroundColor=default;verticalAlign=top;aspect=fixed;imageAspect=0;image=data:image/png,iVBORw0KGgoAAAANSUhEUgAAAS8AAAA1CAIAAACfhvrGAAAACXBIWXMAAA7EAAAOxAGVKw4bAAAU4UlEQVR4nO2dd1hTV9zHT9i7sgxTQIuAKIiooIBA1UfqAAriAEdB3FRFsVhbW7V1IrYOLO5RRRxVBEXheZQRRSJCZDsAAVmaKCvsJPf947w9b16SXHIjSQjy+YPncO85535Pkt+Zv3MuCcMwMMQQQwwA5KQt4LNgsVhZWVnSVvHFkZmZKW0JgxMZtsb6+noXF5cDBw5IW8iXRU9Pz8qVK/39/dva2qStZbBBktGeakVFxTfffKOrq5uZmamuri5tOV8WdXV1U6ZMMTQ0TElJ+eqrr6QtZ/Agk9YIfw0YhlGpVENDQ2nL+RIpLi52cXEZM2bMw4cPVVVVpS1nkCB7PdW2trbZs2d/+PDh7t27Q6YoLWxtba9du5adnR0UFCSLFboE4HA4PT09hJLInjWuXbs2Pz9/9+7ddnZ20tbyRTNr1qx169bdvn07KipK2loGHC0tLV5eXnp6ehwOh0AyTKa4dOkSAGDSpEksFkvaWobAmEymhYWFvLx8Tk6OtLUMFDgczp07d8zNzaF9dXZ2Cp9WlsaNdDrdxsbm48ePz58/d3R0lLacIQAA4OrVq4GBgePGjcvNzVVUVJS2HKnR0dFRWlp669aty5cvV1VVoeudnZ3KyspCZtKHNWZmZhJraj8bDw8PQbdCQkLOnz8/b968xMRECSoaAg8OhzN+/PjCwsJDhw5t2bJF2nIkzT///BMVFdXY2FhbW4thGIlEcnNzq6ysrK6uhhH60xrV1NQ6Ojo+VzIR2tvb+c7RvXr1ytbWls1m5+TkTJw4UZKShsDn+vXrCxcu1NHRKS8vHzZsmLTlSJQrV67ExMTo6OiYmZk5Ojp6enpaWFh4enqmp6fDCISsUQH/tpubW3d39+fIJYqg6fJdu3ax2Ww3N7chUxxo+Pr66uvr0+n0I0eO/Pbbb9KWI1GCgoKCgoL6LTvxDGX7GTqdDsckp0+flraWIfiwdetWAICpqSmbzZa2FunDPdoiNIsjGyscly9f7unpUVFRCQgIkLaWIfiwZMkSAMC7d+9SU1OlrUWGkQ1rPHfuHABgxowZQ35YAxM7OztjY2MAwJkzZ6StRYaRAWvMzc0tLCwEAEyfPl3aWoYQiJeXFwAgMTGRwWBIW4usIgPWmJycDAOenp7SVTIEDjNmzAAA9PT0ZGRkSFuLrNLHnCov2dnZGRkZDAbD3t7ez89PTU0NPz6GYSQSie+t1tbW2NhYJpO5ZcsWLS0tQTlQKBQAgJaWlgiucFQqNT09nU6nQ7U4uz2eP39+/fp1Z2dnPz8/ok+RMK2trbdu3SosLCSTyZ6enjiTzF1dXadOnaqvr9+0adPw4cPFqgr5Y1AoFH9/f7E+a9Ai/IRPR0fHwoULdXV1Fy1aFBgYCACwtLQsKirCSXL37l0ymWxtbf3p06det5hM5pgxY6CGGTNmCMqhp6dHQ0MDAAA3bQhPZ2dnYGCgtrZ2UFAQnGMYNWpUQUEB38ipqakKCv9bMd28eZPQgyRMSkqKoaGhk5NTWFiYpaUliUSKiIjgG5PNZqPehJ2dHYfDEaswDoejqakJAHBwcBDrgwY+Is+pErDGpUuXuri41NXVwX/d3NzgRy/IZZTJZKK1YN6f+Pnz57krhbKyMr6ZPHv2DEYIDQ0VXiqGYSEhIW5ubjU1NfDfadOmAQDs7e17enp4I3OPSHGqBqlTXFysp6eHlnkePXoENd+4cYM3MuxTIB4/fixuea6urgAAOTm5pqYmcT9rICP2FY6//vorLS0tOTkZbWKClkaj0XJzc/kmycjIaGpqguFx48b1umtmZtbLGvlmAudvAADW1tZCSgUAxMTEZGVlJScnw4k+AADsCefn5z9//pw3PoqGo0TqNDU1+fj47Nu3LzQ0FF5B3Xu+M5lkMhk1+EAi5bKwsAAAcDic0tJScT9rUCLUuLGiomLr1q137tzhHt2VlJSgwOTJk3lToZrbwMBg9OjRve56enru379/27Zt8F9BHj9v376FAT09PWGkAgCqq6vDw8NTUlJgFxfy6tUrGHj58qWzs3OvJEeOHKFQKPBZXV1dQj5IwkRGRhobGyNTBP+/ULzxLS0tDx06tGnTJvivBMplYmICA5WVlbwfMiE4HM4PP/xQUlLCYrH6Qxof1NTUfH19165dK6b8RUAoazxy5IiTk9Ps2bPRlbq6OmQnBgYGfFOlpaXBAOwl8hIZGZmWlpaSkgIAELRvGD1FeAdIqJZ7Ara+vr68vByGdXV1eZMMGzbs8uXL06ZNY7PZ3O0kpKura8+ePdXV1Z8+fWIwGO/fv582bVqvnra4odPply5dunv3LvdF1BflWygAwMaNG1NTU+GkNG+5+h1kjehbE5mWlpZTp06JzxQhra2tMmaNLS0t58+fP3HiBPfFuLg4uLdDSUmJby3Y3Nz84sULGMbZlrFt27aUlBQSiWRpack3QmVlJQwIue7f2tp65syZmJgY7ovXr19HauFwl5epU6f6+PjcunULzS0hWlpa8vPzm5qa8vLymEwmAIC7YpIMJ06cMDEx4R7fslismzdvwjBcXeDL/v37oTXylqvfQfXy51vjsGHDysvL37x5I9a2kXcAJWX6HFnGxcUpKys3NzdzX0TF8PHx4ZsqKSkJPaKkpERQ5j09PQoKCqNHjxYUAf2G8vLy+pQqSO2ECRNgJr6+vjhp9+7dCwCIiooSFGHz5s0wH8nPu44ePfqnn37ivsK9rezFixeCErJYLFVVVQ0NDXHPqWIYdv/+fahn/vz54n7WQEbkWZy+20YVFZXIyEjuEWN+fj6aXFm2bBnfVGhHib6+vo2NjaDMFRQUDAwMnJycBEVob2+HASF7qrxqCwsL8/LyYBguzAgCWj4yXV5ycnJgQFDfW3zY2tqGhIRwX7lw4QIM2NjY2NvbC0ooLy9vZWWlqakpaNW3H0H7b9C3NgQxRDD9iIgImFZXV7erq4tvHLQWHBAQgJMVh8NRV1c/fvy4oAhozfrjx48iSMX+214AANDU1Gxvb8eJee7cOSUlJUFx2tvblZSUAAC2traiKelHGhsboRgAwB9//IEfecSIEb/88osEVFGpVCjJw8NDAo8bsEhuDweGYfHx8cjS0G+Cm+bmZhqNhr4YnNzKysra2tpwmho0bOD7IGHUXr16FYZ9fX3xzxrMzc2dNGmSoDhPnz6FE7/u7u4iKOlfbt68iWahFy1ahBOTwWBUV1dLRjNqfomelTYEhLA1Pnv2rKamBoYF/Q4oFAo6vwP/d5CWlmZsbIwzmEaedy0tLUSlAgCoVCpSi99NBQBQKBSc6RDU98avXyQDmr9xcnIaNWoUTkwKhaKqqjp16lQJqGpuboaBPv0lh+ALYWu8ffs2DAwfPlzQ/CT64erp6eFP5T169Ojbb7/FifCZ1ojU6uvr41gaAKCqqqqgoGDBggWCIqBCSX7Q2Ivm5ma0lttnFZOUlDR37lzJmAeyxqHT30WDsDWiydK5c+fKyfFPjlYaPTw8cCYPuru7U1JS4E4cQaDvFX3ThEATj7Nnz+Z2TOEFrm0Iqjs6OjrgoMjGxoZMJougpB958OAB6gp6e3vjxGSxWImJiThVTP8y1DZ+JsT2cHz8+BG54Ahqajo7OwsKCmAYv5uamprKYrHw20ZTU1M4BBXBGhkMBnJS6bN7eeHChYULFwq6iz9ohO6B6urqXl5e2traRHUS5fHjxzBgZmaGzu3kS2JiYldXlzCro7W1tVlZWQ0NDUpKSubm5p6eniIM1JEjJHIDEBk2mx0YGFhaWiq+IaiamlpAQADyBhsIELNGbidPQRt5ioqK0NQL/nAlPj4+ICAAvx6Fro9ApJ4qt1r87iWFQnn9+vXq1asFRRA0aMzNzQ0PD6+pqXF2dqbT6REREc+ePRO314vwCy0xMTGhoaH4n3BJScmmTZsyMzOnTp1qYWHR2NhYWlpKp9Ojo6OXL19OSBiqMdG3JjJtbW1JSUniPq9QU1NThq2xtrYWBpSVlb/++mv8OAAAnAkGOp1+8+bNBw8e4D8R1f0i7Civr6+HAXl5efw2JDo6OiQkBKcLynfQePr06d9+++3AgQNBQUFlZWUbN26sr68/fvz4vn37iEolBCqXoK8AQqPRHj9+fPHiRZw4VCp15syZVlZWRUVF3LlRKBRvb29zc3NCk7Gobfx8a9TS0qqtra2urhafL46qqurIkSPFlLloELNG9NEMGzZM0IAQvdZPRUUFx53t5MmTFhYWfX7Z6Cfy+vVrQlIBlye6gYGBoCEuAIBCody7dw8nfzRotLKyQv60u3btSkhIePr0KdyMEhwcDN/rit+Gv3//Pi0tzcjIaOrUqfjjWBxQuYyMjHCiRURELF26FKfTyGKxVqxYIScnl5ycrK+vz33r4sWLLS0tSUlJhKyxoqICBvCrCSHR1taWQLd/QEHsB4G+fpxDVtHGAg6Hw+Fw+JrBx48f//zzz9jY2D4dRJydnUkkEoZhfLcp4IMsB+e4dBaLFR4eHh4ejlOd9xo0Yhi2efPmnJyc9PR0VN3Iy8vDv4sXLxaUT15e3owZMxobGwEAXl5eCQkJwp9726tcDQ0N+OVKSEig0Wj4DePVq1eLi4vnz5/fyxSzs7PPnj0LAIC7h4WnuLgYAEAmk/EXXQY9mMhv0yDkZNDY2IjetVBRUcEbgcFgcHulVVVV8c1n1apVkydPFtJzEs5zjhgxgpBUDMPq6uqgkZBIJEEeNhs2bHBwcBDkUQTZsWMHLE5cXFxnZ+eyZcvc3d2ZTCZ3nHfv3h09ejQ3Nxcnn7lz53J/8seOHSNaIgjadhAZGck3Qnl5uba2Nt8tyNysX78eAGBjY9Or+J8+fZo5c+acOXMI+T+1tbXBuvULd1LFMIx7SoX31AscCHvGbd++HT5m7969vW5xOBxvb29HR8d169YJioNhWGxsrK6ubmVlpZBPRJMr7969I6oWHXJz8uRJ3rsxMTFqamqlpaX4maBl1fv370+cOHHVqlUdHR1ElWAY5uDgwG2NEyZMECETDMNoNBrscYwYMaK7u7vX3YaGhnHjxgUHB/eZT3BwMFQyfvz448eP5+Xl8T0YQUjQ4VRHjx4VOZNBQGFhIbc716lTp4RPS9ga2Ww2XJNQU1NLSkpC11tbW7///nsdHZ2XL182NTVB9xotLa3U1FQUp729/eeff9bW1n748KHwT7xy5Qpqmoiqra+vNzU1BQAMHz78yZMn3GqXLVumoaGRlpaGnwNyTwUAyMnJeXl5wY4rUSUYhvWavlNWVhYhE8iePXtgJitWrOD2hExJSSGTyX5+fvitPeTOnTu9Okrq6uq+vr4pKSkiSNq5cyfMJD8/X4TkMgqdTg8LC1u/fv2aNWuCgoJcXV15V4bs7e0DAgJWrly5bt26sLCwjIwMQbmJ4jXe1tZ28OBBOAPp6OgYHBwcEBBAJpMnTpyI2pnW1taIiAgFBQUSiTRlypQVK1bMmTNHX1/f1dX17du3hB7X0tICfQBWr14tgtqGhobly5erqqoqKCi4uLiEhob6+flpaWm5u7u/evWqz+QPHz6En6mDg8OsWbPgVhIdHZ1Vq1Z9+PCBkJL29vbVq1fr6OiYmppGR0cDABgMhgglgsTFxY0dOxYAYGJi4u/vHxoaOmHCBE1NzcOHDwt//P727dv5Duw3bNhAdAcWHFSPHTuWeFFkmLKyMmVlZR0dHTKZbGJiYmZmZmFhMXLkyFH/MXLkSHNz8xEjRhgaGurp6ampqeHskRD9/Y0dHR0ZGRmVlZWVlZUkEsnV1XXWrFm95gkZDEZ6enpBQUFra6uenp6bm5urqyvO9KYg4LviDA0Na2pqREgOAGhubk5KSqqqqmpsbDQyMpo+fTrOLiRufv31199//x0AcO3atQULFnR1dd24cSMsLKy5udnY2DgpKalX/1NImpqatLW1GQyGoG37QkKlUqlUal1dnZKSko2Njbe3N1GvtMLCwnPnzmVnZ9NoNO7TOg4ePIi2v/RJY2OjgYFBd3f34cOHw8PDCQkY4v+QYD0iOnDxAADQZ8ey30GDxoaGBnQRuf65ubmJlm1BQYG8vPyAeocMk8m8ffv2rFmzYNEcHR2FTxsbGwsAUFRUfP/+vfgUDnpkwxoxDLO1tQWidlZFBg0abWxsuK9zOBzYpmlqanJfX7hwITozEp/ExEQrK6v+1Co0LBZr9+7d/v7+fM90ZLPZsM9pbW0tfJ7w7Eb8oxWG6BOZscbTp08DADQ0NAhNGX8maNC4Zs0a7utsNhu6m3H/ZGk0mqqqaltbmzA5r127duXKlf0sVzj2798PC+Xu7s43AnwH4+LFi4XMsLi4GK5tUKnUflP5RSID7+GABAcHW1tbM5nMXidQiRXkENfLJYVOp8PDJsaPH48u/v333/7+/sJsX2Cz2f/+++93333Xn1qFBhVK0IgXHkUnvJMqPHzA19eX70GeQxBA2tUBAeD5hXp6ekK2P58PGjT26n9yOBzo5IDazObmZg0NDZzTori5cOGCubm5tAaNYWFhurq6UVFRfNdp4uPj5eTk8M9P4ebly5dycnLKysrCTFAPgY8sWSOGYXBz7Y8//iiBZ3V2dsJBo6WlJe/dDRs2gP9mcXp6eubNmyekDwqTyTQyMrp48WI/yxUa+PqAzZs395pxYTKZ0dHRioqKPj4+wrs3wA2We/bsEYPSLw4Zs0YGg2FsbKygoECj0cT9LCaTCU8rj46O5r3b1tYGDyJxdXWFBwsI2WIvWbIEHqPc33oJUFpaCvey2dvbz5s3z8fHZ9KkSSoqKk5OTvHx8cLnA88cmjJlimjuEEP0QvT1RmmRlZXl4eFhZ2eXlZUl2tFVwvPmzZvKysqZM2cKivD69euioiIjIyMhD7rfu3fv8ePHqVQq9BCSLo2NjW/evKmpqWGz2WQy2crKitCxBgwGY8yYMRwOh0ajDYTiDAakXR2IAnzx+JIlS6QthBgcDmf69OnFxcXSFtIPdHV1ubu7q6ioUCgUaWsZPMikNWIYFhUVBQDYuXOntIV8oSxfvlxRUTEhIUHaQgYVsmqNGIYdO3ZMXl7+7Nmz0hbyxbFjxw4NDY179+5JW8hgQ2bWG3kJCwtLTU198uSJtIV8WXR3dxcVFWVnZ0v+1UCDnv8BCfUsxeKSBpIAAAAASUVORK5CYII=;rotation=-32;" parent="1" vertex="1">
          <mxGeometry x="823" y="440" width="131.49" height="23" as="geometry" />
        </mxCell>
        <mxCell id="TYrLCPMJrX0rA2hv0LJ_-25" value="&lt;div&gt;v&lt;sub&gt;a&lt;/sub&gt;&lt;/div&gt;&lt;sub&gt;value:1&lt;/sub&gt;" style="ellipse;whiteSpace=wrap;html=1;aspect=fixed;fontSize=20;" parent="1" vertex="1">
          <mxGeometry x="280" y="110" width="80" height="80" as="geometry" />
        </mxCell>
        <mxCell id="TYrLCPMJrX0rA2hv0LJ_-27" style="rounded=0;orthogonalLoop=1;jettySize=auto;html=1;entryX=0;entryY=0.5;entryDx=0;entryDy=0;" parent="1" source="TYrLCPMJrX0rA2hv0LJ_-19" target="TYrLCPMJrX0rA2hv0LJ_-28" edge="1">
          <mxGeometry relative="1" as="geometry">
            <mxPoint x="811" y="222" as="sourcePoint" />
          </mxGeometry>
        </mxCell>
        <mxCell id="TYrLCPMJrX0rA2hv0LJ_-28" value="&lt;div&gt;v&lt;sub&gt;a&lt;/sub&gt;&lt;/div&gt;&lt;font style=&quot;font-size: 17px;&quot;&gt;value:1&lt;/font&gt;" style="ellipse;whiteSpace=wrap;html=1;aspect=fixed;fontSize=20;" parent="1" vertex="1">
          <mxGeometry x="963" y="110" width="80" height="80" as="geometry" />
        </mxCell>
        <mxCell id="TYrLCPMJrX0rA2hv0LJ_-29" value="" style="shape=image;verticalLabelPosition=bottom;labelBackgroundColor=default;verticalAlign=top;aspect=fixed;imageAspect=0;image=data:image/png,iVBORw0KGgoAAAANSUhEUgAAAU4AAAA1CAIAAACho5WIAAAACXBIWXMAAA7EAAAOxAGVKw4bAAAZlUlEQVR4nO2de1hTR/r4JwEJBAyKiFzkrqKIihZQ0AUVENGKSFEepNDgI4gtuLsulVVpi9au26XeutsVr2hhy7bWVgW8oCAVoVyrZRVESMByM4pAuIaE5Pz+mH6n5xdyTk4CSSjm89fknPfMvEnOnJl533feQ8MwDGjRomWiQ9e0Alq0aFEHv6eu/urVq0ePHmlaiwlOeXn54OCgprXQMvb8brp6cXHx/Pnzb9++rWlFJjhpaWlubm4cDkfTimgZY34fXf369eu+vr7BwcF//vOfNa3LBOfUqVO2traenp7V1dWa1kXLWEIb/2a5goKCwMDAVatW5eTk6OrqalqdiU9fX5+3t3dzc3NJScns2bM1rY6WsWG8d/WamhovLy8LC4vy8vLJkydrWp3Xhba2tkWLFhkbG5eXl5uYmGhanXHH0NAQg8HQtBa/IpFI6HT50/NxPYHv7+9/6623ent7z58/r+3n6sTS0vLkyZMcDicyMnKcDwZqo6ysbNu2bXPnzmUymfr6+tOmTVu5cmVaWlpHR8eYt3Xo0CEHB4fExMTi4mKJRCJTRiKR3L9/Pz4+3sTE5NmzZ/IrxcYx27ZtAwDs3r1b04q8poSFhQEAjh07pmlFNExNTc3SpUsBAHPmzElLS3vy5Elzc/OdO3fCwsLodLqhoWFqaqpEIhnDFuPi4lAPNTc3DwoK2rFjR0pKyrFjx1JSUuLj41evXm1sbAwFoqOjqdQ5frt6fn4+AGDGjBn9/f2a1uU1pbGxUU9Pj8lkNjQ0aFoXjVFYWGhkZAQA+NOf/iQWi6XOVlRUzJgxAwCwefNmoVA4Vo3iuzo5oaGhFNsdp11dJBLNmTMHAHDkyBFN6/Ja89577wEA3nzzTU0rohnq6upgP9+4cSORTElJCbQWx8bGjlW7VLq6np7eoUOHqM8mfjPLtbS0REZGUnyWjAlWVlaZmZkyT509ezYmJsbMzKyxsZHJZKpTKy14Wltb7ezshoeHCwsLfXx8NK2OWsEwzN3dvaqqSkdHh8vl2tjYEEnGxMScPXsWAHD16tWgoKDRN71z5860tDSis7q6umFhYcnJyXPnzlWgUtTpnz59OnoVFWL27NkyHz8ikcja2hoA8MEHH4z6+ahltGzcuBEAsHLlSk0rom7+85//wBs1JCSEXPJ///sflHR0dBSJRKNvGo7qeXl5KSkp4eHhq1ev9vDwWLduXUxMTEZGBo/HU6LO39zUM2fOvHv3rjq7uoGBgczjubm5zc3NAAA1zzK0yCQ2Nvbq1auFhYX19fWvlZv96NGjsLBmzRpySRcXF2tr6+bmZg6Hk5eXt27dujFRwN/f39/ff0yqAmBcWuDhMLJs2TJNK6IFwzBMLBZPmzYNAJCUlKRpXdRHTU0N6iPV1dVy5UNCQqDwli1bRt86HNVHXw+ecedXf/HiRW5uLgAgNDRU07poAQAAOp0eEBAAALhw4cLw8LCm1VETaPYOAJg5c6ZceXt7e1i4du1aX1+fqtQaBeOuq2dkZMD7ydfXV9O6aPmVwMBAAACPx7t+/bqmdVET9+7dgwUdHZ0pU6bIlYfWJQCAQCCoqqpSoWbKMu66OryZTExMFi5cqGldtPyKn58fLLwmOwslEsmDBw9g2dTUlEajyb1k6tSpqFxRUaEqzUYB2e4RiUSSnZ1dUVGho6OzdOlSKsYGDMOIfpeGhob09HQbG5vY2FgiGZFIVFpaCgDw8vKiEtYrpW1OTk5FRQWdTofmSpJ/6LvvvispKdm6deuSJUsUakV1NDU15ebmNjQ0zJkzZ/369SSunfb29lOnThkbGyckJKhn/4+5ubmlpWVbW1tRUZEamtM4HA4HTcJNTU2pXIJi1wAA43NUJ1z6NzQ0LFmyxNHRMSYmZsWKFQCAgICA3t5eknX/gQMHjIyMNm/ePPJUdXU1DEUAABw6dIiohh9//BHK7N27VxGLA8blct3c3BwcHHbs2AHdv35+fnw+X6bwhx9+CFsxMDBobm5WqCEVkZqaamho+Oabb+7cudPY2Hjy5Mlff/21TMm2tjYYngUAiI+PV5uG69evBwDQ6fTOzk61NaopiouLUQehaB6+efMmumTFihWjVEDKLCcQCPLz88+cOZOampqRkVFaWqpEHK7srt7T0+Ps7BwXFzc0NIRh2ODg4KRJkwAACQkJRBXdv38ffdWOjg6ps++88w46O3PmTKJK/vGPf0CZzMxM6t+hr69v4cKF77777uDgIIZhAoEAavvee++NFBYKhfr6+kgZkueO2vjyyy+tra2Li4vhR/gkMjQ0bGpqGin88ccfI+UZDMbw8LB6lExOToaNZmdnq6dFDYI3SSxfvpzKJfilzaxZs0apAOrq7e3t8fHxhoaGkydP9vDwCAoKgjZCGxubw4cPKxSKK2OSjGFYVFSUo6PjyZMn9fT0AAD6+vrQB37+/HmifTZXr16FBQsLC+ibwWNnZ4fKra2tRCmNUCiCQmFA0dHRCxYs+OKLL2AfZjAYsJCenj5S20mTJqFREQDQ0NBAvSFVUFlZuWvXruvXr3t5ecEjLBYLANDf35+VlTVS3srKCpWHhoZaWlrUoyeyML8OOb96enpQmeJCEr+S4vF4Y6LGzZs3582b9/Tp08LCwp6enrKysqtXrzY3N+fk5AwODu7du3fx4sX19fUUa5Ox0svIyLh79y7er9jS0gK/fH9//y+//ILvt4iCggJYkBk+mZycXFVVlZOTAwDAMIzIZ9PY2AgLFBdIAICsrKz8/Hx8qF9bW1tvby8AYGBgQKa2ly5dWr58uUgkAgAMDQ1RbEgVYBgWGRm5a9cuFxcXdLCurg4Wnjx5MvISNpudnZ39/fffw49q0x85nJqamkZfW0FBwfHjx7u6ukZflUxoNJqlpeXRo0ctLS2VuBzf1XV0dKhcghcTCARKNDqSjRs3nj59Gj8jhqxfvz4vL8/Ly+vx48fe3t75+fnOzs7yqxs50C9atGj//v34I1999RUUptFoMveZdXd3o4ffv//9b5nzh66uLnNzcwCAkZER0RwDDVnd3d0UpyVvvPFGcnIy/sh///tf9O16enpkXvXpp59CgcTERIoNqYJr164ZGRl1dXXhD6IZDdHu3VevXqEfitx6MoY8fvwYtrhmzZrR15aYmKjwja84t27dUk69zz77DFXi6+tL5RL88h4AMMo9rfHx8QCAjIwMEpmDBw/CtpycnKjs/pQe1e/evVtdXX3t2jX8QRRO4ObmJnPzyb1799BUeeXKlTJ/9ylTpuzYsePAgQNwy9pIhEJhW1sbAIBGo1FMRPHDDz/89NNPaIiDoK7u4eFBVE9iYmJqampHRwfJ47Cnp+fjjz/u7e398MMPlRsc5HL06NGwsDC82/bnn39GgzlycUlhYmKSlJS0a9cuGxsbZOxUNfAxDXAzr9HwySefhIaGdnd3j74qmcBRHT9XUgg4K0RVUWwR/3F4eBgajJQjJCTExcXl7bffJpFhs9nQrFNXV5ecnIzCeAmR6vqxsbGenp74IzweD61DiLIU/OUvf4ECZmZmJM8VGGNPtNfvxYsXsBIWiyX3EUWkbUdHB7QvAACOHz9Oci0MbK6oqCASiIiIgPVIzXHGitbWVhqNJjXy7N69GzY6ffp0ko0TJSUlAID169erQjGZIPOKqamp2hrVFCkpKaiDUBzVUcgNAEBXV1fVGkJmzZoFW9TX15e7B0ba5DBjxow9e/bgj2RlZcGlta6ubnh4uMznRWFhISyQ73OEEUUwocdIBgYGYIFKcBKRtl999ZVQKAQA0Ol0mESFCGdnZz09PZIHP0qQ7OTkRFEfhRAIBMHBwfigwOHhYTSB2rx5M4nPHE5G1BkUoK+vDwcu9DdNYPADMpEdWgqxWIzKeB+7Slm9ejUsCAQCuIuWDLlPDjc3Nyi5YcMGmQL4hfoXX3xBUlV5eTkA4NGjRzLPIkPgggUL5GpFhLu7O6zEz8+PXDIqKorc/1leXs5ms0+dOqW0MooCg/8h9+/fJ5HkcrkAgDt37qhNNwzDoBeGRqONbXKlcQh+rf6HP/yByiV37txBl9jb26taQ8jhw4ep6ykn1qq+vr6yshKW0YRWiqKiIrkLdcjDhw9NTU3nzZsn8ywyy6MZuKLU19ejmESiCQiiqqoqODiYRMDd3T09PV05TZQDmT9tbGyQ700mVVVVkyZN8vT0VItevwJHdQzDxGLxxM7SjXcAwUmiXPBOJbWN6oaGhqhcWloqFApJ+o4cn+F3332HKt2wYYNMGTR7nz59OlE3hty9ezcgIIDIUYkMfnhXh0JcvnwZFhgMBtpUKJPOzs6amhoiu5dGEAqF2dnZsBweHk5uDSoqKvLy8lJnfp7h4WE4dZ80adLE7ucAAAsLC1Sm6M6EvlsIjIxQA/iuLhKJXr58SSIsp6sj43ZgYCDRjYVfqJPfoPDlDURnR9/Vkbbr1q0jX/Dn5OSYmZl5e3sr15AqyM/PR19869at5MLZ2dlbtmxRvVK/wefzYQF/e01U8F2d4t2IjMrg/9/6oihVVVUrVqywtbXdvn073hEgE6nkLuRdnezxzOPx4OoaAECUMau7uxvtASKfvZeXl7948YIkoQe6h9BdpRDPnz9Hs3e5+b0uX74cGhqq6I4alYIcnLa2tuS7+h48ePDs2bO33npLLXr9CvpTXodUf05OTgwGA47nFO/G9vZ2VF6wYIFy7WIYFhQUBF3O586dMzAw+Oc//0kij7cFAnmzCbKuDqOyYZlorltZWYkW6uTm92+++WbVqlXTp08nEmCxWCwWq6enRyAQkK865GpL/tDh8Xg3btzA21HwVFdX//jjj8bGxn5+ftSD9kYP2kRArjwAID093cfHBx/eKxORSFRUVFRfX29gYODl5YUcM8qBfOBU8jTIJTs7+/DhwyqNlrOysjp79qytra0Sl+vp6S1ZsgRuvuru7haLxXJj5vBd/Y033lCiUQAAh8OB/RyC31ciE6kcGPjJiAxITHZ//etfoYylpSWRTGpqKpRhsVgkhlmxWGxtbX3x4kVyI+GiRYtgbS9fviSXHElSUhK81tramlzy4MGDrq6uI49LJJK4uDgzM7Pw8HBzc/OpU6eqzcTd39+Pphjnzp0jkezr62OxWFeuXCGREQqFn3zyyYwZM0xMTIKDg/39/ZlM5vvvvy+RSI4ePRoaGqrEfj4U+BwWFqbotSPZv38/hTt/tBQUFCitIf5FoI2NjXLl0SSLRqO1tbUp16jUC3Dhq3VIwO99cnJyIhcmG9VbW1thYf78+XJlHBwcSBbqubm5nZ2d5KYyAICdnd3PP/8MAOjo6FB0REWPVfLha2Bg4OTJkydOnBh5at++fY8fP66pqZk2bdqRI0cSExMjIyNbWlrUMM/n8XhockSu/5kzZ6ytrUlWKFwud9OmTdXV1VFRUSdOnIA2Cy6X6+PjU1dXB5cJXl5eir7TFo3qaN/LaDh48CCbzVZupUYFGo0G99grXcPmzZuPHTsGy1wuV+a+Dzxo35GPj4+c0ZUYKysrPT09oVBIp9NXrFjx97//nVy+trYWlWFGRhLIujryH5C8oK+/vx8WUOCkTE6cOBERESE3ihPd5U+fPlUsxzXOKUL+Bx85csTIyGjkQvfWrVvnzp2rrq6G2/JgcFh7ezuXy5U79a2tra2srHR1dVV6kYb36JDo393dfejQoePHjxM9VWtra/38/Nra2qKjo8+dO4fEHBwcTp48iXwoJM9uIqAnH8h7ElGETqePST2qw9PT09XV9eHDhwCA8vJyFKwiE5FIBIcoAABJNKtIJMrLy+vv71+zZo1MszGDwfD29tbX1//mm2+I8injQY5wOp0uP70yyYiPwl03bdpEJIOM2CQhKwUFBQwG45dffiGfYGAYhrxln376qVxhKdAwFR4eTiTT3Nw8efLknJyckae8vLwOHz6MPsKkvHQ6Xe5+kjNnzqCF3IEDBxRVG4If3+rq6ojE/vjHP3p6ehLtUefz+bD/ODg4wK37eCQSCfT30ul0oqQdJERHR0P1amtrFb32d8rp06fhV/bx8SGXRHaf6dOnE+2wGhgYQPFdlpaWRO/GysjIoNFoVH7ksrIydM+w2Wy58mRdHQVv2drayhTIy8tDjRFFCAmFQhcXF4obyNBG36ioKCryeL7++mt47dKlS2UKCAQCDw8PmfkqYETK8+fP4cf29nboOpYb/ywWi6XiJagkEpYJCkm4ceOGTIHLly+zWCwOh0NUAxpPLl26NPIsn8+HK5ElS5YooZ6Hhwd4PQLgEQKBAMVEk/+tKLsxSbSo1JqRaB0+PDzs5OTk7e0tEAjI1du0aRN6cLS3t8v9OmRdXSQSoUG7pKRE6mxHR4ednV1CQoKrqyuUQXlUEBKJZOvWrZ6enjCbDRXgj6tEHg+BQACnvnQ6feRDUSgURkREODs7DwwMjLy2rKzs4MGD6OPf/vY3+I2+/PJL8kZHrjaVfm/s559/DmuQOSspLS01MjIisWs+ePAATtctLCxk7pOByQIAAHv27FFUN4FAAOeTct9zMsEoLi6G71H38fEhsjqjF6UEBgaOfH8jAm1kgpDMFCorK/X09EJCQkhSDCE7ApPJJNmyhUdODDyPx4N7VGbNmoWfWHI4HA8PD3d39/7+/gcPHsC9oi4uLvhpSXNzc3Bw8Jw5c1pbW6moAomJiYHfQaGrIPn5+fCP8fDwwF/e0NDg5uY2d+7clpYWuZVIJBJHR0cAAIvForINeNmyZfi/MCAgQFG1IWKxeO3atfBRhQ+8l0gkR44c0dPTS01NJbkcRd3s2rVLpsD7778PBZTYxY2ipE6cOKHotb93vv32WxhKsH379pEjVllZGTTueHp6SuUdkELKuUu+RL18+TJ0+N27d0/q1NDQ0N69e9F4TrGfY1TexNrc3Pzuu+8yGAwdHR0/P7/Y2Ni1a9cymcyIiAiUQKKxsRGafAwNDf39/bdv3+7j48NkMmNjY/v6+iiqAoHvWgYAZGVlKXQhpKKiYs2aNTQajcViBQQE7Nixw8/Pj8FgbN++nWK6C+RViomJoSLf1NQUEBBgZGS0ePHipKQkFxcXJdSGCIXCjz76CBo4XVxcIiMjIyMjbWxs7O3tb968SXLh0NAQCp8gkoQLRV1dXUX/EQzDPvroI3gtlYnixOPJkyeLFy8GADg6OmZmZj579ozP55eWlsbFxdHpdBqNtnPnTiqjQlpamq2tramp6e7du+W+2u2HH36Ar83y9vbevXt3enr6hQsX9uzZA28POp3OZrMV+jt+exMrOc+fPy8tLW1sbGxpaZkyZUpAQABcvOHhcrkFBQVcLlcoFFpZWQUGBipqRQcAYBg2e/ZsDoezZcsWtPxWlMbGxry8vNbW1qGhIXt7+6CgIOp+l4iICLjtpKSkRNH9JFeuXPnggw9QhjzlGB4evnnzZm1tLY/HMzExcXNz8/PzI3f4lZWVwcmFjo4On88fGbva09NjYmIiFouXLl0K028rhLu7e2VlZVBQEMog+LohEomuXbuWmZl5584dGLhCp9Pt7e3Dw8PfeecdFXkThELhxYsXs7KySkpKYOiejo6Ok5PTxo0b3377bUpJpvBQfyqoDbhUZjKZSow/o6SzsxOmoJw3b54Sl3/++eerVq0ac63k8u2338J/c+HChTIFrly5AgWUWKijrDjff//9qDWdCHR1dbW0tKgtVy/k5cuX7e3tJLYAuYyjIHAEm83W1dUdGBhAO73URmZmJswBuG3bNnRw586dyIFJTlNTE1E6LZWC8hYSOcyR6QgFLz99+jQqKopK5ZmZmQAAMzMzmApey5QpU6ysrCimlxwrTE1Nzc3NRxPNNR67uoWFBUwgQx7rrwouXLgAANDV1UUBCY2NjadPnx6Z7lomN27c0MhuOeSoI4rTgtHUdDp9+fLl8MilS5c6Ozvl1iwUCuFvkpiYOJpkaVo0zxjOMcYQLpcLt7sUFRWprdGuri7orwoKCkIH9+3bR5R+R4rq6mp9ff1Xr16pTEFCBgYG4CATFxc38uzFixfhf41flXh6el64cEFuzadOnQIAWFhYyHRSavkdMU67OvZ/+YPXrVunthZRAnbk1qqvrzcyMiotLaVyOZvNViLyZ6xISEgAACxatEjqeHZ2toGBAfSKr127Fh589OjR1KlT5fZekUgEY7/l7lPSMv4Zv119YGAAGjZzc3PV0yLcfgcA+Ne//oVhGIfDmT9/PkVPclVVFYPBqK+vV7GOhPD5fPhGx9OnT6Mj+/btMzY2vnLlCswibGtrOzw8LBKJVq9enZKSIrdOmG/Y399fxbprUQfjt6tjGFZUVKSrq2tra6s2U3xJSYmVldXUqVO9vb1ZLBaV/oBhGJ/Pd3Z2lnrzhPrp6OgIDQ2l0Wiurq6+vr4sFis0NBQ+fXp7e2Hw5qxZs6ytrdeuXSvXr8vhcJhMpomJybNnz9SivhbVQtWvrilSU1P37NmTkJCA4kZVTX9/f3l5OZ/Pd3d3x78gjQixWLxhw4bBwcHbt2+Ph6RrL1++/OmnnzAMc3V1ldpuWFtb+/DhQzs7u2XLlpGnBsMwzNfXt7CwMDs7W2t4nyBo+FFDATabDQA4c+aMphWRzaNHj0JCQpTYKzaegaGXn332maYV0TJm/A66ukgkCg4O1tXVvX37tqZ1eS04f/48ACApKUnTimgZS8b7BB4iEomio6NzcnIKCwvRRjotquDWrVtBQUH79++HljwtE4b/B5UvLGab/6dVAAAAAElFTkSuQmCC;rotation=-25;" parent="1" vertex="1">
          <mxGeometry x="113.15" y="160" width="158.34" height="25.13" as="geometry" />
        </mxCell>
        <mxCell id="TYrLCPMJrX0rA2hv0LJ_-30" value="" style="shape=image;verticalLabelPosition=bottom;labelBackgroundColor=default;verticalAlign=top;aspect=fixed;imageAspect=0;image=data:image/png,iVBORw0KGgoAAAANSUhEUgAAAU4AAAA1CAIAAACho5WIAAAACXBIWXMAAA7EAAAOxAGVKw4bAAAZlUlEQVR4nO2de1hTR/r4JwEJBAyKiFzkrqKIihZQ0AUVENGKSFEepNDgI4gtuLsulVVpi9au26XeutsVr2hhy7bWVgW8oCAVoVyrZRVESMByM4pAuIaE5Pz+mH6n5xdyTk4CSSjm89fknPfMvEnOnJl533feQ8MwDGjRomWiQ9e0Alq0aFEHv6eu/urVq0ePHmlaiwlOeXn54OCgprXQMvb8brp6cXHx/Pnzb9++rWlFJjhpaWlubm4cDkfTimgZY34fXf369eu+vr7BwcF//vOfNa3LBOfUqVO2traenp7V1dWa1kXLWEIb/2a5goKCwMDAVatW5eTk6OrqalqdiU9fX5+3t3dzc3NJScns2bM1rY6WsWG8d/WamhovLy8LC4vy8vLJkydrWp3Xhba2tkWLFhkbG5eXl5uYmGhanXHH0NAQg8HQtBa/IpFI6HT50/NxPYHv7+9/6623ent7z58/r+3n6sTS0vLkyZMcDicyMnKcDwZqo6ysbNu2bXPnzmUymfr6+tOmTVu5cmVaWlpHR8eYt3Xo0CEHB4fExMTi4mKJRCJTRiKR3L9/Pz4+3sTE5NmzZ/IrxcYx27ZtAwDs3r1b04q8poSFhQEAjh07pmlFNExNTc3SpUsBAHPmzElLS3vy5Elzc/OdO3fCwsLodLqhoWFqaqpEIhnDFuPi4lAPNTc3DwoK2rFjR0pKyrFjx1JSUuLj41evXm1sbAwFoqOjqdQ5frt6fn4+AGDGjBn9/f2a1uU1pbGxUU9Pj8lkNjQ0aFoXjVFYWGhkZAQA+NOf/iQWi6XOVlRUzJgxAwCwefNmoVA4Vo3iuzo5oaGhFNsdp11dJBLNmTMHAHDkyBFN6/Ja89577wEA3nzzTU0rohnq6upgP9+4cSORTElJCbQWx8bGjlW7VLq6np7eoUOHqM8mfjPLtbS0REZGUnyWjAlWVlaZmZkyT509ezYmJsbMzKyxsZHJZKpTKy14Wltb7ezshoeHCwsLfXx8NK2OWsEwzN3dvaqqSkdHh8vl2tjYEEnGxMScPXsWAHD16tWgoKDRN71z5860tDSis7q6umFhYcnJyXPnzlWgUtTpnz59OnoVFWL27NkyHz8ikcja2hoA8MEHH4z6+ahltGzcuBEAsHLlSk0rom7+85//wBs1JCSEXPJ///sflHR0dBSJRKNvGo7qeXl5KSkp4eHhq1ev9vDwWLduXUxMTEZGBo/HU6LO39zUM2fOvHv3rjq7uoGBgczjubm5zc3NAAA1zzK0yCQ2Nvbq1auFhYX19fWvlZv96NGjsLBmzRpySRcXF2tr6+bmZg6Hk5eXt27dujFRwN/f39/ff0yqAmBcWuDhMLJs2TJNK6IFwzBMLBZPmzYNAJCUlKRpXdRHTU0N6iPV1dVy5UNCQqDwli1bRt86HNVHXw+ecedXf/HiRW5uLgAgNDRU07poAQAAOp0eEBAAALhw4cLw8LCm1VETaPYOAJg5c6ZceXt7e1i4du1aX1+fqtQaBeOuq2dkZMD7ydfXV9O6aPmVwMBAAACPx7t+/bqmdVET9+7dgwUdHZ0pU6bIlYfWJQCAQCCoqqpSoWbKMu66OryZTExMFi5cqGldtPyKn58fLLwmOwslEsmDBw9g2dTUlEajyb1k6tSpqFxRUaEqzUYB2e4RiUSSnZ1dUVGho6OzdOlSKsYGDMOIfpeGhob09HQbG5vY2FgiGZFIVFpaCgDw8vKiEtYrpW1OTk5FRQWdTofmSpJ/6LvvvispKdm6deuSJUsUakV1NDU15ebmNjQ0zJkzZ/369SSunfb29lOnThkbGyckJKhn/4+5ubmlpWVbW1tRUZEamtM4HA4HTcJNTU2pXIJi1wAA43NUJ1z6NzQ0LFmyxNHRMSYmZsWKFQCAgICA3t5eknX/gQMHjIyMNm/ePPJUdXU1DEUAABw6dIiohh9//BHK7N27VxGLA8blct3c3BwcHHbs2AHdv35+fnw+X6bwhx9+CFsxMDBobm5WqCEVkZqaamho+Oabb+7cudPY2Hjy5Mlff/21TMm2tjYYngUAiI+PV5uG69evBwDQ6fTOzk61NaopiouLUQehaB6+efMmumTFihWjVEDKLCcQCPLz88+cOZOampqRkVFaWqpEHK7srt7T0+Ps7BwXFzc0NIRh2ODg4KRJkwAACQkJRBXdv38ffdWOjg6ps++88w46O3PmTKJK/vGPf0CZzMxM6t+hr69v4cKF77777uDgIIZhAoEAavvee++NFBYKhfr6+kgZkueO2vjyyy+tra2Li4vhR/gkMjQ0bGpqGin88ccfI+UZDMbw8LB6lExOToaNZmdnq6dFDYI3SSxfvpzKJfilzaxZs0apAOrq7e3t8fHxhoaGkydP9vDwCAoKgjZCGxubw4cPKxSKK2OSjGFYVFSUo6PjyZMn9fT0AAD6+vrQB37+/HmifTZXr16FBQsLC+ibwWNnZ4fKra2tRCmNUCiCQmFA0dHRCxYs+OKLL2AfZjAYsJCenj5S20mTJqFREQDQ0NBAvSFVUFlZuWvXruvXr3t5ecEjLBYLANDf35+VlTVS3srKCpWHhoZaWlrUoyeyML8OOb96enpQmeJCEr+S4vF4Y6LGzZs3582b9/Tp08LCwp6enrKysqtXrzY3N+fk5AwODu7du3fx4sX19fUUa5Ox0svIyLh79y7er9jS0gK/fH9//y+//ILvt4iCggJYkBk+mZycXFVVlZOTAwDAMIzIZ9PY2AgLFBdIAICsrKz8/Hx8qF9bW1tvby8AYGBgQKa2ly5dWr58uUgkAgAMDQ1RbEgVYBgWGRm5a9cuFxcXdLCurg4Wnjx5MvISNpudnZ39/fffw49q0x85nJqamkZfW0FBwfHjx7u6ukZflUxoNJqlpeXRo0ctLS2VuBzf1XV0dKhcghcTCARKNDqSjRs3nj59Gj8jhqxfvz4vL8/Ly+vx48fe3t75+fnOzs7yqxs50C9atGj//v34I1999RUUptFoMveZdXd3o4ffv//9b5nzh66uLnNzcwCAkZER0RwDDVnd3d0UpyVvvPFGcnIy/sh///tf9O16enpkXvXpp59CgcTERIoNqYJr164ZGRl1dXXhD6IZDdHu3VevXqEfitx6MoY8fvwYtrhmzZrR15aYmKjwja84t27dUk69zz77DFXi6+tL5RL88h4AMMo9rfHx8QCAjIwMEpmDBw/CtpycnKjs/pQe1e/evVtdXX3t2jX8QRRO4ObmJnPzyb1799BUeeXKlTJ/9ylTpuzYsePAgQNwy9pIhEJhW1sbAIBGo1FMRPHDDz/89NNPaIiDoK7u4eFBVE9iYmJqampHRwfJ47Cnp+fjjz/u7e398MMPlRsc5HL06NGwsDC82/bnn39GgzlycUlhYmKSlJS0a9cuGxsbZOxUNfAxDXAzr9HwySefhIaGdnd3j74qmcBRHT9XUgg4K0RVUWwR/3F4eBgajJQjJCTExcXl7bffJpFhs9nQrFNXV5ecnIzCeAmR6vqxsbGenp74IzweD61DiLIU/OUvf4ECZmZmJM8VGGNPtNfvxYsXsBIWiyX3EUWkbUdHB7QvAACOHz9Oci0MbK6oqCASiIiIgPVIzXHGitbWVhqNJjXy7N69GzY6ffp0ko0TJSUlAID169erQjGZIPOKqamp2hrVFCkpKaiDUBzVUcgNAEBXV1fVGkJmzZoFW9TX15e7B0ba5DBjxow9e/bgj2RlZcGlta6ubnh4uMznRWFhISyQ73OEEUUwocdIBgYGYIFKcBKRtl999ZVQKAQA0Ol0mESFCGdnZz09PZIHP0qQ7OTkRFEfhRAIBMHBwfigwOHhYTSB2rx5M4nPHE5G1BkUoK+vDwcu9DdNYPADMpEdWgqxWIzKeB+7Slm9ejUsCAQCuIuWDLlPDjc3Nyi5YcMGmQL4hfoXX3xBUlV5eTkA4NGjRzLPIkPgggUL5GpFhLu7O6zEz8+PXDIqKorc/1leXs5ms0+dOqW0MooCg/8h9+/fJ5HkcrkAgDt37qhNNwzDoBeGRqONbXKlcQh+rf6HP/yByiV37txBl9jb26taQ8jhw4ep6ykn1qq+vr6yshKW0YRWiqKiIrkLdcjDhw9NTU3nzZsn8ywyy6MZuKLU19ejmESiCQiiqqoqODiYRMDd3T09PV05TZQDmT9tbGyQ700mVVVVkyZN8vT0VItevwJHdQzDxGLxxM7SjXcAwUmiXPBOJbWN6oaGhqhcWloqFApJ+o4cn+F3332HKt2wYYNMGTR7nz59OlE3hty9ezcgIIDIUYkMfnhXh0JcvnwZFhgMBtpUKJPOzs6amhoiu5dGEAqF2dnZsBweHk5uDSoqKvLy8lJnfp7h4WE4dZ80adLE7ucAAAsLC1Sm6M6EvlsIjIxQA/iuLhKJXr58SSIsp6sj43ZgYCDRjYVfqJPfoPDlDURnR9/Vkbbr1q0jX/Dn5OSYmZl5e3sr15AqyM/PR19869at5MLZ2dlbtmxRvVK/wefzYQF/e01U8F2d4t2IjMrg/9/6oihVVVUrVqywtbXdvn073hEgE6nkLuRdnezxzOPx4OoaAECUMau7uxvtASKfvZeXl7948YIkoQe6h9BdpRDPnz9Hs3e5+b0uX74cGhqq6I4alYIcnLa2tuS7+h48ePDs2bO33npLLXr9CvpTXodUf05OTgwGA47nFO/G9vZ2VF6wYIFy7WIYFhQUBF3O586dMzAw+Oc//0kij7cFAnmzCbKuDqOyYZlorltZWYkW6uTm92+++WbVqlXTp08nEmCxWCwWq6enRyAQkK865GpL/tDh8Xg3btzA21HwVFdX//jjj8bGxn5+ftSD9kYP2kRArjwAID093cfHBx/eKxORSFRUVFRfX29gYODl5YUcM8qBfOBU8jTIJTs7+/DhwyqNlrOysjp79qytra0Sl+vp6S1ZsgRuvuru7haLxXJj5vBd/Y033lCiUQAAh8OB/RyC31ciE6kcGPjJiAxITHZ//etfoYylpSWRTGpqKpRhsVgkhlmxWGxtbX3x4kVyI+GiRYtgbS9fviSXHElSUhK81tramlzy4MGDrq6uI49LJJK4uDgzM7Pw8HBzc/OpU6eqzcTd39+Pphjnzp0jkezr62OxWFeuXCGREQqFn3zyyYwZM0xMTIKDg/39/ZlM5vvvvy+RSI4ePRoaGqrEfj4U+BwWFqbotSPZv38/hTt/tBQUFCitIf5FoI2NjXLl0SSLRqO1tbUp16jUC3Dhq3VIwO99cnJyIhcmG9VbW1thYf78+XJlHBwcSBbqubm5nZ2d5KYyAICdnd3PP/8MAOjo6FB0REWPVfLha2Bg4OTJkydOnBh5at++fY8fP66pqZk2bdqRI0cSExMjIyNbWlrUMM/n8XhockSu/5kzZ6ytrUlWKFwud9OmTdXV1VFRUSdOnIA2Cy6X6+PjU1dXB5cJXl5eir7TFo3qaN/LaDh48CCbzVZupUYFGo0G99grXcPmzZuPHTsGy1wuV+a+Dzxo35GPj4+c0ZUYKysrPT09oVBIp9NXrFjx97//nVy+trYWlWFGRhLIujryH5C8oK+/vx8WUOCkTE6cOBERESE3ihPd5U+fPlUsxzXOKUL+Bx85csTIyGjkQvfWrVvnzp2rrq6G2/JgcFh7ezuXy5U79a2tra2srHR1dVV6kYb36JDo393dfejQoePHjxM9VWtra/38/Nra2qKjo8+dO4fEHBwcTp48iXwoJM9uIqAnH8h7ElGETqePST2qw9PT09XV9eHDhwCA8vJyFKwiE5FIBIcoAABJNKtIJMrLy+vv71+zZo1MszGDwfD29tbX1//mm2+I8injQY5wOp0uP70yyYiPwl03bdpEJIOM2CQhKwUFBQwG45dffiGfYGAYhrxln376qVxhKdAwFR4eTiTT3Nw8efLknJyckae8vLwOHz6MPsKkvHQ6Xe5+kjNnzqCF3IEDBxRVG4If3+rq6ojE/vjHP3p6ehLtUefz+bD/ODg4wK37eCQSCfT30ul0oqQdJERHR0P1amtrFb32d8rp06fhV/bx8SGXRHaf6dOnE+2wGhgYQPFdlpaWRO/GysjIoNFoVH7ksrIydM+w2Wy58mRdHQVv2drayhTIy8tDjRFFCAmFQhcXF4obyNBG36ioKCryeL7++mt47dKlS2UKCAQCDw8PmfkqYETK8+fP4cf29nboOpYb/ywWi6XiJagkEpYJCkm4ceOGTIHLly+zWCwOh0NUAxpPLl26NPIsn8+HK5ElS5YooZ6Hhwd4PQLgEQKBAMVEk/+tKLsxSbSo1JqRaB0+PDzs5OTk7e0tEAjI1du0aRN6cLS3t8v9OmRdXSQSoUG7pKRE6mxHR4ednV1CQoKrqyuUQXlUEBKJZOvWrZ6enjCbDRXgj6tEHg+BQACnvnQ6feRDUSgURkREODs7DwwMjLy2rKzs4MGD6OPf/vY3+I2+/PJL8kZHrjaVfm/s559/DmuQOSspLS01MjIisWs+ePAATtctLCxk7pOByQIAAHv27FFUN4FAAOeTct9zMsEoLi6G71H38fEhsjqjF6UEBgaOfH8jAm1kgpDMFCorK/X09EJCQkhSDCE7ApPJJNmyhUdODDyPx4N7VGbNmoWfWHI4HA8PD3d39/7+/gcPHsC9oi4uLvhpSXNzc3Bw8Jw5c1pbW6moAomJiYHfQaGrIPn5+fCP8fDwwF/e0NDg5uY2d+7clpYWuZVIJBJHR0cAAIvForINeNmyZfi/MCAgQFG1IWKxeO3atfBRhQ+8l0gkR44c0dPTS01NJbkcRd3s2rVLpsD7778PBZTYxY2ipE6cOKHotb93vv32WxhKsH379pEjVllZGTTueHp6SuUdkELKuUu+RL18+TJ0+N27d0/q1NDQ0N69e9F4TrGfY1TexNrc3Pzuu+8yGAwdHR0/P7/Y2Ni1a9cymcyIiAiUQKKxsRGafAwNDf39/bdv3+7j48NkMmNjY/v6+iiqAoHvWgYAZGVlKXQhpKKiYs2aNTQajcViBQQE7Nixw8/Pj8FgbN++nWK6C+RViomJoSLf1NQUEBBgZGS0ePHipKQkFxcXJdSGCIXCjz76CBo4XVxcIiMjIyMjbWxs7O3tb968SXLh0NAQCp8gkoQLRV1dXUX/EQzDPvroI3gtlYnixOPJkyeLFy8GADg6OmZmZj579ozP55eWlsbFxdHpdBqNtnPnTiqjQlpamq2tramp6e7du+W+2u2HH36Ar83y9vbevXt3enr6hQsX9uzZA28POp3OZrMV+jt+exMrOc+fPy8tLW1sbGxpaZkyZUpAQABcvOHhcrkFBQVcLlcoFFpZWQUGBipqRQcAYBg2e/ZsDoezZcsWtPxWlMbGxry8vNbW1qGhIXt7+6CgIOp+l4iICLjtpKSkRNH9JFeuXPnggw9QhjzlGB4evnnzZm1tLY/HMzExcXNz8/PzI3f4lZWVwcmFjo4On88fGbva09NjYmIiFouXLl0K028rhLu7e2VlZVBQEMog+LohEomuXbuWmZl5584dGLhCp9Pt7e3Dw8PfeecdFXkThELhxYsXs7KySkpKYOiejo6Ok5PTxo0b3377bUpJpvBQfyqoDbhUZjKZSow/o6SzsxOmoJw3b54Sl3/++eerVq0ac63k8u2338J/c+HChTIFrly5AgWUWKijrDjff//9qDWdCHR1dbW0tKgtVy/k5cuX7e3tJLYAuYyjIHAEm83W1dUdGBhAO73URmZmJswBuG3bNnRw586dyIFJTlNTE1E6LZWC8hYSOcyR6QgFLz99+jQqKopK5ZmZmQAAMzMzmApey5QpU6ysrCimlxwrTE1Nzc3NRxPNNR67uoWFBUwgQx7rrwouXLgAANDV1UUBCY2NjadPnx6Z7lomN27c0MhuOeSoI4rTgtHUdDp9+fLl8MilS5c6Ozvl1iwUCuFvkpiYOJpkaVo0zxjOMcYQLpcLt7sUFRWprdGuri7orwoKCkIH9+3bR5R+R4rq6mp9ff1Xr16pTEFCBgYG4CATFxc38uzFixfhf41flXh6el64cEFuzadOnQIAWFhYyHRSavkdMU67OvZ/+YPXrVunthZRAnbk1qqvrzcyMiotLaVyOZvNViLyZ6xISEgAACxatEjqeHZ2toGBAfSKr127Fh589OjR1KlT5fZekUgEY7/l7lPSMv4Zv119YGAAGjZzc3PV0yLcfgcA+Ne//oVhGIfDmT9/PkVPclVVFYPBqK+vV7GOhPD5fPhGx9OnT6Mj+/btMzY2vnLlCswibGtrOzw8LBKJVq9enZKSIrdOmG/Y399fxbprUQfjt6tjGFZUVKSrq2tra6s2U3xJSYmVldXUqVO9vb1ZLBaV/oBhGJ/Pd3Z2lnrzhPrp6OgIDQ2l0Wiurq6+vr4sFis0NBQ+fXp7e2Hw5qxZs6ytrdeuXSvXr8vhcJhMpomJybNnz9SivhbVQtWvrilSU1P37NmTkJCA4kZVTX9/f3l5OZ/Pd3d3x78gjQixWLxhw4bBwcHbt2+Ph6RrL1++/OmnnzAMc3V1ldpuWFtb+/DhQzs7u2XLlpGnBsMwzNfXt7CwMDs7W2t4nyBo+FFDATabDQA4c+aMphWRzaNHj0JCQpTYKzaegaGXn332maYV0TJm/A66ukgkCg4O1tXVvX37tqZ1eS04f/48ACApKUnTimgZS8b7BB4iEomio6NzcnIKCwvRRjotquDWrVtBQUH79++HljwtE4b/B5UvLGab/6dVAAAAAElFTkSuQmCC;rotation=-30;" parent="1" vertex="1">
          <mxGeometry x="805.0025859584634" y="160.0014451261267" width="158.34" height="25.13" as="geometry" />
        </mxCell>
        <mxCell id="3eV-yUBCJRz-t-QJoyjE-1" value="" style="shape=image;verticalLabelPosition=bottom;labelBackgroundColor=default;verticalAlign=top;aspect=fixed;imageAspect=0;image=data:image/png,iVBORw0KGgoAAAANSUhEUgAAANcAAAA8CAIAAAB6nLijAAAACXBIWXMAAA7EAAAOxAGVKw4bAAAOrElEQVR4nO2de1BU5RvHn73AchGQ5W7cJUURiqBiDDCmIcqItClqwIicwBkgjECGGq2IMZ1GRyf/yASlCTEzGwIDRgW7cBHzulxTYSFSEIGVO+wuu+f3xzu+vx04e/bs2V3Ouu3nr2fPed/nPGf2u+95z/NelkMQBJgxwypctgMwY8asQjNGgFmFZtjHrEIz7GNWoRn2MavQDPuYVWiGfcwqNMM+xqLC0dHR9vZ2tqMgp7u7e2BggO0oTBmjUGFTU1NQUND58+fZDoSc5ubmoKCg2tpatgMxXQjdkEqlOnqorq4WCATbtm3T0Y9BKSoq4vF4x48fZzsQ04ShCltbW7du3erq6goA7u7uSUlJ/f39DPzU19dbWlrGxcXJ5XJmkSwZaWlpXC73559/ZjsQE0RrFcpkspycHB6Pt2rVqmPHjvX29lZVVQmFQnt7+9bWVq1cdXR0ODg4BAYGTkxMaBvG0iOXy6Ojo62srFpaWtiOxUiRyWQKhYJBRe1UODk5GRUVBQAbNmyQSCT4+DfffAMAvr6+s7OzNF1NTU0FBgZyudzm5matYmARsVi8bNkyLy+v4eFhtmMxOjo7O319fePj4xnU1UKFUqk0NjYWAFauXDk2NqZ6SiaTCQQCADhw4ABNb1u3bgWAjz76SItgjQD0e3vttdfYDsSImJ2d3b9//7JlywAgIiKCgQe6KlQoFG+++SYA8Pn8q1evLi7w1FNPAUBYWBgdb/X19QDg5uY2PT2tRbAEQRDE0NBQZGSkUCg8ceKEtnV1Z35+fs2aNQDwww8/LP3VjYrR0dH6+vr333/fwcEBv+waVoWFhYXoMjk5OaQFXn/9dQDgcrmqT2pS5HL5qlWrAGD//v3aBUsQBEFkZWWhSOLi4hhU152ffvoJvZNNTU2xEgC7ZGdnr1271tnZGX0LAoEgMTFxKVTY1tZmaWkJAE5OTuPj46RltmzZguKoqKig9lZcXAwArq6uDBpCgiA8PDzQhdh6miuVyrVr1wJAYWEhKwGwS05OTmRk5ObNm/Pz80+dOoUaHYOrcH5+Pjw8HF1j9+7d6oqlpqaiMnl5eRTe5HK5l5cXAOzatYtBuLdu3cI3rFHuhuPAgQMAYGdnNzk5yVYMRoWOKtQ8dnLw4MErV64AwPLlyzMzM9UVm56eRsa///5L4a26uhoVeOeddzReejF//PEHMrhcbnR0NAMPeiElJUUgEExOTp48eZKtGEwJDSqcnp7eu3cvstPS0lT7oQuQSCTIGB0dpXBYWloKABEREY8//rh2kQKAigpDQkKEQiEDD3pBKBRu3LgRAEpKStiKwZTQoMLDhw+PjIwg+91336Uo+c8//yBjfn5eXZn79+9XV1cDwBtvvKFdmA/BKoyJiWHmQV+8/PLLAHDp0qW2tjZ2IzEBqFQ4Nze3b98+ZIeFhQUFBakrOT8/39/fj2yKJqqsrAxp9IUXXmAQa29vL37cP//88ww86BGkQnjYupvRBSoVlpaW3rt3D9koWaiOzs5OmUyGbBcXF3XFampqAEAoFIaEhGgdqdF0ChGenp6rV68GAKOdCvQIwac4p/orxz99Um7cuIFtnElagFwub2lpAYD169dzubRmlM3OziqVSvzxwoULyAgODrawsMDvQxYWFiiRtMSEhYXdvHmzo6NDIpGw2Ek1AdSqoaen5/Lly8hesWIFdeuFS4J6FV69enVmZgYAgoODNYYll8s9PDxsbGyWqVBWVobOikQi1eMCgeDzzz/X6FPvhIaGAgBBEI2NjUt/dVNCbVuomoOgbggBoKmpCdvr1q0jLdPQ0IAMiv4lxsLCoqCg4O7duzgXde/evePHjyM7KSlpxYoVuLCtrS0auVlikAoB4M8//0xISFj6AEwHdYlEVa2cPn2aIuU4OTnJ4/FQSQ6Hs2CiAwYnCK9cucIgsXn06FFUncfjqRu/WWJ6enpQSGyNJRoPWCrMstbkbWF/f39HRwf+WFNTQ/HQGRoaUigUyF6zZo26nGJvby8y1D2yqfntt9+QERYWZm9vz8CD3nnssceQ0dfXp7u3O3fu5ObmDg4OEgbbv8rR0TE3N3fDhg0G8s8YchVeunRJ9eOxY8dounv22WfVncIqXL58OU1vqmAVsp6jwQgEAhcXl+Hh4b6+PoIgOByOLt5EItGpU6f0FZs61q1b98ioEL3MIjIzM/GEGlKio6M7OzuxTVpGJpOhZWwcDsfOzk7bKG/fvn337l1kG48KAcDd3X14eFgqlQ4ODqp2VRnwyiuvtLa2GrotxH1Zo0KzCmNjY52cnNTVf/Dgwd9//41sS0vLTZs2kRZDPTkAsLOzo5mmUQU3hDweLzIyUtvqhsPGxgYZDx480FGFABAcHEwngWB6kAhCqVReu3YN2RwOh/pbv3DhAk7pvfTSS+qetihHAzo/jsPCwhg0pYbD2toaGfgGzTCARIUSiWRubg7ZgYGBFA0hAKiu0n377bfVFcNfEsV8CAp+//13ZBjV4xjMKtQTJCrE0xdAJSVGCkEQWIW2travvvqqupJ4igODQY6bN2/igURjUyF+I5HL5exG8kijQYVPPPEEReWmpia8dUZaWhpa/0IK7j9NTExoGyJuCI2tUwgA4+PjyMA3aIYBGlSIVvqoo7y8HBmWlpZ5eXkUJXVRIe4UhoeHG1WnEFRUaGtry24kjzQk78g4BQ0A3t7e6mpKpVK0DggAUlNTcQqXFPwl4a+NPsw6hY2NjdevX/fx8YmLi0OrVDHt7e1dXV2Dg4Pe3t4RERHu7u7ahoQxt4V6gUSFqlOzKLIPZWVlaFo1n8/Pz8+nvoy9vb29vf3ExMTc3JxMJqPfO7x169bQ0BCy6atw165dR48ejY6O3rFjh7u7e1VVFZqNUVdXt3PnzsHBwdDQUDs7uy+++GJ6ejovL6+oqIim5wWMjY0hg/pHSAexWJyenj4wMGC4fKFQKNy5c6fGWQEssHhQr6urC5+dmZkhHfhTKpWBgYGozCeffEJnrBB3MbXa2AAt2AMAPp9PupFIRUXFhx9+qHqktrbWx8dnZGSEeLhs1N/fX6FQ7N2718PDo7y8HO9iIRaLUTP57bff0g8Jo1Ao0NuJm5sbg+oLOHfu3BJ83Z999pnuoS4G+9fbOLKbmxu28TSFBVRUVKBk9erVqz/99FM69+/r6ysSiQBgZGSE/lAynolDmilUKpX5+fkL1g/s27cvNzcXJZj8/f0BQCwWv/fee42NjY2NjegIws/PLzw8vKmpqaSkJD09nWZIGJyK9/Pz07buYmJjY+/cuTM0NEQYrC10cHBQvX0jglSbeEINafMjlUoDAgIAgMPhNDQ00NR7bm4u8llZWUn/V4LWzwNAfn7+4rM//vijtbU1eoohuru7+Xw+GgcjCGL79u2ouq2tbVtb22IPaP2KtbU1/ZAwaGkiAGzZsoVBdVMCy0mfK0Fx5k/1fRnz9ddfd3d3A8DHH39MP3Wyfv16ZOARP40QKrOnIiIiFpydnZ0tKCjIzc3F6+QB4PTp01FRUfiF4+LFi8jYs2cP6cRHsVgMAI6OjjRDUgVPO3ruuecYVDfzf0i1iWetnjlzZsEpkUiEBgxSU1O10jt+yUhJSaFfC78qLd6vLTs7OzAwcMEuYSUlJVVVVciemJjg8/kAEBAQMD8/v9j5/fv3UccuJiZGq3tB4Hey9vZ2BtVNhqmpKSynkJAQBh7IVahQKNCoSUZGhupxiUSCHpHx8fEM9r1Ey4UCAgLoV3nxxRfR7S3YYO7w4cM+Pj5oSpU60KpTUPM0JwjixIkTqEBRURH9kDDoae7k5KRUKhlUNxnwBGQAEAgE2m5jSVDsENLS0mJlZeXg4NDV1YWOdHV1oaXsKSkp9PcpVCUtLQ3Fiqby06G5uRnNwTl06BA6IpFIMjIyvLy8enp6qOvinujZs2dJC+Dp33/99Rf9u0DMzc1ZWVkBwObNm7Wt+0jT3NyclZWVkZGRnp6emJi4eHTN0tIyMjIyOTl527ZtmZmZWVlZqh13Uqj2qamtrXVxcXFyckpKSoqOjubz+d7e3rrsmIY2jAMtt10rLS21t7e3trZOTU1NSEhwdHSMiYm5ffu2xopoMzsej6fuHQtNrfD29mbQmOERHerlEKZHSUmJtbW1s7Ozh4eHl5eXr6+vv7//yof4+/v7+fn5+Ph4enq6ubkJhUKBQKCxx6Jht6SJiYnvvvuuoKCgsLCwtraWtHdFH6VSuXLlSgBITEzUquLAwMD3339fUFBw8ODBixcv0qkyNjaGGtHQ0FDSApWVlUhG1Ns7qQONWDo7O+u+v7wZXff415Yvv/wSAGxsbAy9+d+ZM2eQyNRtMIezjCKRCB2Zm5uLi4tTl6hXRaFQoMGS7du36zPo/ypLrcKBgQH03mrovVBxp/DXX39dfHZ0dBSNmjz55JP4YHl5uaenJ52nc11dHXJ+48YNfQb9X2Wp/3XHw8PjrbfeAoBDhw4Z9EJoOxEej4e2g19ATU2NVCoFgOTkZHzwyJEj2dnZdBYxHTlyBAA2btxIPfPNDF2WXvhisRjNZqA/7qIt4+PjaOzxmWeeIS2AkwuNjY3oyMmTJ11cXOj850VnZyeXy+VwONeuXdNn0P9hWPgHMj8/v+zsbADYs2ePgS7R1NSE5qepW/UYFRWFOgYEQQBAXV1dTk7OL7/8Qmf+4u7du5VKZWpqqnGuZ3skYUX7MzMzaCS6urraEP5RvlogEFDsA1FcXGxjY+Pl5fX000+7urrSHN2+fPkyj8dzdXUdHR3VX7z/ddhRIUEQDQ0NfD7fx8fHEC/LSqXy3LlzGnOKQ0NDlZWVZ8+epfnnUzKZLDg4mMPh4EFCM3qBNRUSBPHVV18BwAcffMBiDFqBdgbbsWMH24GYGmyqkHj4zwDFxcXshkGHmpoaHo+XkJCgY+rezGJYVqFcLt+0aROfzz9//jy7kVAjEons7OxiYmKY/UeLGWpYViFBEDKZLDk52cHB4fr162zHQk5fX5+np2d8fLxZggbif76E0ff3M7GiAAAAAElFTkSuQmCC;" parent="1" vertex="1">
          <mxGeometry x="440" y="400" width="107.5" height="30" as="geometry" />
        </mxCell>
        <mxCell id="tHz7xv7v6N_URBj-7UDH-1" value="" style="shape=image;verticalLabelPosition=bottom;labelBackgroundColor=default;verticalAlign=top;aspect=fixed;imageAspect=0;image=data:image/png,iVBORw0KGgoAAAANSUhEUgAAAKoAAABQCAIAAAAGHXmqAAAACXBIWXMAAA7EAAAOxAGVKw4bAAAJPElEQVR4nO2de0hTURzH76ab181H6nzUpqIm5lIxxITSfBBqEhhCZtADQ6w/hIoSShKMIqR/0h4QlVpUYBq9zQe61CxKZWU+UMr5SCdumovZnNu8648Ll4u17bp7d7e58/kjzlnn/M7P+z2/c8899+yModfrIYCjwrS2AwBrAuR3aID8Dg2Q3+7R6XSVlZUvXrwwoy4DTP3snebm5szMTCcnp8nJyU2bNq2pLoh+u8fX1xeCoJWVlcrKyrXWBdG/HoiNje3r63N3d5dIJDwej3hFEP3rgYsXL0IQpFQqMzIy5ufniVd0tphLAELMzs5WV1fPzMxotVqzjej1ejabrdFoxGJxampqY2Mjn88nWhNgRc6cOWO26oY4ceIEwdZB9FuZ9PT0169fS6VSnU5nthG1Wo2lORxOdnY20ZoW7doAGigrK8PUzM7OlkgkxOsC+e2bkpISVHgul/vkyZO1VgcPfnbMo0ePDh8+DEGQj49Pa2trbGzsWi0A+e2Y6OjogYEBLpf7/v37bdu2mWEBPPfbMQcOHPD396+rqzNPe8ha0T83N3fz5s2cnJyYmBj6WwdgWEf+8+fPl5eXC4XCwcFB+lsHYFhn8EffUgwNDTU2NlrFAQCKdeTPy8uDYRiCoMuXL4O5pxGGh4fPnj07MjJiqQYofg4lzKlTp1AH8vPzV1ZWrOWGLSMSiby8vCAIKi0ttVAT5iz6isXiV69eyWQyPYnAlcvlaKKmpmZpaenBgwdsNttsa+sMmUxWWlp69+5d9AqTeRtkAjO6TFxcHOVu1NbWUtyx7RC1Wt3c3Jyfn4/eGTHOnTtnoRbNif6cnBy5XC6Xy/XmRj+CIBqNBssGBQXt3LnTPFN2TUtLy8ePH5VKpUQiGRkZGR0dRS/LKvktiIW6lRFUKlVWVhbaOovFKi4uViqV9LthC2ATIBQ3N7c9e/bU1tZ++vQJ/7ltRT8Z1Gr13r17RSIRBEGhoaHPnz935JWfzMxMHo/n5eXl7+8vFAojIiKYTCYEQX19ffQ4QLf8RUVFqPbx8fHNzc3ozNZhycjIyMjIsKIDtMovl8tramogCBIKhS0tLRs2bKCzdcC/0Co/j8fLzMyUSCQNDQ1Ae1uAVvkZDEZDQwOdLQKMA174OjRAfocGyO/QUCC/VCrt7u6enp42VEChUOjBaz2bxEz5dTpdfX19amqqu7s7n89PSEgQCATR0dGPHz9eVfL+/ft8Pv/ly5ekXQVQjznyP3z4MDQ0NDc3t6OjIysrq6qqqqenp76+XiAQHDp0qLi4GIv169ev5+fnq1QqMzahAuhgTUvECoXi4MGDaMXg4OC2trZVBdBF7Fu3bun1+rq6OgaDAUFQUFAQRUvUjsLXr1/xGlluzX8N8k9MTISGhqIORUZG/vr1698yKysrWVlZPj4+PT09bm5uaOEjR45Q57BDQJv8RJd9pqen09LSJBIJBEH+/v5v377973I9k8ksLy+PiYlJTExcXl5GP0xJSSHYikl6e3vFYrFSqaTKIEFgGI6MjExLS6O5XYtDpI/Mzc1FRESg5RkMxocPH4yX3759O76J0dFRKnqqXi6Xoy/ErEVnZyclf4hJaIt+QlezsLAQ222Yl5e3Y8cO4+Xx4S4QCLBbBknc3d2xXkg/AQEBgYGB1mrdQpge/Gtqap49e4amWSzWpUuXTFaRSqVYmsKR38XFZWhoSKVS0T/4u7q6enh40NwoDZiQXyqVnjx5EssWFBSEhYWZNNrV1YWlKZQfhcPhcDgcam06LCYG/6tXr+JDrbCw0KTFnz9/jo+PY9nk5GRzfQNYHGPyy2SyO3fuYNnw8HAiqzcdHR1Yms/nb968mYx/AItiTP6KioqlpSUsS/DIELz8lI/8AGoxJn9dXR0+m56eTsRie3s7lgYjv41jUP7h4eHR0VEsC8NwUlKSSXNTU1M/fvzAsiD6bRyD8q/alZWUlETkuwf40N+4cWN4eDgJ3wAWx6D8vb29+CzBb+Ggm7hRQOjbPgaf+/FLNxAExcfHEzH37t07LG0h+REEwU9I6cHFxcXZeR2egWjwT5qZmcFnicg/NjZm0Sd+rVabmJgoFovJnIBoHkwmMywsrK2tbZ2t+xoc/Ofm5rB0YGAgeh6Hcdra2rB0QEAA5evzCwsL3d3d9GsPQRCCIN+/f8fPhdcHBqPfw8NjYWEBTROcwbW2tmJpSzzy+fn5tbe39/b2Li4uUm7cODAMb9myZf3NZgzK7+vrOzExgaaJ/EYEgiD46LfQlUpOTgZrCRRicPDHn+Hg6upq0lBTUxP+fgFEsgsMyp+amoqlTf5CgEKhOH78OJb18/OLjIwk75zDoqdrX7xB+bOzs7Hp3ufPn42YUKvV+/fvn5qawj5Zf/dImlk1ufnz54+FGjIoPwzDp0+fRtPT09NDQ0P/Lba8vLxv3z78XR8CIz9pxGIxPmvB0x6MbATTarUJCQlosd27dyMIsqpAf39/XFwcm81etQVocHDQQnvT1jcKheLbt28VFRVcLneVTAUFBV1dXTKZTKfTUdiiia2es7Oz2OErJSUlWq0W/Vwul5eVlbHZbD6fLxKJqqurMUd9fX3/7SiA/9LX1wfDMAzDLBaLeMQ6Ozu7uLjAMHzhwgWSDphYyPTz8+vs7CwpKbl9+/aVK1fu3bsnFAp///49MDDg5OR07Nix8vJyT0/Po0ePYlWSk5PRb3cATKLX65lMJpfLRXsAi8VycnJiMplMJhN/DVGpEARBEESr1Wo0Go1Go1KpEAQh6QDRI52npqaePn3a398/Pz8vEAiioqJyc3O9vb3R/w0ODp6cnETTN27cKCoqIukWgB4oONF7fHw8JCQEy/b390dFRZG0CaAHCr41gX/Hz+Pxtm7dSt4mgB4okB+/uW/Xrl3gxm9HUBz9YMHHviAr/8TEBNjVb7+QlR8f+t7e3tHR0SQNAuiErPz43V3gxm93kJJfp9M1NTVhWWyFGGAvkJL/2rVrs7OzWJboj4YDbIa1Lfu8efNGJBItLi4uLCx8+fJl1d43T0/PlJSUgIAAGIajoqIKCgqo9hZAMWuTPyQkBD/PNwKHw1lcXARTARtnbXvXq6qqxsbG0NdN2L/Ozs7LONRqtUajiYmJAdrbPuAnnB0acKavQwPkd2iA/A7NX8VN+K1U5GDBAAAAAElFTkSuQmCC;" parent="1" vertex="1">
          <mxGeometry x="448.46" y="431.5" width="85" height="40" as="geometry" />
        </mxCell>
        <mxCell id="5-wZZXHwRVPONYi7XLK3-1" value="" style="shape=image;verticalLabelPosition=bottom;labelBackgroundColor=default;verticalAlign=top;aspect=fixed;imageAspect=0;image=data:image/png,iVBORw0KGgoAAAANSUhEUgAABLwAAABYCAIAAABwJ3nqAAAACXBIWXMAAA7EAAAOxAGVKw4bAAAgAElEQVR4nOyddUAUWfzA3wbLgiKhgAJ2d4MiBsZZp6hnnp6tp2dhYJyBZ52F3YHdXZiHgYGYGBgIIo2iNCywu/P74/1+7/ecXWZnZ94GOp+/Nt58583Mm++rb4goigICAgICAgICAgICAgICAtoQm7oCAgICAgICAgICAgICAuaLMGkUEBAQEBAQEBAQEBAQKBJh0iggICAgICAgICAgICBQJMKkUUBAQEBAQEBAQEBAQKBIpKaugICAgIDxePbs2b59+1QqFVmxEonkl19+6datG1mxAgICAgICAgLmgEiIniogIPDz0KlTpxs3bmj+LhaLpVKpWCymKEqpVGrOKmUymVj8v6YZhYWFmgU6dux4/fp1Q9RZQEBAQEBAQMC0COapAgICPwuJiYnBwcHwc4sWLTZt2vTo0aOkpCQ4CczPz8/Ly1MoFIWFheXLl0dHjR07VqFQwH8hSqUyJyfnxYsXa9asKVu2LCxWvXp1E1ySgICAgICAgIDhEcxTBQQEfhaOHj2qVqulUunOnTuHDx9eVDGFQpGUlIS+Tpw40dLSklbG2tq6fv369evX79KlS8OGDQsLC6tVq2agagsICAgICAgImBZh0ijws/P06dPMzExT14IYlStXrlixoqlrYaYcPnwYALBlyxaGGSMA4P79+0qlEn52cnKqX78+Q+HatWt379797Nmzwk6jgIBBuXXrVnx8/JAhQ8iK/fLly+vXr8nKNCFSqdTLy8vUtRAQEDBf9u7dW7169VatWul7oDBpFPjZmTBhQmhoqKlrQYxFixbNnz/f1LUwR969e/fkyZOOHTuOGTOGueStW7fQ53bt2umUXKFCBSCYpwoIGJLVq1fPnDlz4MCBxCeNN2/eHDBgAFmZJsTe3v7bt2+mroWAgID5cu7cufPnz69du3by5Ml6HSj4NAoICPwUwG3GRYsW6Sx58+ZN9JnNpFGlUonF4ipVqvConYCAQJHMnj3bz8+vYcOGu3btMnVdBAQEBIo3gYGB1atXnzJlytKlS/U6UIieKvCzI5in/iRUr169XLlyd+7cYS6Wm5trZ2dXWFgIv0ZERNSuXZv5kEGDBj18+DA6OppMRQUEBDAWLFiwePFiZ2fnR48e4RGqSCGYpwoICPxsREVFtWjRIjU1deXKlX5+fiyPEiaNAgICPz4PHz5s0aLF/v37//jjD+aS169f/+WXX+BnJyenlJQUncLbtm0rl8uvXr1KoKICAgIY69atmzp1qkwmu3nzpqenp6mrIyAgIPCDcPfu3fbt2xcWFgYGBo4YMYLNIYJ5qoCAwI/PsWPHbGxsfvvtN50l9XVoBABERkYKDo0CAsS5cOHCtGnTAACrVq0SZowCAgICBPHy8lqyZAkAYOzYsSxXvYVJo4CAwI9PfHz8uHHjrK2tdZbU16ERAGBtbY02JwUEBIgQExMzbNgwiqI8PT0nTpxo6uoICAgI/Gj4+fm1a9dOqVQOGDAgLi5OZ3lh0vhT8+zZMw8Pj+vXr5u6ItzJz8+vW7funj17TF2RYs+XL1/69evHJk6MkSHyiI8fP75y5UqdxXJych4/foy+spw0fvjwoWfPnpzrJlB8OXr0aJ06ddLT001dEe6EhoY2bdrU3CJIFxQU9O/fPy0tzdLScvfu3WIxsbGKUqmcN29et27dSAn8kTDb9rx27doePXokJiaauiIkMdsBGEGdYJ7qRQAhEol27Nghl8szMjJGjhyp02NRmDT+vBw/ftzT01OlUrm7u5u6LtyxtLTs0KHDyJEjJ0yYoFKpTF2d4srLly+bNWsWHBzs4+Nj6rrQMeYjvnfvHgqB4+TkpDMEjsBPi1qtnjFjxqBBg1q1amVnZ2fq6nCnQYMGMpmsbdu2+/btM3Vd/p+5c+c+evQIALBgwYJatWqREpuent65c+dly5YNHDiQlMwfAzNvz127dn348GHz5s2fPHli6rqQwZwHYAR1gnmqFwGc6tWrz507FwBw48aNLVu26ChNGYaXL18uWLDg8+fPBpIvwJOdO3eKRKLKlSunpKSYui4EgC68AwcOLCwsNHVdih+PHz+2t7e3tLQMCQkxwulUKlVmZmZeXp5eRxnnEc+ePRvpxv79+xvuRDwRFKxe5OfnkxWoUqmGDx8OAOjRo4dKpSIr3PhkZGQ0aNBAJBJt3LjR1HWhKIp68eKFVCoFALi6uioUClJiU1NTGzduDABYtWoVKZk/BsZvz7m5uZmZmXqdKzw8vFSpUqVKlbp3757hKsYH9mrZyAMwDn0uQZ1gburl5+TLly/+/v7h4eFa/83JySlXrhwAwNra+v379wxyDDVpbNGiBQBg/PjxBpIvwId9+/aJRCI7O7uIiAhT14UMBQUFHTt2BAAMGTJErVabujrFiZcvX9rZ2YlEosOHDxtCfkZGxrlz5/z8/Lp3716lSpWSJUuiWZmVlZW7u/tff/0VGBiYnJzMLMc4jxgqLsiWLVsMdBb+CApWJ2q1+vTp071793ZycgIAODk5derU6cqVK0SEjx49GgDQpEmT7OxsIgJNTlxcnKurKwBgx44dpq2JWq1u1aoVfAc3b95MSmxmZiacMf7555+kZP4wGLo9v3r1au3atcOHD/fw8ChTpoyFhQV8viKRyM3NrVevXkuWLLl165ZOxX7t2jWpVGpjY/P06VND1JMnLNWyoQdgpPpcgjrBfNTLTwtcEK9Tp05RBbZv3w4bibe3N4McQ6Xc6Nmz54ULF6ytrT99+lSmTBlDnEKAGzdu3IDuHFevXvX29jZ1dYiRmZnp6en5+vXr2bNn//vvvxwkFBYW/v3338nJyZaWlnK53PL/kMlkKpWq4Hvy8/NFItGKFSucnZ1pcmJiYpYtW6ZQKGQymZWVlVwut7KysrS0FIvFSqUSHouLcnBwCAgIkEgkWmuVk5Mzd+7cr1+/4lWCtcrPz8/Nzc3Ly8vNzZXJZCtWrChVqpRel5yQkNCiRYv4+PjFixfPmzePw00ripycnBMnTuzbt+/u3btKpVJneblcvmrVKuZwF/wfMTPZ2dn29vaotmwyNJoKQcEy8+jRo7/++uvx48cODg7Dhg2rV6/e+/fvN2/enJ2dPWzYsMDAQD4+cv/888/ChQvLly//8OFDuDr7YxAeHt6qVSuFQnHu3Lnu3bubqhqBgYGjRo0CAJQvX/7Dhw8ymYy/TKVS2b1792vXrnXu3PnixYtwG1MrN2/e3Lt3r1gsxpWtXC4XiUSFhYWavUC7du3gjIvGtm3b7t69K5VKof6HHYGFhQVFUZpdQGFh4ciRI9u3b19UrS5evHj8+HGJRILqAz9QFJWXlwe7gJycnF69erEJEE3DcO05PDx8z549x48fT0pKYlPe3d39zJkzLi4uDGV27949evTosmXLPnjwoFKlSmQqSgg2atlwAzBD9LkEdYKZqJefljVr1kyfPh0AEBQU1LVrV80ChYWFlStXTkhIAABcvXq1yNh+pGez/8vp06eh/NmzZxvoFAIc+PjxI3RXWLRokanrQp7w8HA4wjh69CiHw9+/f6/vexgUFKQpZ/369XoJEYvFDGt+d+/eZSlH32XL/Px86E3Rvn17vW9W0WRlZc2fPx9f3WSJSCTSaR/L8xEzc/nyZVQZJycn4vIJIihYBjZt2gS3Mpo3b56UlIR+RwEnZsyYwVn4mTNnYFu9desWicqaF1u3bgUAlCpVitlCyXAUFBSUL18ePiaCW/1TpkwBADg6OqampjKX/P333/XSWu7u7lrl2Nvb6yXnr7/+YqgVNLLQCQeLegO155CQkJYtW+p1ByCdOnXSKXzAgAEAgMaNG+vr42BodKplAw3ADNrnEtQJJlcvPzMJCQlyuRwA4OnpWdSWPgoW2KRJk6LKGGrSqFaroSmIWCzevXu3gc4ioBf5+fnNmzcHADRs2LCgoMDU1TEIMOdMyZIl37x5w+HwkJCQEydO7NmzZ8qUKVpVcI0aNSZNmrRx48aDBw/evn1bq5CcnJygoKDDhw9v3bp18ODBWpV1mzZtFixYsGvXrjNnzrx+/ZqhSmq1+uLFixs2bPjtt980F92dnZ1/++23gICAx48f63uxkydPBgCUKFEiOjpa32O1olQqd+zYgbZexWJxrVq1Bg4c6Ovr6+/vv2zZshkzZgwZMqRWrVoikUjrbZkzZ47Os/B8xAzMmjUL1cScHRopQcEWzYwZM+AT7NKlS25uLu3f3r17w39DQ0M5CI+OjoZjPuYhfrGmU6dOAID69etr3j0jsGPHDviAbGxsSJlKoqH88ePHdRZOSkq6cOHC4cOH161bhxurIywtLX18fBYvXrx79+7Tp08nJCRolfPixYtTp07t3bt38eLFlStX1pRTpkyZ0aNHr1+//uDBg8HBwZmZmQy1ioqK2rdv35w5czTzwUokEnd3d19f3+PHj6elpel1ZwzRniMjI/HdTnt7e29v7z///HP27NnLli2bP3/+hAkTOnbsWJRRjEQiycnJYT5Famoq7GVGjRpFqtpEYFbLhhiAGafPJagTTKtefnJ8fX3hQx8xYoRWd+L09HQ07j127JhWIdrNU8+ePfvw4UOeYZfDw8MfPHgAABCJRGvXroVLfQImZM6cOcuXL5dKpQ8fPmzSpImpq2MQVCqVh4fHkydPmjVrFhoaWpTNJxtWrFiBh0UBAIwZM2bbtm36GrZ169YN38ICAGzcuJFb2rGHDx+2b98+NzcXAGBpaTl79uw5c+ZYWlpyEHXlyhVoorBhw4ZJkyZxkEDjxo0bvr6+r1+/BgC0bdt2xIgRPj4+RUXhS0tLO3/+/N9//00LoT527FhkWF8UBB8xDQ8Pj7CwMPh5y5Yt48ePJyWZhqBgDYSfn9/q1asBAJUqVXr69Knmbs+RI0fgVlKnTp2uXbuml3C1Wt26dev79+9XqFDh1atXNjY2pKptVsTFxdWpUyc7O3vq1Klr1qwx5qmVSmXNmjWjo6MBAKNGjdq1axd/mcnJybVr105PT+/duzeaPbIkLy/Pzc3t27dv6JeSJUuGhYXpa7UeFhbm4eGB/1KtWrVHjx5xCFJaWFg4dOjQo0ePwq9NmzbdsWMHt96ceHuG+11btmwpLCy0t7cfNWrUgAEDmjVrVtTZX7x4sWbNmgMHDtD+SkxM1Gkle/bsWbgAdPbsWVIRvw2tlokPwIzW5xLUCSZUL8Wap0+fnj9/HsZY4izky5cvp06dgp8HDhy4b98+zX2IESNG7N27FwBQs2bNN2/eaFlr0JxHZmRkFLUmwQfcTEjA+Dx79gw6cvj6+vIUlZeXN3r0aGtr6w4dOsTExBCpHkH+++8/2ORWrFjBR87Vq1dpbfjhw4cc5EA7coRUKuUT/7NXr14AALlczieCXHZ2dsWKFQEATZo0IRIrb/ny5XAuXbNmzTt37rA86sWLFzRVExgYyOZAUo8YJzMzE59/Gi5GlKBgDcTmzZvRK/bo0SOtZd68eYPu2MePH/WSv2nTJnjg2bNneVY1ODi4WrVq5cqVW716NU9RhmD+/PkAALFY/ODBA2Oe99ChQ+jp3L17l4jMvn37AgCsrKwSExM5HE6zsezatSsHIVlZWbS31d/fn4McyPPnz6GQXr16KZVKznIItmeKoqKjo+vWrQsAEIlEM2fOzMjIYHkgzQmzQoUKLA9s3bo1AKBcuXL67q9qxdBqmeAADGLkPpegTjCVeinWNG3alHjj1OrjExwcjApcv35ds4B289RevXo5OzvLeUBzNO/QoYMQ09KEqNVquOBnZWXFf3C5cOFC9GTN0zeyQ4cOAAC5XM5nTvv06VPaO3bz5k0OcpYtW4YLkUqlnKtEURQMlsDGzoqBadOmwcqcO3eOjxyKohQKxZAhQ6C0wYMHZ2Vl6XV4jRo10J2xtrZmn0OCyCPGuXTpEqqJoR0aBQVLnJCQEHRPpk+fXlQxlUqFxkxr1qxhLz8hIQFuxTRu3JhnVTMyMmxtbWEdLCws+Iz7DUR6erqDgwMAoF69esasXrt27eBtqV69OhGB58+fhwKnTp3KTULPnj3xF61t27bc5NBW9BcvXsxNDkVRd+7cAQA0a9aMj4EfwfZMUdStW7dg3BdHR8erV6/qdezhw4fxO+Pn58fywJCQEHjIuHHj9K+yFgynlskOwEzS5xLUCaZSL8WapUuXVqhQAcbT4gZNBVWoUCEuLk7zRGq1GnmV9+3bV7OAQXwao6KiqlSpAs9apkyZnTt3Gm1Ak5SUJLjYaoL08pQpU/hLw01Htm3bxl8gcUJDQ2H1hgwZwlnIp0+fwPecPHmSgxzkpYNgdl9h4Pnz5yKRaPDgwdwOh8TExED10ahRI54vZnJyMnL74bZ8gHv76LUES+QR4/j5+aGamLlDowkVrHmSm5tbrVo1eEPKlSvH/H6VKFECluzWrRv7U4wdOxYedebMGZ613bZtG2ppZcuW5SnNQCxfvhzWcNeuXcY5Y3R0NJrPz58/n79AlUoF7Ujlcjm3bUbq/9LDIurVq8dNDi0i6LRp07jJoSiqT58+FhYWzJ7wOiHYnnfs2AHjTlWsWDE2Nlbfw/Gc73K5XK85VZcuXQAAUqn07du3+p6XOAxqmeAAzIR9LkGdYHz1whKFQhETE3P//v0nT54kJSX9ADl4Ibm5uTBmLwDAwsLCz8+PYa0B+StJpVLN95H8pDEqKsrNzQ2esnPnzl+/fiV+iqLIz893cHAQi8UvXrww2knNn8LCQug9b2lpWZTXPnsiIiLwzu/Vq1dEKkkcT09PAIBIJOKc0Ck7Oxt8z/bt2znIQUbkCH3t4hAdOnSwtbXVmV6JGTQMOnXqFB85qampVatW5TMGCg8PR/fEwcFB31T1/B8xDgxRADHnDI0mVLBmC24BrnMZy9HREZZkP2H78OED3ENo0KAB//l5//79UW21LuWaA+np6dbW1gAAV1dXnYFJiLBgwQJ0W3RGdGQDmo1MmjSJsxAUVwlSrlw5bnLq16+Pyxk2bBg3OXCbkWfMZILtGbmlOTs7R0ZGcpCAYlMB/RcLkFty7969OZyaIAxqmeAAzLR9LkGdYHz1wsCzZ8/8/f2bN2+umSVFIpG4urp27dp127ZtnBeeTE5eXh5K51OlSpXw8HDm8rhn1tKlS2n/Ep405uXl1atXD55s7NixRp6mQwd6AICB0pQXU/bs2QNvy6BBg/hLg0GTIWXKlDHbLQ501Xx2jWgxZpYtW8ZByM2bN2maiEOkU+r/YqOvXbuWw7GIDx8+QM89V1dXPq9nQUFBmzZt4OV4enpyE4UPF3bu3Knv4UQeMSQjI8M4Do08Ma2CNU9CQ0NRbCo3N7f8/Hzm8k5OTuhBs5xyDxs2DJbntmxEo2zZsqgCmzZt4i/QQKCrNs4aCsq5Z2Njw8frG6JSqdC2D59tKFo+WJlMxk1O27ZtcTm//vorByEqlapJkyYuLi4848qSas+XLl1Cr97ly5c5SHj27BmSUK1aNX1TaKjVarRvxnPrlQ/MapnUAMwc+lyCOsHI6kWTL1+++Pn5VahQAVajVq1a/fv39/X1Xbly5YEDB7Zv3+7v7z9mzJhu3brBgGoikahFixaBgYHFrtuFaW8BAM2bN//27ZvO8gqFAtnjNGrUiPYv4UnjyZMn4ZkGDx5s/OnEq1ev4NnNbcvbtCBXfq1JBfVl0KBBSOn89ttv/AUaiJycHOg4JJPJvnz5wk0IzaaIwVeKgT///BN8j75eHxRF5efnV61atWbNmjxDdc+ZMwfWYebMmXzkoHzWVlZW79694yABLplDunfvzkECkUcMuXjxIqqMOWdoNK2CNUMKCgrq1KmDnt2GDRt0HoK6QwAAG5uU9PR0KysrAIClpSX/kBvv3r3DVcHLly95CjQc9+7dg5Uk4vbGzMuXL9E98fHx4S8QLZYXlUeRJZrOBfq6kFEU9fHjR7lcjgtp2bIlh8rs3r0bALB//34OxyJItefXr1+jtBmcU19A13QAgFQqvX//PgcJS5cuhRL4WPzyhFktkxqAmUOfS1AnGFO90MjNzV22bBlsvZ6enitXrmS+n4WFhTdu3Jg0aRLcTK5Xr97FixeNVluefP78Ga7L1KlTh/373r17d9RUaDbnhCeNcXFxNWrU6Nmzp0KhICuZDcKkURMULdDZ2Zn/8i31/Txq48aN/AUaDuS2ERAQwE0CzaZo+PDh+koIDw/XzAlx6NAhfeXApKuXLl3S90AcpVLp6uoK68BntIpHytYrmggiNzcXha2vWbMm57EL/0cMwe0bzdmh0bQK1gzZuXMnenBlypTRGRpEqVTiwQO1RoejgWwriKyR4ZMQc7bUgNSsWRNW9cmTJwY90apVq9BtIbL7CvO/8++kNJ0LOETeghFccThE+snMzCxbtqy7uzvPNkOkPaempqKNXDc3t/T0dA5C0BYcAGDr1q3capKQkADf6DJlyui0MjAQDGqZ1ADMfPpcgjrBaOoFJygoCI6CPD099TWDLygo2LRpE7RV8fb2LhYGq2q1ulu3brVq1dLLK2rRokWovdG2gg0SCMdUCJNGTWbOnAnvCZEQOJGRkXjPZ7YOjRAUOq927drcJNBsinr06KGvBG9vb9wcDsJmPwQnJSWlVKlSXbp00ffsNIKCgmAFGjZsyFlIWFgYmgY3b96cm6kG8rSuWLEiN08YCP9HDMHjWZuzQ6MAjlKpRB4+AIDJkyfrPCQmJgZ/E8+fP6/zEHd3d1iYf8gQiqIGDx6Mzm62Do0IFGZ5/PjxBj0RcrkhMoL89u0b9CyQSqU8bRA0nQv0rd7t27cBACj9OsTBwUHfmsyaNUskEvHPUkCkPffo0QNdy4ULFzhI+PjxI9qonDt3LueaUBSFch4WlY7chBAZgJlVn0tQJxhNvSACAgLEYnGlSpX4NP7MzMz58+dbWFi4uLiEhYURrJ75cOXKFfSC0/IMCZPGHxmlUokinXIwidQEz7bs6Oho5svk2dnZyCmRW1bDPn364D29vjZFMJf0rl27UO8I0TdJ1+jRo6VSKX9Hu379+sEKzJkzh7MQLy8vdCHcwskiW1BPT0+egQH4P2KKotLT05FfDTBjh0YBGrS04GxG87du3cIP0bl1DxNnAwCkUikHu0RNULQMYN4OjZDr16/DqpYqVcpw8Sqys7NROHiJRKKvY5smKGMnNytQnBcvXoDv0asnValUjRs3rlq1Ks03UiwW6zX0j4qKsrS05B8pmkh7vnHjBroQbuFkVSqVh4cHAMDa2nrz5s3cqoGYO3curEynTp14iiILqQGYWfW5BHWCcdQLJD8/f/jw4QCAdu3apaam8hd48+bN0qVLy+VyDoZj5s/Xr19Rk7O2tsY3yYVJ448M0hQWFhY8Xechf/zxB2pJ/fr14y/Q0HTq1AnWdvTo0RwOHzNmDN7T16hRg/2xCoWiatWqTZo0UalUeJBrAMDEiRPZy4GhAvhvFH/9+hWNzNhY5WkFToMhFSpU4JZkad68eUOGDDly5AiRRQeej5j63gLN2dmZf5UEjABKqACpW7cum6Nwc1YAgM51YhQ8s1WrVvzrHBUVhZ/dhKE7WJKfn1+yZElY24MHDxroLPhuHk+TAQjMiQd4b2FRFJWQkAC+R68we7C9nT17Fk8sAdFr5Nq7d29ra+v4+Hj9r+A7+LdnlUrVqFEjdBU7duzgICQyMrJz586zZ8/mkKJDE+QdJxKJiAgkBZEBmLn1uQR1gnHUCwTGrB4/fjwRLy1IdHR03bp1RSIRz7zZ5gluxfP8+XP0uzBp/JGZOHEivCFeXl5EBKJIU6CYWPFBV0AAQOXKlTkcPnv2bLybL126NPtjYSaiO3fuUNggBqJXFLW2bduWLl2aTcwrZpCzvkwm47aqV1BQAEOHQ1asWMGzSkTg+Yhzc3NbtWqFLsrDw4N4DQUMwYkTJ/B3imXKsgkTJuBHRUdHM5dHQRHnzZvHv86BgYHo1OYcbwkHZfcaMWKEgU4REBCAbsuAAQN4Svvy5QtyW71x4wZPaQqFAnwPeyfJjIwMZ2fnDh06UN+H2oKwj2UCJ9XckvLR4N+ecUdEBwcHnV7ERkCpVNrY2MAq7du3z9TV+X/4D8DMs88lqBOMoF6o//PQM0SopPT09Fq1allbWxPJ+2VW4Cbo+NqQFGhAUdSHDx9UKlWNGjVwqy0GKIp69+6dnZ0dHkxcwBCkpaUlJCTA5Q2dhVGwrHbt2vE/dUxMTGxsLPrq7e3NX6ahQb5qHz9+jI+Px23D2FC6dGn8a1pamlqtZvNSpKSkLF26dMCAAa1bt9aUg2/9M3Pq1Knbt29v3rwZBn3mA2oM7u7uMEWSvmzduhU5tVpaWqJgbqZFr0f8+vXrEydOKBQKpVKZm5ublJR0//79z58/owIPHz708vKqXr26nZ2dpaWlWCz28vJCHRsRBAVLBFpYS7yHY+D58+f4V83EXDjfvn1D5nxEVCh0b4MUC/0JAGjatCn0hQ4JCTHQKZ4+fYo+N2jQgKc0GNwCACCTyWAqVz5YWlqWKFEiJycH/cJeey9ZsiQ1NXXdunVAowtgL0etVvv6+laoUIGWMZID/Ntzbm7uvHnz0NdRo0bBQKymRSKRNGrUCLbPkJCQoUOHEhGbmJgYHx/v6uqKosfRSE9Pt7W1ZRiJ8R+AmW2fS0onGEG9nDlzxt/fv1u3bni0LVLY2tqeP3/ew8PDx8cnLCzMcB10cnJyUlJS7dq1aXGYGUhISMjOzkbRhvQF32kMCwtDZnffTRrT0tLmz5+/f//+rKwsAIC1tfWAAQPWrl0L49oXRXR0dN++fZ89eyaRSNavX09byv2ZmTt37oEDBw4ePIiy6/ChsLDQ19d327ZtarXa29s7KCiIufWkp6ejrdfGjRuzP5FSqdy1a1dsbGxhYSH++4cPH9BniUSya9cuXF2KRCJ7e/upU6eyb9NGAL/wkJAQPF8IG2g9vVqtTk9Pd8WDY7UAACAASURBVHBw0Hng3LlzlUol2gSjHcJyuJCfn+/n51evXj3NpB0cQEpZr8aAUKvVq1evRl+9vLzY3AcjoNcjvn79+pIlS8RisUwms7S0tLS0lMvlKEEcRVFqtToqKurNmzf5+fkFBQUqlerVq1ekJo2CgiXF58+fg4OD0Vc3NzfcZK4o1Go1nttaJpOhDQqt3L17F04/gJ5vzZMnT65evZqWlkb7/fLly+hzQkKCn58f/q9cLm/fvr25TSbRhX/48CEpKQn5aBEEnzTi+yrcQIquZs2aRKY0pUuX5jBpjIqKWr9+/bhx4+Dmnqa2ZCln165d4eHhx44d438tnNsz4vDhw7i9bs+ePXlWiRSNGzeGzx3PKsEBpVJ55syZLVu2PH78ODs7G/5Yr1692bNn4yGsAAB79+6dMGHCoUOHevXqpVUU5wEYwvz7XP46wdDqJSUlZdiwYbVr1z5y5AjLJVp9qV69+rFjx7p27TpmzJgLFy6QFa5SqTZv3rx8+fKkpCQAgFQqbdWq1bZt22rVqsVwVG5u7qhRo44ePQoAGDRo0KFDh9hsMtHAJ41Pnjz5/z/QnuOLFy+cnJzKlSu3YsWKkJCQ8+fPw+2IChUqMGRAViqV+NKgTCYzoU25WZmnHjt2DFaGv583xNfXF3+iOn0J8OarV3bjhw8f6tu8ENeuXeN3leRBUwIOEbrOnj1Lu8D379/rPOrp06disXjBggXoF2SmAqlUqRKbsy9btgzw8D/EycjIQBpz27ZtHCSgvGeQZcuW8a8VKfg8YqPxAyhY82HTpk14axw3bhybo2hBTSpUqMBcHiViKVu2rF7V69q1q/66EwAAPD099TqREcDjzRoiOmVubi4+mOMczgqBTA8GDhxIpIa09Yjff/+dzVG9evWyt7dHjoupqam0Z713716dQtLT052cnEh5l3BuzwiUchAAUKJECZ5Jgwmyd+9eVLHk5GRuQvbv31++fHkAgEgk6t+//+7dux89enTixIkuXboAAGbMmIEcAtevXw/PxZDGgPMADGG2fS5BnWBo9fLXX38BAEJDQ4lLpjFlyhQAwK1btwjKTE9Pb9GihVwunzp1alBQ0P379+vWrQsAkMvl0O+pKOBV87yxKNg+AMDGxgb9/r87jZGRkR07dqxSpcqFCxeQxU63bt1OnjwZGxs7Y8YM3BkDJzw8HO+JCwoKzpw5M3nyZK2Ffx4UCgVcRW7atClKJccTmif9yZMnaWFaaKAFV0tLy2rVqrE/UfPmzQMDAzMzM/EfKYqaPXt2fn4+/Dps2DDa4plUKnVzc0O5es2HRo0aQcXEYQ1Sq02RzrVwX19fFxeXWbNmFSWHzRpzcnLysmXLfHx8OnbsyLq+RXLv3j21Wg0/Q72jL/v378e/4iHyTQ6fR2wcBAVLliNHjuBfO3fuzOaoBw8e4F9RpP6iQCpU31dm5cqVMEEO/uPNmzfPnTsHPzs7O8+ZM4d2lJ2dHX9zSuJUrFjRzs4uPT0dAHDnzh0YT4IgsbGxSDUBAHhuNWRnZyMLZG6KThMO2js4OPjs2bMbNmxAx9rb24tEIrxJsJGzePHi1NRUfIOaD5zbM+TDhw/4G9S6dWsLCwsiFeMPPrEPCQnRTIzJTEZGxvjx46FWqVixYmBgIOrgmjVr1rdv36lTp65evbpy5cp//fXXiRMn4Ap+hQoV0HqlJpwHYAiz7XMJ6gSDqpfIyMgdO3b0798fhuo1KPPmzduzZ8/MmTNDQ0M5bOtpkpeX161bt+jo6Hv37qGuavz48RMnTlQoFGPHjg0PD0ehDXEoijp48CD+y9GjRzncWJSIFQCQlZX15csXR0fH/z2BUql0d3evWLEiLaPRyJEj4QFSqbSorKmxsbG0G+Tr68thUksE89lpXLp0KQBALpcTDN9Pc/aoVasWc3m02l2/fn3+Z3///j1+9qioKP4yjQPaoZVIJPoGzoqIiKC9SDpzUh0/fhwAQIvCjBYmETrTEI8YMUImk/HJp4SzYsUKdGqGfa2iUKvV/6svAAAA2NjYEAxBxh8+j9gI/DAK1kz49OkTfk8kEgnLRNV48GcAwPLly5nLI9ffSZMm8a/277//jk79xx9/8BdoNNCIvG3btsSFo7D7EJ75NnAzmVOnThGpIW281bRpU+bySqWyfv36tWvXpukiml/633//zSwnMjJSJpONHDmS7wX8Hzzb88aNG/H6m0lQFgicdUD0zWj16dMnND6uXbu21phzKpWqW7dupUuXfvToEQr4OXToUAaxPAdgZt7nEtQJhlMv/fv3t7CwIDWI0gkc9p84cYKItGnTpllYWNy/fx//EV9HCA4OLupY2iJFo0aNOFTg27dvuBBUEzEAYMOGDWFhYVu2bKFFBUDzBKVSqTl6hpQvXx4a0SHYu4n/qCQnJ8OkTEuWLMGDwvNkx44dKCUdACAjI4O5/MePH+EHaHHBEzy/mZubG74IYeagyCgqlSo+Pl6vY/WNXqBQKGbOnNmyZUt8gKhVDu2FpPHkyZN9+/b5+vpyW6HUBDUGa2trDn4R4eHhX758QV9r1qwplWqJocUBiqKCgoLmz58fHR3NWQifR2wEBAVLFpiXGX2tVq1aVFTUExbQNqJbtGjBcJaUlJTc3Fz4mbgKJRJWx2ig9wu3JSNFXFwc+mxvb8/TJR4pOkDoqQH9dxp37tz58uXLtWvX0pSkvnKmT59uaWkJR6L84d+e8fSMgNxGLgAgISFh48aN27dv5yzB1tYWzeX0aqUJCQnt27eHvY+zs3NQUJDWmHNisXj58uVfv3718vJCvo7MbzHPAVhx6XP56wQDqZf09PQzZ878/vvvpAZROvH19bW1tcUtpTnz5MmTdevWTZ06FTcIB9iYAQCA++fT2L17N24FwG3MYGdnJ5FI0FfUnqW5ubn//vuvt7c3LdgD9f02Cy0mCs6sWbNu37595coV+JU5Ht3PwJIlS7Kzsxs3bkzzQuSJh4fHgQMH0KqnnZ0dQ2EKMxYnEtAJT6VlbqEamMFVdkxMDIM9iSb6Ri8ICAj49OkT3GzE0Tr5ZHguvr6+jo6OKGcxf9ALz60x3L9/H/9KKkTYzZs3p0+f/uzZMwAAtN7kJofPIzY0goIlDs3K9N27d7SUNmyQSCTMR+HTD/4N/v3794mJiehr8Zo0ovcrPj5eqVSSGrxC8Ekj/zAYZJ8aRK/JXnp6+vz583v06KFpMl26dGk8mByznBs3bpw/f37FihWkroL/nTFEL5CTk+Pv779582aFQtGuXTs+Id/Kly//5s0boM/c4+vXrx06dIDZU0Ui0enTpxn6jvr167u7u4eFhaFf2rZtW1Rh/gOw4tLn8tcJBlIvQUFBhYWF+hoq88Ha2rpbt26nT5/Ozs5GSxjcWLBggY2NDR6pGIKsKQHjmKFNmzaLFi1CHhDcxgwikcjBwQGtXKAP4sDAwC9fvmhGcw4JCUGbISKRCA+koyl67969Tk5O8KtZjdiMT25u7oEDBwAAW7ZswafpROjXrx8K1YWnTNQkOTkZJZgiom5+gGVy8H3HyQapVEqLbMnQ0yclJS1fvnzYsGHNmzen/aXXjuWxY8fu3r27dOnSUqVK6VVbBnhOGmn7YERa1LZt2zp27Ah7L7lczsfrgM8jNjSCgiVOaGgo/rVy5cq1WEBbAKpXr16JEiUYzkJ2+oEvuhUvSw3w/U4+PscjAh6NkzmYLRvwp+bs7MxTGoSmvbOysgoKCooqvGjRooyMDDzzZFFyGLoAlUo1derUqlWrwugaRODZnlNTU/GNL25CaKSlpXl4eAQEBMCxCsMcjA2olbLvAsaOHfvu3Tv4eeDAgTo9ivGRD/NbzH8AVlz6XP46wUDq5ezZsyVKlCASEoI9Pj4++fn5aIWXG69evQoKCho7dixNH+bl5eHG/MzBNWbOnImaK+cxAz7bRPpKvHv37rJly8LwUDgo+CcAoE2bNswmbc7OzuPGjYOfOWcF+TE4efJkZmZmnz59mG2fOIPCIjG3GHyxjX/f+fbtWxjwF1K8Jo24YwCHGQX7nn727NkAAJoxIYT9jmVeXt7MmTMbN248YsQIfavKwKdPn+AHbo3h7du3+Ff+LSorKwsGo4NfPT09+Zil8XzEBkVQsGRJTk5GjRkAIJVKX758+YYFNK2lM6oEWRVafC01gIHfL2TsBwDgn64JPTV7e3utUSI4wN654P3795s2bZoyZYrW3pl94qXt27e/evVq9erVuEMKT3i2Z1oXAABAy1icWbduHcobCQDgGUUPtdL4+HiGTRjEnj17Tp8+DT9bWFgsXrxY5yHsjQX4a4+fp881hHopLCy8cuVKly5dOFxjQkLCuXPnbt26BTNj6UXXrl1lMtn58+f1PRBn9+7dAADNEeDFixdR7h9ra2vm+TAM4A8/cx4z4FsmKP6z+Pnz57/99hstgUlBQQFM8QGhOWhppVOnTvBDw4YNudXvx2D37t0ikWjJkiUGku/t7Q03MJkz/+Aej/w3rIr1Mjme3kozc5pOWPb0jx8/PnDgwNy5c7VaWLHfaQwICIiNjV2/fj3BnEIKhQKFveXWGJKTk/Gv1PdhITlw9epVPPUZz+ECz0dsOD58+CAoWLLQthmbNGnCvGEIoSjq9u3b+C8DBw5kPoSsCi2+lhrAwO9XXl4e+sx/0oieGkEzDfZLftOnT7e3t58/f77Wf1muP6anp/v7+7dv376oBIDc4NmeaV0AINELnDp1Cn0uUaIEzxCXqJWq1Wpa7HdNEhMT8V3c0aNHM9h6IO7evYs+M7/F/LXHz9PnGkK9xMfHZ2Vlubu763VUTk7O2LFj3dzcevXq5e3t7ebmtmfPHr0klCpVqk6dOporLHpx8uTJunXrasZDwaPg+Pj46LSAbd26NVx14jxmwBetUKwpMdDWfV64cAGtpcnlcjbRWuEWc7ly5UjZXhdHIiMj79y506lTJ/bxb65fv75gwQL20TukUimcltAcZGkgl3fw/YPnBj7iKXbL5LhKwm8LS1j29FOmTKlcufLUqVO1/mtra0uzVdYqJzExcfny5f3792/durW+9WSAf2OgLbnx1+y0lAloRsQNno/YcMBsGYKCJQgti2ybNm3YHPXy5Uv8jatcubLO8QRBFfrmzZuUlBT0tVhPGom/X/ikkX9XhapHcI+O5ZLftWvXLl68yOBWwLIr+eeff9LS0tatW8epskXCsz1r7rrgAUs58OrVK3ybsW3btjx3hvVqpStXrsSviE1etLi4OHz/kNmYVuhzTSIKAfeEXVxc9Dpq9OjRO3fuRF8zMzNHjhypmaybGRcXF3xHWl9SU1MTEhI0xwwpKSm41euwYcN0ipJKpXC0oDO5VFHgrySyyZdGRERoznDwlIA+Pj7MMVcgMAY6yy6cmczMzA8fPnDYGkZb2+/evaOtK7NBLpdXqVIF3yvXF7hyRkusycCzZ8+6du2qUqkyMzPZdxISicTOzq5WrVoMZQw3afzZRjxsevojR47cv3//9OnTRd1qkUgEEz0zy5k9e7ZKpVq5cqW+lWSGf2PAVygBAJ8/f+ZTn4SEBNx+w8HBAeXj5obZThp79uxphgoWkpSUFBsbixxvDIqFhYWLiwsRb0xa7h+Wyyu0THeDBg3SeQhBFVqsLTWAESeN/HcaTTVpVCqVU6dObdSoEcqjowltx1KhUOTm5qI0GJB3795t3rx57Nix9evX51drOjzbM60LAAB8/vyZj4Xq5s2b8a+//PILZ1EQ9q308+fPO3bsQF+rV6+Op3ksCnxI6erqyhyTU+hzTSIKAd2p9Jo0hoWF4eY/iGnTpum15+/i4nL16lWVSsUtpkmZMmUiIiI0970PHTqkVCrh53LlyrH01RSJRM7OzjVq1OBQE1DUpFFzQPP161d8Rjt06FA20mFfzn9GkZ2dXalSJZ7LKqtWrVq1ahWHA2Uy2ZMnT+rVq8ftvLdv37axsenevTvL8jt27FCpVAAA9raIFEUlJia2b9+eOX8owRFPREQErrB+8kkjPvGD5OXlzZo1y9vbu3fv3sxymCeNYWFhBw8enDt3bsWKFfWtJDP8GwN+DwEA0JOeM2vWrEHqDwDQoUMHnra4ZjtplErNTsFCrl+/3rlzZ/4mT3qxadOmCRMm8BRCewFZmrQFBQXhX3XapgKiKrRYW2oAYadRY9Ko2Qts27YtIiLi9u3bDKpM6+STNmmcNm1aiRIlFi1axKO+2uHZnmldAADg2bNnnEdKKSkptMz1PDe+gD6tdN26dXir8/HxYSMfnzTq1MNCn2sSUQgOO4337t3T+vvHjx+Tk5PZG/i4uLioVKrPnz9zjgWtdUPo0KFD6POQIUPYzEjz8vLi4uL4xI/FJ43IxUlLuzlx4gRyIy5dujTLFSAYIJhn/CsAgEqlYghNZmhUKhUbF+qijr137563tzf7kMFoKMO8bYgTGRlZWFjo5eXFXAwfDjJPL3VS3JfJRSIRugPIC5w9OncaV65cmZiYuH79ej5yKIry9fV1cXGB0XTIwr8x0AyuoqOjaZH02BMfH79lyxb8F80gMfrC8xEbGdMqWEh+fr6RZ4zg++kBZ/DxurOzM5v4EBkZGXj8+nr16rHZxiGlQimKKtaWGuD7NU3i7xcunH+bRBJ49no4dnZ2tBE2TXunpaX5+/v369eP2RBA547l1atXg4KCFi5caIi0Ojzbs6bNLc1QXC8WL16MTw/Kly9fp04dztIg7FspLScWSw2Mv8U69fAP3+cS1AmGUC/w/ut15+H+jb5/aQJPSlZPvn379unTp+grmyAIAICwsDCVSsVnzIBfBUr8qGV6g79RvXv3ZjkFCgkJKVeuHP9c9ra2tlFRUW/fvsWDqrHk06dPcCV70qRJmlmSdCKXy6tVq8Z5n+fZs2dZWVnsI/zGx8fHxsbCz+ydkmHIXZ2bmfj6JVoh4EZxXybHx8dsYmbQoPX0+fn5OTk5SE58fPzKlSvZWBMxTxqPHDny4MGDAwcOcKihTvg3hooVK9IigJ8+fZpbTq3p06fTTCI5vKo0eD5iI2NaBQv59ddf379//+nTJ57KgSUWFhblypUjYnGHTxpZ+vefPn0aX2WfPn06m6Nobw1tR4g9ERER+GivOE4a8ReW+Pul1QKKM+gxEWzYYrHY3t4e19g07e3v75+bm6vTrYB50ggNXGvVqsXevUUveLZnzXHR2bNn169fz8EG78WLF7h1KCAxhwGsW+nbt29hYkaIXC5nY+IeHx+P59jU+Rb/8H0uQZ1gCPUCd/mSkpLYBw4tKt+Bq6urq6sr+1MnJiaKxWKyoQfwMUO1atXYWFMDAEJCQgCLOOEM4AoZbQjTxytfvnzBd+H79evHRnRWVtbdu3fZOBOzgeX6sSbIr7phw4bsbURJAe8b+z3D58+fww9Vq1ZlE7kLcunSJRcXF52NhtSkkRZ1sDiOePDL56CStIbOQ3JmzZolk8nYWBPR5OBj39zc3FmzZnl4eAwePFjf6rGBf2No1KgRzSts586dHDqwEydO0FZ569evr5dG1grPR2xMzEHBQqpXr86ctscMoSgKH2eztI7DDXsqVqzI8i0jpUKLu6UGMPD7pdUCijOGmDQCABwcHIqaNL5582br1q1z5szR6bKr2ZXgvcDWrVvfvHkTFBSEVvTJwrM9169fXyKR4FsuCQkJly9f/vXXX/WSU1hYOGzYMJo9F5FJI8tWeunSJfxr69at2XjS4kvn5cqV06k5hT7XJKIQ0DBVr4A0Xl5ePXv21MyWsXr1ar1OnZiY6OzsTDZJ+8mTJ9FnlmMGAEBQUFD9+vX55OjCHw1q0nTz1KCgILQjaWdnx3KSeunSpfz8fDYxAH9g3rx5A/TJwYqyyrK3Of706dPVq1d//fVXndvuuM7iE+vi9evXP9IyOYftAobl4dDQ0CNHjrC0JmLYaVy5cmVCQsL69esJmlTh8G8Mmp5jT548QUmuWPL27VuUbBDRtWtXDvWhwfMRGxNBwfIhKysLH7ayiayTlJSET9tmzpzJclBOSoUWd0sNYOD3C/doIrjTSDbCE4P2njZtmrOz86xZs/QVgsv59u3bwoULu3btSkQfaoVne7aystK0FFiwYIFelnsAAF9fX7RcDrGwsCCSgZ1lK338+DH+tVWrVmyEBwcHo89sRkFCn2sSUQgOk0YAwN69e/EpmZWV1aZNm9g4wOMkJibqG7WVmU+fPr18+RJ97dOnD8tqhIaG8hwz4AoZPRr6TuN///2HPrdr146l6dTJkyddXV1Zvn4/KjCoOvt4Yih884ABA1gesnXrVrVazWYTFY/HyCc09p07d9Bnzsvkly5dCgkJsbGxadq0qdY1xcjIyKdPn75//z4zM7NKlSqNGjViTiiiF3gYXg4Zk4rq6SmKmjJlSs2aNVnG9qDJ+fbtG0VRIpEoLi5u1apVQ4YM4ZmligErKytLS0u4aMStMXTu3LlUqVK05FeTJk3y9va2t7dnIyEpKalLly6aSbGZowexhOcjNiaCguVDiRIlxGIxmnWXL19e5yH79u1D5cuWLcsQ3JKGIVQot0W3/Pz8Q4cORUREuLq6ent7azUzefjw4Zs3b969eyeVSqtWrerl5cUc3VEvDPp+4YqRfxgM9NR4JoSgUdSkMSgo6MqVKwcPHmSzQ2JjY2NhYYFvsiE5/v7+WVlZa9asIVdlOvzbc//+/WnzvWfPngUEBMycOZOlhH///ZfmXAcAaN++PZFGhVqpSCSysbEpqhhtItG8eXM2wvGFJzZvMf+7/fP0uYZQL25ubtbW1o8ePdLrKHt7++PHj0dERDx+/Lh06dIeHh76ehfn5ua+ffuWyB1G4GMGe3t7lvkzTp8+TVEU+21JreA7jf+/ukd9D97TrFu3jmJBUlKShYWFr68vm8IG5dWrV7Dmu3btMv7ZmzVrBgCIiopiWR5aSTVo0IBl+aSkJBsbGzs7O4VCobMwrhlnz57N8hSa4AsVf/zxBwcJo0aNgpcJ1ai7u3t8fDz698GDB927dxeJRCVLlmzevHnDhg2hV3S7du1ev37Nudo4eELeHTt26Ht4dHQ07UU6evQoRVEw+Nvly5dZytm6dStNTlpaGkVRgwYNKlGiBH5PDAGKudyiRQtuEkaPHq2pU9zd3TMyMnQeGx4ejgywca93Nzc3tVrNrT44PB+xMSnWCtYcwIfvDx48YC6cn5+PL/quWrWK/YkOHz6MDrxy5Qq32tK8ktj3DoisrKwGDRpIpdKmTZtaWFiIRKKhQ4cWFhaiAocOHYJbQI6Ojq1atYLrehKJZOTIkenp6dyqTWPJkiXoEt6/f09EJgJ3Ma1fvz5PabgJd15eHpEaUhRFC3Fcq1YtiqIKCgpq1qzZokUL9kqM5nczZcoUiqJev34tlUoN/YLzb88xMTGai1xisfjQoUM6j1UqlSjGG81yb+fOnRwqownarnRxcWEoRrMs/fz5s07JtDHA27dvdR5CZABmzn0uQZ1gIPXSq1cvGxsbGO/AaMCtYDhEJAXeDHr16sXyqAYNGjRq1IjnqXG/ucWLF8Mf6THBcGdfllF3du7cqVarJ06cyKbwD0xycjIAICEhgU3hrKysBw8eAH3WnufMmZOVlTVgwAA2EZzLli2LLPX5ZPhhuUweHx/frVs3zfnVxo0bDx06FBISEh4eHhoaCgAICwvz8fGBq62rV6/28vIqLCy8f/9+ZmZmWFjY8+fP79y5I5PJbt261aNHD9oyGzfwtNqVK1fW93Ct8dZzcnLmzJnTvXt39s4YWncsHzx4cOTIkdmzZ/P3MWAGXTjnxrBgwQLNqOthYWGtW7d+8uRJUUcplcodO3a0bNkyKirKyckpMDAQ/3fw4MFELHJ5PmKjIShY/uB5dEuWLMlc+NChQ2j0Vrdu3cmTJ7M/Ed6QOL817C01AgICFixYoPn78OHDc3Nz4+LiHj9+vHHjRoqi9u/fP23aNABAbm7uwIEDhw8f7unpGRMT8/nz57t370ZFRa1atUqlUgUGBsIFO/6g90ssFhNPCISv5WumstAX/KlxjjapidbES5s3b37//r1ebgVadyynTZtmZ2fn7+9PqLLa4d+eK1asOH78eNqParV66NCh/v7+DJ57Hz586Ny58/LlywEAgwcPxu39LC0t+aQEwEGtlLkLwNtY+fLl2eTlxrd6ypYty8ZJjMgArFj0ufx1goHUS69evbKysnC7YiNw9uxZCwsLskbmeJhilmOGkJCQFy9e+Pr68jw17WX530/4tDI8PBw/gM1CXX5+vqur66BBg3jOaIlg2p1G+HqzXDZDipLlTuPVq1fhq/7ixQuW9UGqrVu3biwPoREZGYm3B4Zl8r/++kssFsfFxeE/Zmdn29jYLFu2DP2CpkaXL1+ePn26RCLRervQsi6fPVIEnkT4w4cPHCTQllf/+eefefPmWVhYsFlxROAdDyQ0NNTd3b1ixYoEV8SLAjnQlyhRgrOQZcuWadUsEolk0KBBFy5cyMrKgiVzc3NfvnwZEBCAFE337t1TUlK2b9+OHxgREUHk6vg/YuNQ3BWsOYCHOmRellar1XXr1oUlxWJxaGioXieC6aEhK1eu5FZbPOgOg6VGfHy8TCYbO3Ys7XcYM+n+/fvwK1LIMpksOTnZy8vL0dHx4cOHtKPUajXy9uS8R4qDbJzc3Nz4S6Oxd+9edItkMhlPaUeOHEHSwsLCiNSQ+n4zBGq8z58/29nZDR06VC85tECdXbt2vXjxIgBg69atpKpaFETa89evX4vKPletWrV///33/fv3KpUKFk5MTLx27Vrfvn3hTpetre2hQ4fUajW+Qtq/f39SF4imf0OGDGEohk9L2rdvz0Yy7kA0YMAAlvXhPwCjzLjPJagTDKReUlNTJRLJqFGjCMpkJj8/38HBASZAJghujcxSn/fr169ChQoFBQV8zkvzMP/vv//g799NmoXTAwAAHXtJREFUGvFJeenSpdnIDQgIAACEh4fzqRwpTDtphHZQbdq00VmS1gPpHOZGR0fDwGu9e/dmXx+0CVazZk32R+Hg3TnD+5ySkiKXyzXrtnv3bpFIhBteInVWpUoVkUgEra41QbHLvb29udUcB7eK4fYW0fxUfXx85HL5tGnT9BKimZwXLrgeP36cQ5X0Ba7yQpKSkjjLGT58OGDE1tbWxcUFX8usUqXKwYMH4eF4aplWrVoRujgCj9g4FHcFaw4MGzYM3UNmC/Z9+/ahkvq+rRC0zP/nn39yqy0eqmf37t1FFYM7h8+fP6f9/scff9SoUQN9xVMFVK5c2dHRMTIyUqvAbt26wWL//PMPt5rjoGD0bHo3fcFtywEAmZmZfKRBexbIkSNHSFVS0xNv4MCBJUuWTEhI0EsOLY9848aNa9asWb9+faVSSaqqDPBvzxRFPX/+nNnxTCqVuri44E6eYrF42LBhsbGxFEXBNACI69evE7m03NxcZIS5YMEChpLQjQjCPL2EqFQqfDOc/fSe/wAMYp59LkGdYDj10qNHD5lM9vHjR7Jii2LdunUAgMOHDxOUqVKp8Cf78uVLnYc8fvxYJBJt2LCB56nxZSaALdF+N2nE3Ubr1q2rU+jXr1/t7e27d+/Os3KkMO2kEfmnMg9lNNMzMK9MxMTEQIc0CwsLvQy+4UAEACCVSrmNpHGLuMGDBxdVbPr06SKR6NmzZ7TfW7Ro0bZtW/Q1Ozsbd2ZYuHBhUQLRLXJ2duZQbRo9e/aE0mrXrs1NgmZyPEdHR339hVBOTpzWrVtzq5K+4IGkb968yVlOYWHh9OnTaamui8LZ2XnTpk2o7cH8RejfY8eOkbk2Eo/YOBR3BWsO4BneHj16VFSx7Oxs5M1YpUqVnJwcDudCKh3XY+yhGVsWNcFLSkoqWbKk5qJbWlqalZWVv78/+gUPwS+RSG7cuFHUqVFUXvYbIwzY2tpCaePHj+cvjQZ060C8efOGj7T09HSkZPBbx5Njx45p6jfciIYlWuMwoSV8Q8OzPSPCwsKQk7xOevXqhY+I8GCeBNU1nvqcuWfBs1aMGTNGp2Raig72O3X8B2AQ8+xzCeoEw6mXly9fisViNksD/MnIyChdunSjRo2IuIzi4OsvX7580Vm+bdu2jo6O3Lo8HFrUq9zcXPj7d5NG3Hm3fPnyOoWOGzfOxsaGg3O/gTDtpBEt7lapUiUmJkazQEpKyogRI2AZCwsL3IPF398fGXXghIWFIVsO6DTPnjNnziD53HpidEUAgPXr12stExERYWFhMXz4cNrvcXFxAIAtW7agX27cuIGktWnTRuv1QpB5Kv+4CBTmy8t5edXLy4ummrdv366vkJycHJoQsVj85MkTblXSl2/fvqH1Kv6mUPfu3evSpUtRkT9Lliw5aNCgM2fO0CI24Rvsbm5ueDAPnvB/xMahuCtYcwB3Cr1w4UJRxebOnQvLWFpaIvNOfZkyZQoUwm31KiwsDFXVwcGhqGJDhgyxtLTUtHU/cOAA+H6QOm/ePCRw3rx5DKeuUKECLDZp0iQONceBmhxCcO8OB/dNvXjxIk9pDRs2hKKITJgheOcFqVy5MpuIdDT8/PxocthHtuAPz/aMk5ubu2DBAjc3N61dAACgQYMGS5YsoS1z5+TkoBkCIGqUC18WSGJiIkPJo0ePopJ9+vRhFpuWloZfo5OTE/sq8R+A4ZhVn0tQJxhavYwYMULrlgZx5syZAwC4du0accn4Ao3OwQBs3idOnOB/3lOnTqHzVqxYEf3+3aRRrVYjA0KxWMy8OgLf0n379vGvHClMO2lcu3YtfotPnToFX+DMzMz79+8vWbIEV5erVq3Ky8vDlxBatGhx9erVlJQUiqJycnJCQ0OHDBmCBvpubm6pqal61efLly/o8FOnTnG4IjyOglYJBQUFLVu2dHJy+vr1K+2vy5cvS6VS3DYVTZJFItGrV68Yztu4cWNYkn+HilutsAnyphWaTVHDhg0ZZrwM0JIIjx49mlt9uIGybPEfR0JSUlL279+/ZMmS8ePHjxw50t/fPzAwMDg4GK1I4ahUKtyZhGCMUyKP2DgUdwVrJnh6esJ7uGbNGq0F7t69i0ZXfG4g3mtqqjid4OOhota/Lly4ALDAdDizZs2CUToRbdq0Qd0Bw4wlLS0NvREsI/QycOXKFXQVBgryjKc9KGp1kj2TJk1ivucc0HQu4Nal4m4CAABLS0tj+mDzbM+aqNXqO3furF+/ftasWcOGDfP19V27du2pU6eKMonavXs3qkClSpUIRrZEHgrVq1dnLpmXl4e8H11dXZlL0hJI6uWByX8ApomZ9LkEdYKh1UtcXJyVlVWDBg2ys7OJC0c8ePDA0tKyU6dOhhA+ZMgQdIuYrRIiIiJsbGxGjBhB5Ly4ssKH4vSUG3///Tcqd+bMmaLEPX361MrKiqATMxFMO2lMTk6mrQOJRKLSpUtrxqrq3bs33MLWmqHR1taWZopgZWXFbUuqTp06UIKfnx+Hw9evX8/cGMaPHy+VSrVaSanVapiKEIFiAHh4eDCcFFe1HOx/aOAuLtCnggM0myLO5p149P9SpUolJydzk8ONv/76C566efPmxjwvBA6OIbVq1SLow0PkERuNYq1gzYRDhw7BG9ivXz/Nfz9//oysMzgH/ECi0MO6dOkSBwnQFx0A0LBhQ81/3759a2dn17FjR607AAqFAjcxys3NlclkUNqsWbMYTorPDTjvsiLQ0KFKlSo8RRUFnup28uTJPKUdP34cipJIJGySE7CB5lzQrl07bnJw42qdz5E4/NszT5o2bYoqgJzuiIAcCEeOHKmzMB5dpihnIoVC0blzZ9rgbfPmzXrViucAjCeG63MJ6gQjqBcYm6NPnz7EDUchsbGxZcuWLVu2LC0SJCmuXbuGniODvWF6enqNGjWqVq2KYiPxBN80WrRoEfqdPmn89u0bWgtv3Lix1rXwU6dO2dnZNWjQgDYrMDmmnTRSFPXrr78CXfTp0wfd1bi4ODwJbFFwtkRH/gPM87SiiIqKQq7zuKEpRVFKpRJ6PLJUozk5OWjEw+xqgluP8Lfe/Pfff6GoSpUqcRaC2xT17duXsxy01wd4D2c5gG6sRCIhpVbYg3aHAONkiQNEHrHRKNYK1kxQq9UtW7YEAFhZWdHsLxITE+G2lVgsLmofUi9q1aoFHxa38T1KG6hpEPj8+XMYvp/lU75+/Tp6g5jXrZDat7Oz4z9S7Ny5M5Sm6YNACjxkEZ9QkxA8fgP7PLrM4M4FYrFYM2QRS/D5vLOzM8+oPxzg2Z75cPXqVXTtZF2/CgsLkYXz3r172ZT38PCA5Tt27KhZk5cvXzZt2lQmky1evBhg6Js7mucAjCeG63MJ6gQjqBfq/4Zw8+fPJy45Ozu7UaNGlpaWOpMG8wHNLKysrLSujL969apu3bp2dnYEPZ7w9B641wB90khR1KNHj1AKWpjsBf2VkJAA9ytatWplhgMak08ao6KicBtUTUaOHElbVD5y5AiDi7NMJuOT+hatuUqlUm678yiQaatWrZAxyd27d1u0aGFhYcFGQUNwI4Tg4GCGkmgv3snJiX+/8ssvv0BpfLzd0GKYXC7nE4kLJbqsWrWqkXPOUhSVlJSEWtrVq1eNeWp8qYy4CQeRR2xMiq+CNR/ev39ftmxZAEDPnj2RadatW7fgZr69vX1QUBCRE6H9+ZYtW3I4PD09HdkXoL2djIyMJUuWyOXyli1bsglsAEEGeDKZjME2FTeB5rPCBSkoKEA+FAZyaKQo6u3bt0g/lC1blr9AtMMzZ84c/tIgyLmAj565desWulKGaLqGg2d75gOaw4jF4tu3bxOUfP/+fSSZpYljSkpKgwYN4FF///03GpV9+fJl4cKFMpnM1dU1ODgYT3Lo6Oio74CE/wCMM4brcwnqBOOoF4qiVCpV9+7dAQB+fn7cfIu0kpiYCFcfDO1Fkpqa6u7uDm9UuXLl8CF0dnb2hg0brKysXFxcOC9maQVPYYr7CWuZNFIUFR8fP3jwYDTEdHV1bd++ff369SUSSalSpVasWGGcCNH6YvJJI0VRT58+1ZrBuVmzZiEhIVoPCQkJ0XpI69atHz9+zKcyCoUC2Udx89BVqVSrVq2C+42VKlVq3bo1FOjp6amX4dPMmTNhNSwsLBjCOikUChTOe9y4cRwqjFNQUGBtbQ2l8VkH2rlzJxQyd+5cPvX57bffoJxz587xkcMZFNno77//NtpJCwsL0Rars7Mzn4QfmpB6xEammCpYsyIiIqJRo0YAACsrq9atW8NoARKJZPTo0dAznAgomI2FhQW3Yd/bt2/hcFkmk3l5edWpU0cikZQsWXLevHl6JWhFgwZPT0+GYmgADQA4evQohwrjoHwYdnZ2hksnq1ar8az3/K280Fon873SC2jzbGtr+/nzZ85CXr58CSvWpEkTgoNX9vBvz9zAw88SjGoLQeFe9EqRl56eDvNLAwCcnJzatWvXuHFjCwsLuVw+btw4GB0dxeQDnJZg+A/AuGHQPpegTjCOeoFkZ2f37t0bANC9e3ciO/yPHj1ydXW1sLAwznRDoVDMmzfPxsYG3jFbW1svLy93d/cSJUpIJJIRI0aQXWXGA87RIr1rnzRCEhMTd+/ePXPmzCFDhvTq1WvSpEn79u3jH8jVcJjDpJGiqIKCguPHj0+cOLFXr16DBg2aM2fOf//9x7xGlZ2dvWfPnlGjRvXs2XPo0KGLFi16+vQpkcpMnjyZ/xwsOjp606ZNY8eOHThw4OLFixlCvRcFsgZhttM4e/Ysaqm3bt3iXGEIMujiGdr7v//+AwBUq1aNZ+OfPn06AKBnz558hPDh9OnT8IbQAmwYFJhpEAAgEomI73CSesQmodgpWHNDrVafPHly+vTpvXv3Hj169IYNGwzhJ4x2JDjPwVQq1blz5+bPn9+3b99JkyZt375d34lHVlYWcphnNiz09fWFxaytrfnPClAQWkMk28DBgz3wjxqSkpJiYWEBABCLxfqmUiwK6JPPIW42TkZGhlgslkqlDx8+JFIrDvBvz/qSmZmJ3IzbtGlDfEWsVatWUDgHR564uLi1a9eOHDnSx8dnwoQJW7duxUMEoSjEAICNGzdyqBuRAZi+GLTPJagTjKZeIGq1ev78+XC0wGEQi1AoFAEBAXK5vEyZMnfu3CFYQ51kZWWdPn16/vz5o0aN8vHxGTNmzJo1a5jDBXPj4MGDqOVPnz4d/4tp0ljsMJNJo1mBljYdHR0JJjnQi+zsbDTiobU/Gn379oXFXF1d8YXY9PT0orKcMYDygPN0ICwoKDh06BD/N/Pr169nz5419IoaA4WFhcgwklu++I8fP+7cuXPChAl3795lU/7NmzdoJzAgIIDDGZkh9YgFBIpi48aNsI1pplI0Grh5P0OiEaVSCa12AQADBw7E/4qJiWFvCgtRq9WVKlWC0sLCwjhWnR34TtTs2bP5C0RmHfzDsUKePXtGxEPy1q1b+rrGkYVne1YqlZcvX/b391+6dCnLHRsUSa5GjRpkd70oioqOjobC7e3tOSRBYeDjx48Ag01edU34D8DMqs8lqBOMqV5wjh07Zm9vDwDo3LmzvvacKpVq//79MCath4cHH2clMwcPTnb9+nX8L2HS+OODdvmM7MmGwD3gGYK2ffv2zdLSEhajraYPGjRIX0OjnJwcuJUvlUqJd1TFl1mzZsE7rK+3T3Z29oQJE+D6PaRbt27Muv7Lly8o7sKqVav4VVwLwiMWMALfvn2D/myWlpakonHqC0wCBnRFBA0KCkKvJz7DUSqV5cuX19co/c6dO1AUzTzJEKSnpyPdQsSm9PLly1Ca8Z33zBw+7fn69eu1a9dGbaxMmTIBAQHMYdU2bdqEZoykdn1xFi1aBOVPnDiRrOQ9e/bgV8o5wgLnAZgZ9rkEdYIx1QuNtLQ0Pz8/uVwuFot/+eWXrVu36myZjx8/nj9/fs2aNQEAVapUOXr0qIFisZoJKNCxtbU1bS3mh5o0RkVFwes083RtRmbXrl3wtgwdOtQkFUBpBqRSKcPa5JYtW5ByxFNdp6amWlpa6jvJQXH5Tbg/YIZERkbCMOKVK1dm71STnZ2NXKpoVKpUacKECWfOnHn37h1aSVUoFMeOHatatSoAwMLCYtOmTYa4FuERCxgHZDwZGBhokgqgICLM5v39+/eHxWiWGjD4vr5j1jFjxkBppDbrmOnQoQM8nVgs1jcpsSYoSZ1IJNKZEftng1t7Pnz4sEQi0ewCZDJZp06d1q1bd//+fdy28927d2i/onnz5oaYMVJY6nOyUUAoiho+fDi6xj59+nCWw20AZp59LkGdYGT1oklsbOzYsWOh06lIJGrWrNnIkSPnzZu3efPm06dPHz16dM2aNTNmzBg0aJCbmxusar169davX2/8KIZGJjU1Fb3pAwYMoP37Q00aURgVUg6BPwZ5eXkwnp5MJjNQdmZmkMsB8xIySqRLSyS4Zs0amUymb3QEOMwSiUTPnj3jUukfl379+sH7fOLECZaH3LhxQzPdqCYSiaR06dIODg5I41SpUuXRo0cGuhDhEQsYhxcvXsCAGfXq1TP+AjOeoZFht7CgoABlSKLlhevZs2fdunX1qvnXr19hGgMXFxetqcOJc+DAAaRJiCTx27x5M5Q2YcIE/tJ+JLi1Z5RpmZmSJUs6OjqiqJgikWjatGlacwvxBxkxGWLdEBlPAgA2bNjAWQ63AZgZ9rkEdYLx1UtRFBYWBgcHT5kypXr16vimLqJUqVJeXl6rV6/+8OGDCetpTGBmS8iVK1do//5Qk0aKoqKjo4UZoybI0ILZpdAQ4CMe5uijKN4X7tPy9evXcuXKjR49Wq+T3rhxA4oS0qNr8v79e+hi2rRpU/ZHBQcHN2vWjMWY4f9V7cKFCw2XEFJ4xALGBHnPMrgUGggYiAtCcy/B+fr1q9aePiQkRCwW6zsNmzdvHhRFy9BrOPLy8lAMVZpDJjcKCgqqVasGALCysiIYUPfHgEN7zszM9PPzQ7NBNrRu3ZqlJx43vLy8AABisZibwyEDMTEx+IVwCwGA4DYAM7c+l6BOML56YYNarf78+XN4ePiVK1du374dGRn5c8al69OnD3w6bm5umvZoP9qkUUArKpUKTslKlixp5PxvwcHBSKkxR53+/fffYbFt27bBX9Rqdb9+/cqXL69vEJo2bdoAACwtLd+9e8e96j8uyGqIYQyqlXv37o0fPx4lgtNKw4YNV6xYwd/AjBnhEQsYk9jYWLiPRzCLA0sWLFgA3yyd2d7KlSsHSyLz/oyMjKpVq3bp0kWvkJVpaWkw4XCNGjUMtEekFRhfGvZTRBJCnDhxAgrkmS3px4Nze05LS9u8eXO7du3QWrAmJUuWHDJkCJ8AlWxAQ4sRI0YQF45vtjg4OPC0L+AzADOTPpegTjCVehFgQ2ZmJgqkpNWwRZg0/iw8ePAAWqQwR2wnzj///APbn87EUJcvX4b2GGPGjKEoKjExsUePHra2tvouIt68eROecdGiRbyq/uOCco63aNGCW3cYHR197dq1vXv3Llu2bNKkSZMnT164cOGJEydiYmKI11YT4RELGB+U/Y9IFE32eHt7w/PqHN+jeDlwX/HJkyc1a9Zs1KiRvnnJ/P39AQAikYh/3iO9ePfuHTLJI5UvGyantbW1FWJl0eDZnnNzc0NDQ0+dOrVx48Y5c+aMGzdu5syZGzZsuHfvnnEihLdt2xYA4OjoaIjJEtqJBQD06tWLv0D+AzDT9rkEdYKp1IsAG3bv3o1G7J8+fdIsIEwafyKmTp0KAJBKpS9evDDaSZcvXw6bIJtUPJs2bYKW7k5OTgCAatWqhYSE6HU6hUIBw7vVrVv3h/dX5sO5c+fgc9m6daup66IfwiMWMAlKpRJai1WuXNmYZktdunSBYyydifWUSuXIkSNFIpFIJHJ0dAQAtG/fXt8AJO/evYPRNeHinZHx8fGBesnb25uIwLi4OBjpQDOiw0+OqdozEfbt2wfbiSGiHuK5qQAA//77LxGxJhmAEYGgTjCtehHQCTT5BgAU5RQmTBp/InJzc+vVqwcA8PDwYB85kycFBQXHjh27fPkyyzOmpKQcP35848aN169f52C6ACO1WllZ8XRC+BkYNWoUXIM3RHJYwyE8YgFT8ebNG7iqRYs0Y1BSU1MDAwPZ++q/fft2z549O3bs4BAPQ61Ww0FDzZo1DeccxcCrV6/ghoxIJIqIiCAiE4XYYUj49HNikvbMn+TkZBj08vfffzeEfLQHC9m/fz8RsSYZgPGHoE4wuXoRYObFixewzUskkqIC/wiTxp+Ld+/ewdR2fKKBmS1Pnz6FIV6ERJ1syMvLa9iwIeAXT9zICI9YwLQcPnwYbhf8kBHXYOZ3KysrE26GIMvAkSNHkpL5559/AgAqVqyor6XuD09xbM+//fYbAKBWrVqkJh4XLlyYOnXqmDFj+vbtC7NW4Nja2vr4+Pz5559TpkzZuXMnnxMVxwEYQZ1gDupFgIGhQ4fCNj9kyJCiygiTxp+Oc+fOSSQSmUx2+/ZtU9eFJGlpaTCtLfEkvz8w0dHR0BJ4+fLlpq6LboRHLGAOzJgxA85AkpOTTV0Xkjx+/Nja2lokEh07dsyE1YiJiYFBVmQyGSkjCIVCAbc4unfvrldMoJ+B4tWeYT5nBwcHPJkzT/DsGsxYW1vzDIpTvAZgBHWCmagXgaKIjY2FSUdKlCgRGxtbVDFh0vgzsm3bNgBA6dKlIyMjTV0XMhQUFMBwET4+PsXI8MMcePz4ccmSJUUi0cmTJ01dFyaERyxgJqjVahjq2cPDw7RJxggSGxsLg68GBASYui7UzJkz4Rh93LhxpGR++/atTp06AIDJkyeTkvljUIza8+XLlyUSiVwuJ5vJ47///tu1a9eBAwdOnDhx/vz5a9eu3b59+969e8HBwZcvXz579uyxY8f27du3c+fOhw8f8j9dcRmAEdQJZqVeBLQyYsQIqHVXrVrFUEyYNP6krF27FgBQo0aNr1+/mrouBBg+fDgA4Ndff1UoFKauS/Hjzp07JUuWtLKyItIjGgjhEQuYD4WFhX379gUA9OvXj+fOgzmQmZkJUwIsXbrU1HWhKIpSKBR169aFZpNv3rwhJTYxMRGaKmzcuJGUzB+DYtGeX7x4YWNjY2VlpW+mKDPE/AdgBHWCuakXAU2QM3m9evUKCwsZSgqTxp+XnTt3SqVSd3d3IhmxTAiMjPLHH38IsTQ58/DhQ2dn5zJlypAKPkEW4RELmBuF/9PeHbskE8dxHPfRHOKgRR2USwlUhEBHwUUhBFscxKmpoUnCrX/Apc0aAt0cm45b9aKgQreWaMsI3BKk7X5DJ/cMwsPDw/Og1eH99Hm/5vv++IDHl/vi/e738XF0dOTxeGq1mttZvkUIsbe35/P5pBqlHh4eZu9KlUolB5d9e3vLZrNer/fy8tLBZdeA5Pfzy8uLqqrBYPCzH1SXlswPYA72BDnbC343nU5zuZzH4/H7/XP/OWBo/K/d39+nUqklHzvmLNM0o9HoCm0rl9ZoNCoWi389ztVd/MSQVrvdVlX1/f3d7SBfd3d3l0wmb25u3A7yp0ajMXtdanbspFOEEMfHx/l83sE114a09/Pp6WmhUHh9fXU7iJOkfQBzsCdI217wS7PZnHXa8/PzuRf/sG17wR3AAAAAS2BZVqFQ6Pf7gUDg8fExEom4nQgA1srz83MmkxFCVCoVTdPmXu9dQiYAAIDFbWxs6Loej8cnk8nBwcF0OnU7EQCsD8uyDg8PhRC7u7udTmeREoZGAAAgnVAoZBhGOBy+vb09OTlxOw4ArI96vT4YDGKxWLfb3draWqSEoREAAMhoZ2en1+sFAoGzs7PZ4eAAgG+6uLhotVrhcPj6+lpV1QWr2NMIAADk9fT0VCwWx+OxruvlctntOACwwq6urvb397e3tw3DSCQSixcyNAIAAKkNh8NqtaooSr/fdzsLAKywdDqtKIqmaZ/9wBhDIwAAkJ1t26ZpKoridhAAWGFCiM3NzS8UMjQCAAAAAP7pJwLBSzJArEEMAAAAAElFTkSuQmCC;" vertex="1" parent="1">
          <mxGeometry x="393" y="340" width="385.64" height="28" as="geometry" />
        </mxCell>
      </root>
    </mxGraphModel>
  </diagram>
</mxfile>
